G04 ================== begin FILE IDENTIFICATION RECORD ==================*
G04 Layout Name:  D:/winprj/orcad/美容护理/水床18/电源/pcb/pcb.brd*
G04 Film Name:    BOTTOM*
G04 File Format:  Gerber RS274X*
G04 File Origin:  Cadence Allegro 16.6-2015-S108*
G04 Origin Date:  Wed Oct 17 13:30:20 2018*
G04 *
G04 Layer:  VIA CLASS/BOTTOM*
G04 Layer:  PIN/BOTTOM*
G04 Layer:  ETCH/BOTTOM*
G04 *
G04 Offset:    (0.0 0.0)*
G04 Mirror:    No*
G04 Mode:      Positive*
G04 Rotation:  0*
G04 FullContactRelief:  No*
G04 UndefLineWidth:     6.0*
G04 ================== end FILE IDENTIFICATION RECORD ====================*
%FSLAX25Y25*MOIN*%
%IR0*IPPOS*OFA0.00000B0.00000*MIA0B0*SFA1.00000B1.00000*%
%ADD13C,.1181*%
%ADD15C,.1575*%
%ADD10C,.1969*%
%ADD11C,.063*%
%ADD17R,.315X.1575*%
%ADD14C,.0571*%
%ADD18R,.1575X.315*%
%ADD16C,.0394*%
%ADD12C,.0709*%
%ADD20C,.0945*%
%ADD19C,.0787*%
%ADD21C,.1*%
%ADD22C,.2*%
%ADD23C,.12*%
%ADD24C,.16*%
%ADD25C,.02*%
%ADD26C,.04*%
%ADD27C,.06*%
%ADD28C,.08*%
%ADD29C,.1312*%
G75*
%LPD*%
G75*
G36*
G01X-270000Y250000D02*
Y270000D01*
X-280000Y280000D01*
X-330000D01*
X-340000Y270000D01*
Y250000D01*
Y240000D01*
X-350000Y230000D01*
X-370000D01*
X-380000D01*
X-390000Y220000D01*
Y100000D01*
Y70000D01*
Y-180000D01*
Y-210000D01*
X-380000Y-220000D01*
X-240000D01*
X-230000D01*
X-220000Y-230000D01*
Y-246000D01*
X-218000Y-248000D01*
X-196000D01*
X-194000Y-246000D01*
Y-216000D01*
Y-114000D01*
X-150000Y-70000D01*
Y70000D01*
X-140000Y80000D01*
X-100000D01*
X-70000Y50000D01*
X-60000D01*
X-50000D01*
X-40000Y60000D01*
Y80000D01*
Y90000D01*
X-50000Y100000D01*
X-60000D01*
X-82000D01*
X-84000Y102000D01*
Y136000D01*
X-86000Y138000D01*
X-94000D01*
X-96000Y136000D01*
Y102000D01*
X-98000Y100000D01*
X-160000D01*
X-170000Y90000D01*
Y-60000D01*
X-230000Y-120000D01*
Y-130000D01*
Y-190000D01*
X-240000Y-200000D01*
X-300000D01*
X-310000Y-190000D01*
Y-180000D01*
Y-160000D01*
X-300000Y-150000D01*
X-280000Y-130000D01*
Y-100000D01*
X-270000Y-90000D01*
Y10000D01*
X-280000Y20000D01*
X-300000D01*
X-310000Y30000D01*
Y50000D01*
X-300000Y60000D01*
X-284000D01*
X-280000Y64000D01*
Y120000D01*
X-270000Y130000D01*
Y250000D01*
G37*
G36*
G01X-180000Y-240000D02*
Y-210000D01*
Y-130000D01*
X-140000Y-90000D01*
X-98000D01*
X-96000Y-88000D01*
Y-54000D01*
X-94000Y-52000D01*
X-86000D01*
X-84000Y-54000D01*
Y-88000D01*
X-82000Y-90000D01*
X-60000D01*
X-40000Y-110000D01*
Y-120000D01*
X-50000Y-130000D01*
X-60000D01*
X-80000Y-110000D01*
X-130000D01*
X-156000Y-136000D01*
Y-194000D01*
X-154000Y-196000D01*
X-6000D01*
X16000D01*
X22000Y-202000D01*
Y-244000D01*
X20000Y-246000D01*
X6000D01*
X4000Y-244000D01*
Y-210000D01*
X2000Y-208000D01*
X-6000D01*
X-154000D01*
X-156000Y-210000D01*
Y-246000D01*
Y-272000D01*
Y-278000D01*
X-162000Y-284000D01*
X-334000D01*
X-336000Y-282000D01*
Y-278000D01*
Y-270000D01*
Y-246000D01*
X-334000Y-244000D01*
X-330000D01*
X-328000Y-246000D01*
Y-268000D01*
X-326000Y-270000D01*
X-278000D01*
X-276000Y-268000D01*
Y-246000D01*
X-274000Y-244000D01*
X-270000D01*
X-268000Y-246000D01*
Y-268000D01*
X-266000Y-270000D01*
X-184000D01*
X-180000Y-266000D01*
Y-250000D01*
Y-240000D01*
G37*
G36*
G01X-142000Y-274000D02*
Y-286000D01*
X-140000Y-288000D01*
X-136000D01*
X-124000D01*
X-120000D01*
X-118000Y-286000D01*
Y-274000D01*
Y-228000D01*
X-120000Y-226000D01*
X-124000D01*
X-136000D01*
X-140000D01*
X-142000Y-228000D01*
Y-274000D01*
G37*
G36*
G01X475330Y-280000D02*
G02X473910Y-276590I-2J2000D01*
G01X476010Y-274490D01*
Y-262620D01*
X476080Y-262440D01*
G03X463920I-6080J2440D01*
G01X463990Y-262620D01*
Y-269510D01*
X463510Y-269990D01*
X436010D01*
Y-262620D01*
X436080Y-262440D01*
G03X423920I-6080J2440D01*
G01X423990Y-262620D01*
Y-269990D01*
X398490D01*
X396010Y-267510D01*
Y-262620D01*
G03X385770Y-254990I-6013J2616D01*
G01X341800D01*
X333650Y-263150D01*
G03X340730Y-270230I3540J-3540D01*
G01X345960Y-265010D01*
X383990D01*
Y-272490D01*
X388090Y-276590D01*
G02X386670Y-280000I-1418J-1410D01*
G01X240000D01*
X230000Y-270000D01*
Y-104260D01*
X293730D01*
X312470Y-85520D01*
Y-61260D01*
G03X294450I-9010J0D01*
G01Y-78060D01*
X286270Y-86240D01*
X230000D01*
Y-50000D01*
X240000Y-40000D01*
X340000D01*
X360000Y-60000D01*
X394450D01*
Y-92810D01*
X386270Y-100990D01*
X336270D01*
X294450Y-142810D01*
Y-218740D01*
G03X312470I9010J0D01*
G01Y-150270D01*
X343730Y-119010D01*
X384990D01*
Y-227220D01*
X403420Y-245650D01*
X498060D01*
X520420Y-268010D01*
X575580D01*
X576590Y-267000D01*
G02X580000Y-268410I1411J-1415D01*
G01Y-270000D01*
X570000Y-280000D01*
X475330D01*
G37*
G36*
G01X578740Y-246940D02*
G03X566680Y-246210I-6237J-3062D01*
G02X563320I-1680J1093D01*
G03X551680I-5820J-3790D01*
G02X548320I-1680J1093D01*
G03X537340Y-254650I-5820J-3790D01*
G02X535860Y-257990I-1487J-1339D01*
G01X524580D01*
X502220Y-235630D01*
X407580D01*
X395010Y-223060D01*
Y-220520D01*
X396700D01*
X396950Y-221170D01*
G03X398450Y-213920I6510J2433D01*
G02X395010Y-212540I-1441J1386D01*
G01Y-117490D01*
G03X396370Y-116370I-5020J7482D01*
G01X412470Y-100270D01*
Y-60000D01*
X430000D01*
X440000Y-70000D01*
X481990D01*
Y-70160D01*
X493490Y-81660D01*
Y-82030D01*
G03X500200Y-89200I4009J-2973D01*
G03X505700Y-89130I2697J4200D01*
G03X511830Y-88710I2796J4131D01*
G02X513170I670J-749D01*
G03X514740Y-89660I3323J3719D01*
G03X521270Y-83560I1761J4660D01*
G03X520670Y-82270I-4776J-1437D01*
G01X520510Y-82020D01*
Y-76840D01*
X519930Y-76260D01*
X517090Y-73410D01*
G02X518500Y-70000I1413J1412D01*
G01X590000D01*
X600000Y-80000D01*
Y-229410D01*
X581950Y-247470D01*
G02X578740Y-246940I-1415J1415D01*
G37*
G36*
G01X486710Y-64080D02*
X487380Y-63390D01*
X486000Y-61750D01*
X484620Y-63390D01*
X485290Y-64080D01*
G03X486710I710J710D01*
G37*
G36*
G01X491710Y-61580D02*
X492380Y-60890D01*
X491000Y-59250D01*
X489620Y-60890D01*
X490290Y-61580D01*
G03X491710I710J710D01*
G37*
G36*
G01X496790Y-82920D02*
X496120Y-83610D01*
X497500Y-85250D01*
X498880Y-83610D01*
X498210Y-82920D01*
G03X496790I-710J-710D01*
G37*
G36*
G01X496210Y-59080D02*
X496880Y-58390D01*
X495500Y-56750D01*
X494120Y-58390D01*
X494790Y-59080D01*
G03X496210I710J710D01*
G37*
G36*
G01X502180Y-82920D02*
X501510Y-83610D01*
X502890Y-85250D01*
X504270Y-83610D01*
X503600Y-82920D01*
G03X502180I-710J-710D01*
G37*
G36*
G01X501970Y-62970D02*
Y-62000D01*
X499820Y-61820D01*
X500000Y-63970D01*
X500970D01*
G03X501970Y-62970I0J1000D01*
G37*
G36*
G01X507790Y-82920D02*
X507120Y-83610D01*
X508500Y-85250D01*
X509880Y-83610D01*
X509210Y-82920D01*
G03X507790I-710J-710D01*
G37*
G36*
G01X515790D02*
X515120Y-83610D01*
X516500Y-85250D01*
X517880Y-83610D01*
X517210Y-82920D01*
G03X515790I-710J-710D01*
G37*
%LPC*%
G75*
G36*
G01X515230Y-140500D02*
G02X507770Y-143090I-4729J1583D01*
G01X507520Y-142930D01*
X505010D01*
Y-175040D01*
X505180Y-175290D01*
G02X505410Y-175680I-4172J-2723D01*
G02X505970Y-177570I-4407J-2334D01*
G01X506050Y-178490D01*
X511500D01*
G02Y-188510I0J-5010D01*
G01X469000D01*
G02X463990Y-183450I0J5010D01*
G01Y-156490D01*
G02X464180Y-155130I5010J-7D01*
G03X462300Y-152590I-1925J541D01*
G01X459920D01*
X458960Y-151630D01*
X454270Y-146950D01*
X453980Y-146890D01*
G02X450340Y-140220I1021J4886D01*
G03X448510Y-137510I-1870J710D01*
G01X427840D01*
X427060Y-136730D01*
X423270Y-132950D01*
X422980Y-132890D01*
G02X428890Y-126980I1020J4890D01*
G01X428950Y-127270D01*
X430780Y-129110D01*
X431160Y-129490D01*
X502160D01*
X503300Y-130630D01*
G03X506340Y-130270I1368J1461D01*
G02X513230Y-128850I4159J-2752D01*
G01X513470Y-129010D01*
X519180D01*
X521720Y-131550D01*
X522520Y-130740D01*
X522590Y-130620D01*
G02X522940Y-130090I4328J-2478D01*
G02X523210Y-123740I3980J3012D01*
G02X525980Y-115610I3791J3245D01*
G01X526270Y-115550D01*
X527230Y-114600D01*
X528590Y-113240D01*
X528070Y-112010D01*
X521700D01*
X521200Y-112510D01*
X521140Y-112800D01*
G02X515230Y-106870I-4882J1045D01*
G01X515520Y-106810D01*
X515690Y-106640D01*
X517180Y-105160D01*
G02X517340Y-105000I2922J-2762D01*
G01X517350Y-104990D01*
X518190Y-104160D01*
X518360Y-103990D01*
X519700D01*
G02X520340I320J-4010D01*
G01X554040D01*
X554290Y-103820D01*
G02X554680Y-103590I2723J-4172D01*
G02X558910Y-112610I2332J-4408D01*
G02X551270Y-117670I-4909J-886D01*
G01X551020Y-117510D01*
X535660D01*
X535030Y-118140D01*
X531950Y-121230D01*
X531890Y-121520D01*
G02X531850Y-121680I-4860J1130D01*
G01Y-121690D01*
X531790Y-121940D01*
Y-123070D01*
X553740D01*
X561510Y-130840D01*
Y-200020D01*
X561670Y-200270D01*
G02X562420Y-202250I-4181J-2716D01*
G02X557540Y-207980I-4922J-751D01*
G02X554380Y-206890I-48J4987D01*
G03X553120I-630J-781D01*
G02X545160Y-201780I-3122J3892D01*
G01X545250Y-201420D01*
X544920Y-200750D01*
X544580Y-200610D01*
G02X542330Y-193280I1925J4601D01*
G01X542490Y-193030D01*
Y-142160D01*
X542340Y-142010D01*
X520840D01*
X520450Y-141620D01*
X518540Y-139720D01*
G03X515230Y-140500I-1414J-1413D01*
G37*
G54D29*
X410000Y-260000D03*
X450000D03*
X490000D03*
%LPD*%
G75*
G36*
G01X425970Y-128970D02*
Y-128000D01*
X423820Y-127820D01*
X424000Y-129970D01*
X424970D01*
G03X425970Y-128970I0J1000D01*
G37*
G36*
G01X456970Y-142970D02*
Y-142000D01*
X454820Y-141820D01*
X455000Y-143970D01*
X455970D01*
G03X456970Y-142970I0J1000D01*
G37*
G36*
G01X463240Y-144570D02*
X462680Y-144010D01*
X459950Y-141270D01*
X459890Y-140980D01*
G03X459660Y-140220I-4877J-1061D01*
G02X461490Y-137510I1870J710D01*
G01X474000D01*
G02X475950Y-139340I-44J-2000D01*
G03X476660Y-141530I4976J403D01*
G02X475000Y-144570I-1705J-1042D01*
G01X463240D01*
G37*
G36*
G01X474010Y-178490D02*
Y-156490D01*
G03X473820Y-155130I-5010J-7D01*
G02X475700Y-152590I1925J541D01*
G01X488110D01*
X488360Y-152750D01*
G03X493870Y-152720I2732J4172D01*
G02X496990Y-154330I1121J-1655D01*
G01Y-175030D01*
X496830Y-175280D01*
G03X496030Y-177570I4165J-2740D01*
G01X495950Y-178490D01*
X474010D01*
G37*
G36*
G01X483000Y-138210D02*
X482310Y-137540D01*
X480670Y-138920D01*
X482310Y-140300D01*
X483000Y-139630D01*
G03Y-138210I-710J710D01*
G37*
G36*
G01X489000Y-149290D02*
X489690Y-149960D01*
X491330Y-148580D01*
X489690Y-147200D01*
X489000Y-147870D01*
G03Y-149290I710J-710D01*
G37*
G36*
G01X500290Y-175920D02*
X499620Y-176610D01*
X501000Y-178250D01*
X502380Y-176610D01*
X501710Y-175920D01*
G03X500290I-710J-710D01*
G37*
G36*
G01X508420Y-139630D02*
X509110Y-140300D01*
X510750Y-138920D01*
X509110Y-137540D01*
X508420Y-138210D01*
G03Y-139630I710J-710D01*
G37*
G36*
G01X512580Y-132310D02*
X511890Y-131640D01*
X510250Y-133020D01*
X511890Y-134400D01*
X512580Y-133730D01*
G03Y-132310I-710J710D01*
G37*
G36*
G01X517230Y-109790D02*
X516260D01*
X516080Y-111940D01*
X518230Y-111760D01*
Y-110790D01*
G03X517230Y-109790I-1000J0D01*
G37*
G36*
G01X529030Y-132340D02*
X528340Y-131670D01*
X526700Y-133050D01*
X528340Y-134430D01*
X529030Y-133760D01*
G03Y-132340I-710J710D01*
G37*
G36*
G01X529000Y-126370D02*
X528310Y-125700D01*
X526670Y-127080D01*
X528310Y-128460D01*
X529000Y-127790D01*
G03Y-126370I-710J710D01*
G37*
G36*
G01X527970Y-118530D02*
X527000D01*
X526820Y-120680D01*
X528970Y-120500D01*
Y-119530D01*
G03X527970Y-118530I-1000J0D01*
G37*
G36*
G01X545790Y-193920D02*
X545120Y-194610D01*
X546500Y-196250D01*
X547880Y-194610D01*
X547210Y-193920D01*
G03X545790I-710J-710D01*
G37*
G36*
G01X550970Y-201030D02*
X550000D01*
X549820Y-203180D01*
X551970Y-203000D01*
Y-202030D01*
G03X550970Y-201030I-1000J0D01*
G37*
G36*
G01X551920Y-114210D02*
X552610Y-114880D01*
X554250Y-113500D01*
X552610Y-112120D01*
X551920Y-112790D01*
G03Y-114210I710J-710D01*
G37*
G36*
G01X554920Y-108710D02*
X555610Y-109380D01*
X557250Y-108000D01*
X555610Y-106620D01*
X554920Y-107290D01*
G03Y-108710I710J-710D01*
G37*
G36*
G01X556790Y-200920D02*
X556120Y-201610D01*
X557500Y-203250D01*
X558880Y-201610D01*
X558210Y-200920D01*
G03X556790I-710J-710D01*
G37*
G54D10*
X-380000Y-270000D03*
Y270000D03*
X-333780Y-40000D03*
Y180000D03*
X60000Y-110000D03*
Y40000D03*
Y190000D03*
X600000Y-270000D03*
Y270000D03*
G54D20*
X444000Y252380D03*
X499120Y228760D03*
Y276000D03*
G54D11*
X-370000Y120000D03*
Y140000D03*
Y160000D03*
Y180000D03*
Y200000D03*
Y220000D03*
X-350000Y-120000D03*
Y-100000D03*
Y-80000D03*
Y-60000D03*
Y-40000D03*
Y-20000D03*
Y0D03*
Y120000D03*
Y140000D03*
Y160000D03*
Y180000D03*
Y200000D03*
Y220000D03*
X-330000Y-120000D03*
Y-100000D03*
Y-80000D03*
Y-60000D03*
Y-20000D03*
Y0D03*
Y120000D03*
Y140000D03*
Y160000D03*
Y200000D03*
Y220000D03*
Y240000D03*
Y260000D03*
X-310000Y-120000D03*
Y-100000D03*
Y-80000D03*
Y-60000D03*
Y-40000D03*
Y-20000D03*
Y0D03*
Y120000D03*
Y140000D03*
Y160000D03*
Y180000D03*
Y200000D03*
Y220000D03*
Y240000D03*
Y260000D03*
X-290000Y-80000D03*
Y-60000D03*
Y-40000D03*
Y-20000D03*
Y0D03*
Y140000D03*
Y160000D03*
Y180000D03*
Y200000D03*
Y220000D03*
Y240000D03*
Y260000D03*
X-125000Y195000D03*
Y225000D03*
X-115000Y195000D03*
Y225000D03*
X-105000Y195000D03*
Y225000D03*
X-95000Y195000D03*
Y225000D03*
X-85000Y195000D03*
Y225000D03*
X-75000Y195000D03*
Y225000D03*
X-65000Y195000D03*
Y225000D03*
X-55000Y195000D03*
Y225000D03*
X160000Y10750D03*
Y29250D03*
Y170750D03*
Y189250D03*
X200000Y-95250D03*
Y-76750D03*
X453620Y-55000D03*
Y-45000D03*
Y-35000D03*
Y-25000D03*
Y-15000D03*
Y-5000D03*
Y5000D03*
Y15000D03*
Y35000D03*
Y45000D03*
Y55000D03*
Y65000D03*
Y75000D03*
Y85000D03*
Y95000D03*
Y105000D03*
Y125000D03*
Y135000D03*
Y145000D03*
Y155000D03*
Y165000D03*
Y175000D03*
Y185000D03*
Y195000D03*
X506380Y-55000D03*
Y-45000D03*
Y-35000D03*
Y-25000D03*
Y-15000D03*
Y-5000D03*
Y5000D03*
Y15000D03*
Y35000D03*
Y45000D03*
Y55000D03*
Y65000D03*
Y75000D03*
Y85000D03*
Y95000D03*
Y105000D03*
Y125000D03*
Y135000D03*
Y145000D03*
Y155000D03*
Y165000D03*
Y175000D03*
Y185000D03*
Y195000D03*
X530750Y5000D03*
Y95000D03*
Y185000D03*
X549250Y5000D03*
Y95000D03*
Y185000D03*
G54D21*
G01X411810Y-9760D02*
Y11810D01*
X425000Y25000D01*
X496380D01*
X506380Y15000D01*
G01Y95000D02*
X490500D01*
X470500Y115000D01*
X445000D01*
X437000Y107000D01*
Y69760D01*
X411810Y44570D01*
G54D12*
X-352000Y-250000D03*
X-332000D03*
X-312000D03*
X-292000D03*
X-290000Y-180000D03*
Y-100000D03*
Y40000D03*
Y120000D03*
X-272000Y-250000D03*
X-260000Y-170000D03*
Y-110000D03*
Y50000D03*
Y110000D03*
X-252000Y-250000D03*
X-220000Y-65000D03*
Y-15000D03*
Y155000D03*
Y205000D03*
X-200000Y-65000D03*
Y-15000D03*
Y155000D03*
Y205000D03*
X-110080Y-70000D03*
Y120000D03*
X-69920Y-70000D03*
Y120000D03*
X390000Y-260000D03*
X410000D03*
X430000D03*
X450000D03*
X470000D03*
X490000D03*
X592000Y212000D03*
Y232000D03*
G54D22*
G01X188190Y44570D02*
X411810D01*
G01X188190Y204570D02*
X411810D01*
G54D13*
X-250310Y-61750D03*
Y-40000D03*
Y-18250D03*
Y158250D03*
Y180000D03*
Y201750D03*
X-125040Y-159760D03*
Y-129840D03*
Y30240D03*
Y60160D03*
X-90000Y-60000D03*
Y130000D03*
X-54960Y-120000D03*
Y70000D03*
X188190Y-9760D03*
Y44570D03*
Y150240D03*
Y204570D03*
X411810Y-9760D03*
Y44570D03*
Y150240D03*
Y204570D03*
G54D23*
G01X200000Y-76750D02*
X169250Y-46000D01*
X44000D01*
X31850Y-58150D01*
Y-74370D01*
G01X200000Y-95250D02*
X110750D01*
X95630Y-110370D01*
Y-138150D01*
G01X160000Y10750D02*
Y-9760D01*
G01Y29250D02*
X172870D01*
X188190Y44570D01*
G01X160000Y170750D02*
Y150240D01*
G01Y189250D02*
X172870D01*
X188190Y204570D01*
G01X303460Y-61260D02*
Y-81790D01*
X290000Y-95250D01*
X200000D01*
G01Y-76750D02*
X221050D01*
X236540Y-61260D01*
G01X303460Y-218740D02*
Y-146540D01*
X340000Y-110000D01*
X390000D01*
G01X403460Y-61260D02*
Y-96540D01*
X390000Y-110000D01*
G01X592000Y212000D02*
X419240D01*
X411810Y204570D01*
G01X592000Y232000D02*
X514000D01*
X510760Y228760D01*
X499120D01*
G54D14*
X-220000Y5000D03*
Y35000D03*
Y225000D03*
Y255000D03*
X-210000Y5000D03*
Y35000D03*
Y225000D03*
Y255000D03*
X-200000Y5000D03*
Y35000D03*
Y225000D03*
Y255000D03*
X185000Y-175000D03*
Y-165000D03*
Y-155000D03*
Y-145000D03*
X200000Y-250000D03*
Y-210000D03*
X214000Y-250000D03*
Y-210000D03*
X215000Y-175000D03*
Y-165000D03*
Y-155000D03*
Y-145000D03*
X451870Y228760D03*
Y276000D03*
G54D24*
G01X-250310Y-61750D02*
Y-100310D01*
X-260000Y-110000D01*
G01X-250310Y158250D02*
Y119690D01*
X-260000Y110000D01*
G01X188190Y44570D02*
X128760Y104000D01*
X43440D01*
X31850Y92410D01*
Y75630D01*
G01X188190Y204570D02*
X139590Y253170D01*
X43170D01*
X31850Y241850D01*
Y225630D01*
G01X160000Y-9760D02*
X134020D01*
X112410Y11850D01*
X95630D01*
G01X160000Y150240D02*
X124020D01*
X112410Y161850D01*
X95630D01*
G01X188190Y-9760D02*
X160000D01*
G01X188190Y150240D02*
X160000D01*
G54D15*
X-203230Y-236000D03*
X-166610D03*
X-130000D03*
X-93390D03*
X-56770D03*
X12770D03*
X49390D03*
X86000D03*
X122610D03*
X159230D03*
X193700Y-31020D03*
Y91020D03*
Y128980D03*
Y251020D03*
X406300Y-31020D03*
Y91020D03*
Y128980D03*
Y251020D03*
G54D25*
G01X424000Y-128000D02*
X429500Y-133500D01*
X500500D01*
X505920Y-138920D01*
X510500D01*
G01X491080Y-148580D02*
X461580D01*
X455000Y-142000D01*
G01X501000Y-178000D02*
Y-141500D01*
X498420Y-138920D01*
X480920D01*
G01X497500Y-85000D02*
Y-80000D01*
X486000Y-68500D01*
Y-62000D01*
G01X502890Y-85000D02*
Y-78390D01*
X491000Y-66500D01*
Y-59500D01*
G01X495500Y-57000D02*
Y-65500D01*
X508500Y-78500D01*
Y-85000D01*
G01X516500D02*
Y-78500D01*
X500000Y-62000D01*
G01X510500Y-133020D02*
X517520D01*
X522500Y-138000D01*
X544000D01*
X546500Y-140500D01*
Y-196000D01*
G01X557000Y-108000D02*
X520020D01*
X516260Y-111760D01*
G01X526950Y-133050D02*
X548050D01*
X552500Y-137500D01*
Y-200500D01*
X550000Y-203000D01*
G01X526920Y-127080D02*
X552080D01*
X557500Y-132500D01*
Y-203000D01*
G01X554000Y-113500D02*
X534000D01*
X527000Y-120500D01*
G54D16*
X-138000Y-280000D03*
X-130000D03*
X-122000D03*
X244690Y-253310D03*
X337190Y-266690D03*
X424000Y-128000D03*
X438000Y-230000D03*
Y-218000D03*
Y-206000D03*
X448000Y-156500D03*
X455000Y-142000D03*
X460000Y-166000D03*
X466110Y-140890D03*
X469000Y-183500D03*
Y-156500D03*
X474000Y-230000D03*
Y-218000D03*
Y-206000D03*
X474500Y-112000D03*
X483200Y-166000D03*
X480920Y-138920D03*
X486000Y-62000D03*
X491080Y-148580D03*
X491000Y-59500D03*
X497500Y-85000D03*
X495500Y-57000D03*
X501000Y-178000D03*
X502890Y-85000D03*
X500000Y-62000D03*
X508500Y-85000D03*
X511500Y-183500D03*
X510500Y-138920D03*
Y-133020D03*
X516260Y-111760D03*
X516500Y-85000D03*
X523000D03*
X527500Y-271500D03*
X526950Y-133050D03*
X526920Y-127080D03*
X527000Y-120500D03*
X535830Y-149170D03*
X550000Y-203000D03*
X546500Y-196000D03*
X554000Y-113500D03*
X557500Y-203000D03*
X557000Y-108000D03*
X580500Y-151500D03*
G54D26*
G01X-184000Y225000D02*
Y146000D01*
X-210000Y120000D01*
Y35000D01*
G01Y255000D02*
Y244000D01*
X-208000Y242000D01*
X-188000D01*
X-184000Y238000D01*
Y225000D01*
G01X-125000D02*
X-184000D01*
G01X451870Y276000D02*
X-34000D01*
X-42000Y268000D01*
Y218000D01*
X-48000Y212000D01*
X-120000D01*
X-125000Y207000D01*
Y195000D01*
G01X-115000Y225000D02*
X-125000D01*
G01X-105000D02*
X-115000D01*
G01X-95000D02*
X-105000D01*
G01X-85000D02*
X-95000D01*
G01X-85000D02*
Y276500D01*
X-76500Y285000D01*
X456000D01*
X482500Y258500D01*
X572000D01*
X579000Y251500D01*
X603500D01*
X613500Y241500D01*
Y-233500D01*
X573000Y-274000D01*
G01X-75000Y225000D02*
X-65000D01*
G01X-55000Y195000D02*
X-41000D01*
X-32000Y204000D01*
Y262000D01*
X-24000Y270000D01*
X444000D01*
X456000Y258000D01*
Y232890D01*
X451870Y228760D01*
G01X185000Y-145000D02*
X179000D01*
X176000Y-148000D01*
Y-172000D01*
X179000Y-175000D01*
X185000D01*
G01X214000Y-210000D02*
X204000Y-220000D01*
X192000D01*
X185000Y-213000D01*
Y-175000D01*
G01Y-165000D02*
Y-155000D01*
G01Y-165000D02*
X191000D01*
X194000Y-168000D01*
Y-206000D01*
X198000Y-210000D01*
X200000D01*
G01X215000Y-175000D02*
X207000D01*
X204660Y-172660D01*
Y-157840D01*
X207500Y-155000D01*
X215000D01*
G01Y-175000D02*
X234500D01*
G01X390000Y-260000D02*
X343880D01*
X337190Y-266690D01*
G01X390000Y-110000D02*
Y-225140D01*
X405500Y-240640D01*
X500140D01*
X522500Y-263000D01*
X573500D01*
X605500Y-231000D01*
Y237500D01*
X599000Y244000D01*
X574500D01*
X568500Y250000D01*
X477870D01*
X451870Y276000D01*
G01X469000Y-156500D02*
Y-183500D01*
G01D02*
X511500D01*
G01X506380Y-55000D02*
X589000D01*
G01X506380Y35000D02*
X591000D01*
X592000Y34000D01*
G01D02*
Y118000D01*
X585000Y125000D01*
X506380D01*
G01X589000Y-73000D02*
X590000Y-74000D01*
G01X589000Y-55000D02*
X592000Y-52000D01*
Y34000D01*
G01X589000Y-55000D02*
Y-73000D01*
G54D17*
X31850Y-145630D03*
Y-74370D03*
Y4370D03*
Y75630D03*
Y154370D03*
Y225630D03*
X88150Y-74370D03*
Y75630D03*
Y225630D03*
G54D27*
G01X-250310Y-61750D02*
X-220000Y-65000D01*
G01X-250310Y-18250D02*
X-220000Y-15000D01*
G01X-250310Y158250D02*
X-220000Y155000D01*
G01X-250310Y201750D02*
X-220000Y205000D01*
G01X-250310Y-40000D02*
X-210000D01*
X-200000Y-50000D01*
Y-65000D01*
G01X-250310Y180000D02*
X-210000D01*
X-200000Y170000D01*
Y155000D01*
G01X-220000Y-15000D02*
Y5000D01*
G01Y205000D02*
Y225000D01*
G01X-200000Y-15000D02*
Y5000D01*
G01Y205000D02*
Y225000D01*
G01X390000Y-260000D02*
Y-270000D01*
X396000Y-276000D01*
X430000D01*
G01D02*
X466000D01*
X470000Y-272000D01*
Y-260000D01*
G01X430000D02*
Y-276000D01*
G01X506380Y-35000D02*
X557000D01*
X567000Y-45000D01*
X580000D01*
G01X506380Y-25000D02*
X567160D01*
X572160Y-30000D01*
X580000D01*
G01X506380Y-15000D02*
X580000D01*
G01X506380Y-5000D02*
X567160D01*
X572160Y0D01*
X580000D01*
G01X506380Y5000D02*
X530750D01*
G01X506380Y15000D02*
X539250D01*
X549250Y5000D01*
G01X506380Y55000D02*
X561000D01*
X571000Y45000D01*
X580000D01*
G01X506380Y65000D02*
X567160D01*
X572160Y60000D01*
X580000D01*
G01X506380Y75000D02*
X580000D01*
G01X506380Y85000D02*
X567160D01*
X572160Y90000D01*
X580000D01*
G01X506380Y95000D02*
X530750D01*
G01X506380Y105000D02*
X539250D01*
X549250Y95000D01*
G01X506380Y145000D02*
X559000D01*
X569000Y135000D01*
X580000D01*
G01X506380Y155000D02*
X567160D01*
X572160Y150000D01*
X580000D01*
G01X506380Y165000D02*
X580000D01*
G01X506380Y175000D02*
X567160D01*
X572160Y180000D01*
X580000D01*
G01X506380Y185000D02*
X530750D01*
G01X506380Y195000D02*
X539250D01*
X549250Y185000D01*
G54D18*
X95630Y-138150D03*
Y11850D03*
Y161850D03*
G54D28*
G01X-290000Y-180000D02*
X-260000Y-170000D01*
G01X-290000Y40000D02*
X-260000Y50000D01*
G01X-69920Y120000D02*
Y149920D01*
X-76000Y156000D01*
X-120000D01*
X-125000Y161000D01*
Y195000D01*
G54D19*
X236540Y-218740D03*
Y-61260D03*
X303460Y-218740D03*
Y-61260D03*
X336540Y-218740D03*
Y-61260D03*
X403460Y-218740D03*
Y-61260D03*
X527500Y-250000D03*
X542500D03*
X557500D03*
X572500D03*
X580000Y-45000D03*
Y-30000D03*
Y-15000D03*
Y0D03*
Y45000D03*
Y60000D03*
Y75000D03*
Y90000D03*
Y135000D03*
Y150000D03*
Y165000D03*
Y180000D03*
M02*
