G04 ================== begin FILE IDENTIFICATION RECORD ==================*
G04 Layout Name:  D:/winprj/orcad/美容护理/水床18/电源/pcb/pcb.brd*
G04 Film Name:    DRILL*
G04 File Format:  Gerber RS274X*
G04 File Origin:  Cadence Allegro 16.6-2015-S108*
G04 Origin Date:  Wed Oct 17 13:30:20 2018*
G04 *
G04 Layer:  MANUFACTURING/NCLEGEND-1-2*
G04 Layer:  MANUFACTURING/PHOTOPLOT_OUTLINE*
G04 Layer:  BOARD GEOMETRY/OUTLINE*
G04 *
G04 Offset:    (0.0 0.0)*
G04 Mirror:    No*
G04 Mode:      Positive*
G04 Rotation:  0*
G04 FullContactRelief:  No*
G04 UndefLineWidth:     6.0*
G04 ================== end FILE IDENTIFICATION RECORD ====================*
%FSLAX25Y25*MOIN*%
%IR0*IPPOS*OFA0.00000B0.00000*MIA0B0*SFA1.00000B1.00000*%
%AMMACRO17*
1,1,.006,-.0197,.1299*
20,1,.006,-.0197,.1299,.0197,.1299,0.0*
1,1,.006,.0197,.1299*
20,1,.006,.0197,.1299,.0197,-.1299,0.0*
1,1,.006,.0197,-.1299*
20,1,.006,.0197,-.1299,-.0197,-.1299,0.0*
1,1,.006,-.0197,-.1299*
20,1,.006,-.0197,-.1299,-.0197,.1299,0.0*
1,1,.006,-.0197,.1299*
1,1,.006,-.0065,-.0098*
20,1,.006,-.0065,-.0098,-.0065,.0099,0.0*
1,1,.006,-.0065,.0099*
20,1,.006,-.0065,.0099,.0014,.0099,0.0*
1,1,.006,.0014,.0099*
20,1,.006,.0014,.0099,.004,.0089,0.0*
1,1,.006,.004,.0089*
20,1,.006,.004,.0089,.006,.0066,0.0*
1,1,.006,.006,.0066*
20,1,.006,.006,.0066,.0066,.004,0.0*
1,1,.006,.0066,.004*
20,1,.006,.0066,.004,.006,.0014,0.0*
1,1,.006,.006,.0014*
20,1,.006,.006,.0014,.0043,-.0006,0.0*
1,1,.006,.0043,-.0006*
20,1,.006,.0043,-.0006,.0014,-.0016,0.0*
1,1,.006,.0014,-.0016*
20,1,.006,.0014,-.0016,-.0065,-.0016,0.0*
1,1,.006,-.0065,-.0016*
%
%ADD17MACRO17*%
%AMMACRO14*
1,1,.006,-.1299,.0197*
20,1,.006,-.1299,.0197,.1299,.0197,0.0*
1,1,.006,.1299,.0197*
20,1,.006,.1299,.0197,.1299,-.0197,0.0*
1,1,.006,.1299,-.0197*
20,1,.006,.1299,-.0197,-.1299,-.0197,0.0*
1,1,.006,-.1299,-.0197*
20,1,.006,-.1299,-.0197,-.1299,.0197,0.0*
1,1,.006,-.1299,.0197*
1,1,.006,-.0065,-.0098*
20,1,.006,-.0065,-.0098,-.0065,.0099,0.0*
1,1,.006,-.0065,.0099*
20,1,.006,-.0065,.0099,.0014,.0099,0.0*
1,1,.006,.0014,.0099*
20,1,.006,.0014,.0099,.004,.0089,0.0*
1,1,.006,.004,.0089*
20,1,.006,.004,.0089,.006,.0066,0.0*
1,1,.006,.006,.0066*
20,1,.006,.006,.0066,.0066,.004,0.0*
1,1,.006,.0066,.004*
20,1,.006,.0066,.004,.006,.0014,0.0*
1,1,.006,.006,.0014*
20,1,.006,.006,.0014,.0043,-.0006,0.0*
1,1,.006,.0043,-.0006*
20,1,.006,.0043,-.0006,.0014,-.0016,0.0*
1,1,.006,.0014,-.0016*
20,1,.006,.0014,-.0016,-.0065,-.0016,0.0*
1,1,.006,-.0065,-.0016*
%
%ADD14MACRO14*%
%AMMACRO16*
1,1,.006,.1299,.0197*
20,1,.006,.1299,.0197,.1299,-.0197,0.0*
1,1,.006,.1299,-.0197*
20,1,.006,.1299,-.0197,-.1299,-.0197,0.0*
1,1,.006,-.1299,-.0197*
20,1,.006,-.1299,-.0197,-.1299,.0197,0.0*
1,1,.006,-.1299,.0197*
20,1,.006,-.1299,.0197,.1299,.0197,0.0*
1,1,.006,.1299,.0197*
1,1,.006,-.0065,-.0098*
20,1,.006,-.0065,-.0098,-.0065,.0099,0.0*
1,1,.006,-.0065,.0099*
20,1,.006,-.0065,.0099,.0014,.0099,0.0*
1,1,.006,.0014,.0099*
20,1,.006,.0014,.0099,.004,.0089,0.0*
1,1,.006,.004,.0089*
20,1,.006,.004,.0089,.006,.0066,0.0*
1,1,.006,.006,.0066*
20,1,.006,.006,.0066,.0066,.004,0.0*
1,1,.006,.0066,.004*
20,1,.006,.0066,.004,.006,.0014,0.0*
1,1,.006,.006,.0014*
20,1,.006,.006,.0014,.0043,-.0006,0.0*
1,1,.006,.0043,-.0006*
20,1,.006,.0043,-.0006,.0014,-.0016,0.0*
1,1,.006,.0014,-.0016*
20,1,.006,.0014,-.0016,-.0065,-.0016,0.0*
1,1,.006,-.0065,-.0016*
%
%ADD16MACRO16*%
%AMMACRO15*
1,1,.006,.0197,.1299*
20,1,.006,.0197,.1299,.0197,-.1299,0.0*
1,1,.006,.0197,-.1299*
20,1,.006,.0197,-.1299,-.0197,-.1299,0.0*
1,1,.006,-.0197,-.1299*
20,1,.006,-.0197,-.1299,-.0197,.1299,0.0*
1,1,.006,-.0197,.1299*
20,1,.006,-.0197,.1299,.0197,.1299,0.0*
1,1,.006,.0197,.1299*
1,1,.006,-.0065,-.0098*
20,1,.006,-.0065,-.0098,-.0065,.0099,0.0*
1,1,.006,-.0065,.0099*
20,1,.006,-.0065,.0099,.0014,.0099,0.0*
1,1,.006,.0014,.0099*
20,1,.006,.0014,.0099,.004,.0089,0.0*
1,1,.006,.004,.0089*
20,1,.006,.004,.0089,.006,.0066,0.0*
1,1,.006,.006,.0066*
20,1,.006,.006,.0066,.0066,.004,0.0*
1,1,.006,.0066,.004*
20,1,.006,.0066,.004,.006,.0014,0.0*
1,1,.006,.006,.0014*
20,1,.006,.006,.0014,.0043,-.0006,0.0*
1,1,.006,.0043,-.0006*
20,1,.006,.0043,-.0006,.0014,-.0016,0.0*
1,1,.006,.0014,-.0016*
20,1,.006,.0014,-.0016,-.0065,-.0016,0.0*
1,1,.006,-.0065,-.0016*
%
%ADD15MACRO15*%
%AMMACRO13*
1,1,.006,.0197,0.0*
20,1,.006,.0197,0.0,.019401,-.003421,0.0*
1,1,.006,.019401,-.003421*
20,1,.006,.019401,-.003421,.018512,-.006738,0.0*
1,1,.006,.018512,-.006738*
20,1,.006,.018512,-.006738,.017061,-.00985,0.0*
1,1,.006,.017061,-.00985*
20,1,.006,.017061,-.00985,.015091,-.012663,0.0*
1,1,.006,.015091,-.012663*
20,1,.006,.015091,-.012663,.012663,-.015091,0.0*
1,1,.006,.012663,-.015091*
20,1,.006,.012663,-.015091,.00985,-.017061,0.0*
1,1,.006,.00985,-.017061*
20,1,.006,.00985,-.017061,.006738,-.018512,0.0*
1,1,.006,.006738,-.018512*
20,1,.006,.006738,-.018512,.003421,-.019401,0.0*
1,1,.006,.003421,-.019401*
20,1,.006,.003421,-.019401,0.0,-.0197,0.0*
1,1,.006,0.0,-.0197*
20,1,.006,0.0,-.0197,-.003421,-.019401,0.0*
1,1,.006,-.003421,-.019401*
20,1,.006,-.003421,-.019401,-.006738,-.018512,0.0*
1,1,.006,-.006738,-.018512*
20,1,.006,-.006738,-.018512,-.00985,-.017061,0.0*
1,1,.006,-.00985,-.017061*
20,1,.006,-.00985,-.017061,-.012663,-.015091,0.0*
1,1,.006,-.012663,-.015091*
20,1,.006,-.012663,-.015091,-.015091,-.012663,0.0*
1,1,.006,-.015091,-.012663*
20,1,.006,-.015091,-.012663,-.017061,-.00985,0.0*
1,1,.006,-.017061,-.00985*
20,1,.006,-.017061,-.00985,-.018512,-.006738,0.0*
1,1,.006,-.018512,-.006738*
20,1,.006,-.018512,-.006738,-.019401,-.003421,0.0*
1,1,.006,-.019401,-.003421*
20,1,.006,-.019401,-.003421,-.0197,0.0,0.0*
1,1,.006,-.0197,0.0*
20,1,.006,-.0197,0.0,-.019401,.003421,0.0*
1,1,.006,-.019401,.003421*
20,1,.006,-.019401,.003421,-.018512,.006738,0.0*
1,1,.006,-.018512,.006738*
20,1,.006,-.018512,.006738,-.017061,.00985,0.0*
1,1,.006,-.017061,.00985*
20,1,.006,-.017061,.00985,-.015091,.012663,0.0*
1,1,.006,-.015091,.012663*
20,1,.006,-.015091,.012663,-.012663,.015091,0.0*
1,1,.006,-.012663,.015091*
20,1,.006,-.012663,.015091,-.00985,.017061,0.0*
1,1,.006,-.00985,.017061*
20,1,.006,-.00985,.017061,-.006738,.018512,0.0*
1,1,.006,-.006738,.018512*
20,1,.006,-.006738,.018512,-.003421,.019401,0.0*
1,1,.006,-.003421,.019401*
20,1,.006,-.003421,.019401,0.0,.0197,0.0*
1,1,.006,0.0,.0197*
20,1,.006,0.0,.0197,.003421,.019401,0.0*
1,1,.006,.003421,.019401*
20,1,.006,.003421,.019401,.006738,.018512,0.0*
1,1,.006,.006738,.018512*
20,1,.006,.006738,.018512,.00985,.017061,0.0*
1,1,.006,.00985,.017061*
20,1,.006,.00985,.017061,.012663,.015091,0.0*
1,1,.006,.012663,.015091*
20,1,.006,.012663,.015091,.015091,.012663,0.0*
1,1,.006,.015091,.012663*
20,1,.006,.015091,.012663,.017061,.00985,0.0*
1,1,.006,.017061,.00985*
20,1,.006,.017061,.00985,.018512,.006738,0.0*
1,1,.006,.018512,.006738*
20,1,.006,.018512,.006738,.019401,.003421,0.0*
1,1,.006,.019401,.003421*
20,1,.006,.019401,.003421,.0197,0.0,0.0*
1,1,.006,.0197,0.0*
1,1,.006,.00985,0.0*
20,1,.006,.00985,0.0,-.00985,0.0,0.0*
1,1,.006,-.00985,0.0*
1,1,.006,0.0,.00985*
20,1,.006,0.0,.00985,0.0,-.00985,0.0*
1,1,.006,0.0,-.00985*
%
%ADD13MACRO13*%
%AMMACRO11*
1,1,.006,.00985,0.0*
20,1,.006,.00985,0.0,.0097,-.00171,0.0*
1,1,.006,.0097,-.00171*
20,1,.006,.0097,-.00171,.009256,-.003369,0.0*
1,1,.006,.009256,-.003369*
20,1,.006,.009256,-.003369,.00853,-.004925,0.0*
1,1,.006,.00853,-.004925*
20,1,.006,.00853,-.004925,.007546,-.006331,0.0*
1,1,.006,.007546,-.006331*
20,1,.006,.007546,-.006331,.006331,-.007546,0.0*
1,1,.006,.006331,-.007546*
20,1,.006,.006331,-.007546,.004925,-.00853,0.0*
1,1,.006,.004925,-.00853*
20,1,.006,.004925,-.00853,.003369,-.009256,0.0*
1,1,.006,.003369,-.009256*
20,1,.006,.003369,-.009256,.00171,-.0097,0.0*
1,1,.006,.00171,-.0097*
20,1,.006,.00171,-.0097,0.0,-.00985,0.0*
1,1,.006,0.0,-.00985*
20,1,.006,0.0,-.00985,-.00171,-.0097,0.0*
1,1,.006,-.00171,-.0097*
20,1,.006,-.00171,-.0097,-.003369,-.009256,0.0*
1,1,.006,-.003369,-.009256*
20,1,.006,-.003369,-.009256,-.004925,-.00853,0.0*
1,1,.006,-.004925,-.00853*
20,1,.006,-.004925,-.00853,-.006331,-.007546,0.0*
1,1,.006,-.006331,-.007546*
20,1,.006,-.006331,-.007546,-.007546,-.006331,0.0*
1,1,.006,-.007546,-.006331*
20,1,.006,-.007546,-.006331,-.00853,-.004925,0.0*
1,1,.006,-.00853,-.004925*
20,1,.006,-.00853,-.004925,-.009256,-.003369,0.0*
1,1,.006,-.009256,-.003369*
20,1,.006,-.009256,-.003369,-.0097,-.00171,0.0*
1,1,.006,-.0097,-.00171*
20,1,.006,-.0097,-.00171,-.00985,0.0,0.0*
1,1,.006,-.00985,0.0*
20,1,.006,-.00985,0.0,-.0097,.00171,0.0*
1,1,.006,-.0097,.00171*
20,1,.006,-.0097,.00171,-.009256,.003369,0.0*
1,1,.006,-.009256,.003369*
20,1,.006,-.009256,.003369,-.00853,.004925,0.0*
1,1,.006,-.00853,.004925*
20,1,.006,-.00853,.004925,-.007546,.006331,0.0*
1,1,.006,-.007546,.006331*
20,1,.006,-.007546,.006331,-.006331,.007546,0.0*
1,1,.006,-.006331,.007546*
20,1,.006,-.006331,.007546,-.004925,.00853,0.0*
1,1,.006,-.004925,.00853*
20,1,.006,-.004925,.00853,-.003369,.009256,0.0*
1,1,.006,-.003369,.009256*
20,1,.006,-.003369,.009256,-.00171,.0097,0.0*
1,1,.006,-.00171,.0097*
20,1,.006,-.00171,.0097,0.0,.00985,0.0*
1,1,.006,0.0,.00985*
20,1,.006,0.0,.00985,.00171,.0097,0.0*
1,1,.006,.00171,.0097*
20,1,.006,.00171,.0097,.003369,.009256,0.0*
1,1,.006,.003369,.009256*
20,1,.006,.003369,.009256,.004925,.00853,0.0*
1,1,.006,.004925,.00853*
20,1,.006,.004925,.00853,.006331,.007546,0.0*
1,1,.006,.006331,.007546*
20,1,.006,.006331,.007546,.007546,.006331,0.0*
1,1,.006,.007546,.006331*
20,1,.006,.007546,.006331,.00853,.004925,0.0*
1,1,.006,.00853,.004925*
20,1,.006,.00853,.004925,.009256,.003369,0.0*
1,1,.006,.009256,.003369*
20,1,.006,.009256,.003369,.0097,.00171,0.0*
1,1,.006,.0097,.00171*
20,1,.006,.0097,.00171,.00985,0.0,0.0*
1,1,.006,.00985,0.0*
1,1,.006,.004925,0.0*
20,1,.006,.004925,0.0,-.004925,0.0,0.0*
1,1,.006,-.004925,0.0*
1,1,.006,0.0,.004925*
20,1,.006,0.0,.004925,0.0,-.004925,0.0*
1,1,.006,0.0,-.004925*
%
%ADD11MACRO11*%
%AMMACRO10*
1,1,.006,.0197,0.0*
20,1,.006,.0197,0.0,.019401,-.003421,0.0*
1,1,.006,.019401,-.003421*
20,1,.006,.019401,-.003421,.018512,-.006738,0.0*
1,1,.006,.018512,-.006738*
20,1,.006,.018512,-.006738,.017061,-.00985,0.0*
1,1,.006,.017061,-.00985*
20,1,.006,.017061,-.00985,.015091,-.012663,0.0*
1,1,.006,.015091,-.012663*
20,1,.006,.015091,-.012663,.012663,-.015091,0.0*
1,1,.006,.012663,-.015091*
20,1,.006,.012663,-.015091,.00985,-.017061,0.0*
1,1,.006,.00985,-.017061*
20,1,.006,.00985,-.017061,.006738,-.018512,0.0*
1,1,.006,.006738,-.018512*
20,1,.006,.006738,-.018512,.003421,-.019401,0.0*
1,1,.006,.003421,-.019401*
20,1,.006,.003421,-.019401,0.0,-.0197,0.0*
1,1,.006,0.0,-.0197*
20,1,.006,0.0,-.0197,-.003421,-.019401,0.0*
1,1,.006,-.003421,-.019401*
20,1,.006,-.003421,-.019401,-.006738,-.018512,0.0*
1,1,.006,-.006738,-.018512*
20,1,.006,-.006738,-.018512,-.00985,-.017061,0.0*
1,1,.006,-.00985,-.017061*
20,1,.006,-.00985,-.017061,-.012663,-.015091,0.0*
1,1,.006,-.012663,-.015091*
20,1,.006,-.012663,-.015091,-.015091,-.012663,0.0*
1,1,.006,-.015091,-.012663*
20,1,.006,-.015091,-.012663,-.017061,-.00985,0.0*
1,1,.006,-.017061,-.00985*
20,1,.006,-.017061,-.00985,-.018512,-.006738,0.0*
1,1,.006,-.018512,-.006738*
20,1,.006,-.018512,-.006738,-.019401,-.003421,0.0*
1,1,.006,-.019401,-.003421*
20,1,.006,-.019401,-.003421,-.0197,0.0,0.0*
1,1,.006,-.0197,0.0*
20,1,.006,-.0197,0.0,-.019401,.003421,0.0*
1,1,.006,-.019401,.003421*
20,1,.006,-.019401,.003421,-.018512,.006738,0.0*
1,1,.006,-.018512,.006738*
20,1,.006,-.018512,.006738,-.017061,.00985,0.0*
1,1,.006,-.017061,.00985*
20,1,.006,-.017061,.00985,-.015091,.012663,0.0*
1,1,.006,-.015091,.012663*
20,1,.006,-.015091,.012663,-.012663,.015091,0.0*
1,1,.006,-.012663,.015091*
20,1,.006,-.012663,.015091,-.00985,.017061,0.0*
1,1,.006,-.00985,.017061*
20,1,.006,-.00985,.017061,-.006738,.018512,0.0*
1,1,.006,-.006738,.018512*
20,1,.006,-.006738,.018512,-.003421,.019401,0.0*
1,1,.006,-.003421,.019401*
20,1,.006,-.003421,.019401,0.0,.0197,0.0*
1,1,.006,0.0,.0197*
20,1,.006,0.0,.0197,.003421,.019401,0.0*
1,1,.006,.003421,.019401*
20,1,.006,.003421,.019401,.006738,.018512,0.0*
1,1,.006,.006738,.018512*
20,1,.006,.006738,.018512,.00985,.017061,0.0*
1,1,.006,.00985,.017061*
20,1,.006,.00985,.017061,.012663,.015091,0.0*
1,1,.006,.012663,.015091*
20,1,.006,.012663,.015091,.015091,.012663,0.0*
1,1,.006,.015091,.012663*
20,1,.006,.015091,.012663,.017061,.00985,0.0*
1,1,.006,.017061,.00985*
20,1,.006,.017061,.00985,.018512,.006738,0.0*
1,1,.006,.018512,.006738*
20,1,.006,.018512,.006738,.019401,.003421,0.0*
1,1,.006,.019401,.003421*
20,1,.006,.019401,.003421,.0197,0.0,0.0*
1,1,.006,.0197,0.0*
1,1,.006,-.0068,-.0098*
20,1,.006,-.0068,-.0098,-.0068,.0099,0.0*
1,1,.006,-.0068,.0099*
1,1,.006,.0069,.0099*
20,1,.006,.0069,.0099,.0069,-.0098,0.0*
1,1,.006,.0069,-.0098*
1,1,.006,.0069,0.0*
20,1,.006,.0069,0.0,-.0068,0.0,0.0*
1,1,.006,-.0068,0.0*
%
%ADD10MACRO10*%
%AMMACRO12*
1,1,.006,.0197,0.0*
20,1,.006,.0197,0.0,.019401,-.003421,0.0*
1,1,.006,.019401,-.003421*
20,1,.006,.019401,-.003421,.018512,-.006738,0.0*
1,1,.006,.018512,-.006738*
20,1,.006,.018512,-.006738,.017061,-.00985,0.0*
1,1,.006,.017061,-.00985*
20,1,.006,.017061,-.00985,.015091,-.012663,0.0*
1,1,.006,.015091,-.012663*
20,1,.006,.015091,-.012663,.012663,-.015091,0.0*
1,1,.006,.012663,-.015091*
20,1,.006,.012663,-.015091,.00985,-.017061,0.0*
1,1,.006,.00985,-.017061*
20,1,.006,.00985,-.017061,.006738,-.018512,0.0*
1,1,.006,.006738,-.018512*
20,1,.006,.006738,-.018512,.003421,-.019401,0.0*
1,1,.006,.003421,-.019401*
20,1,.006,.003421,-.019401,0.0,-.0197,0.0*
1,1,.006,0.0,-.0197*
20,1,.006,0.0,-.0197,-.003421,-.019401,0.0*
1,1,.006,-.003421,-.019401*
20,1,.006,-.003421,-.019401,-.006738,-.018512,0.0*
1,1,.006,-.006738,-.018512*
20,1,.006,-.006738,-.018512,-.00985,-.017061,0.0*
1,1,.006,-.00985,-.017061*
20,1,.006,-.00985,-.017061,-.012663,-.015091,0.0*
1,1,.006,-.012663,-.015091*
20,1,.006,-.012663,-.015091,-.015091,-.012663,0.0*
1,1,.006,-.015091,-.012663*
20,1,.006,-.015091,-.012663,-.017061,-.00985,0.0*
1,1,.006,-.017061,-.00985*
20,1,.006,-.017061,-.00985,-.018512,-.006738,0.0*
1,1,.006,-.018512,-.006738*
20,1,.006,-.018512,-.006738,-.019401,-.003421,0.0*
1,1,.006,-.019401,-.003421*
20,1,.006,-.019401,-.003421,-.0197,0.0,0.0*
1,1,.006,-.0197,0.0*
20,1,.006,-.0197,0.0,-.019401,.003421,0.0*
1,1,.006,-.019401,.003421*
20,1,.006,-.019401,.003421,-.018512,.006738,0.0*
1,1,.006,-.018512,.006738*
20,1,.006,-.018512,.006738,-.017061,.00985,0.0*
1,1,.006,-.017061,.00985*
20,1,.006,-.017061,.00985,-.015091,.012663,0.0*
1,1,.006,-.015091,.012663*
20,1,.006,-.015091,.012663,-.012663,.015091,0.0*
1,1,.006,-.012663,.015091*
20,1,.006,-.012663,.015091,-.00985,.017061,0.0*
1,1,.006,-.00985,.017061*
20,1,.006,-.00985,.017061,-.006738,.018512,0.0*
1,1,.006,-.006738,.018512*
20,1,.006,-.006738,.018512,-.003421,.019401,0.0*
1,1,.006,-.003421,.019401*
20,1,.006,-.003421,.019401,0.0,.0197,0.0*
1,1,.006,0.0,.0197*
20,1,.006,0.0,.0197,.003421,.019401,0.0*
1,1,.006,.003421,.019401*
20,1,.006,.003421,.019401,.006738,.018512,0.0*
1,1,.006,.006738,.018512*
20,1,.006,.006738,.018512,.00985,.017061,0.0*
1,1,.006,.00985,.017061*
20,1,.006,.00985,.017061,.012663,.015091,0.0*
1,1,.006,.012663,.015091*
20,1,.006,.012663,.015091,.015091,.012663,0.0*
1,1,.006,.015091,.012663*
20,1,.006,.015091,.012663,.017061,.00985,0.0*
1,1,.006,.017061,.00985*
20,1,.006,.017061,.00985,.018512,.006738,0.0*
1,1,.006,.018512,.006738*
20,1,.006,.018512,.006738,.019401,.003421,0.0*
1,1,.006,.019401,.003421*
20,1,.006,.019401,.003421,.0197,0.0,0.0*
1,1,.006,.0197,0.0*
1,1,.006,-.0065,-.0098*
20,1,.006,-.0065,-.0098,-.0065,.0099,0.0*
1,1,.006,-.0065,.0099*
20,1,.006,-.0065,.0099,.0014,.0099,0.0*
1,1,.006,.0014,.0099*
20,1,.006,.0014,.0099,.004,.0089,0.0*
1,1,.006,.004,.0089*
20,1,.006,.004,.0089,.006,.0066,0.0*
1,1,.006,.006,.0066*
20,1,.006,.006,.0066,.0066,.004,0.0*
1,1,.006,.0066,.004*
20,1,.006,.0066,.004,.006,.0014,0.0*
1,1,.006,.006,.0014*
20,1,.006,.006,.0014,.0043,-.0006,0.0*
1,1,.006,.0043,-.0006*
20,1,.006,.0043,-.0006,.0014,-.0016,0.0*
1,1,.006,.0014,-.0016*
20,1,.006,.0014,-.0016,-.0065,-.0016,0.0*
1,1,.006,-.0065,-.0016*
%
%ADD12MACRO12*%
%ADD18C,.012*%
%ADD19C,.006*%
G75*
%LPD*%
G75*
G54D10*
X-380000Y-270000D03*
Y270000D03*
X-333780Y-40000D03*
Y180000D03*
X60000Y-110000D03*
Y40000D03*
Y190000D03*
X193700Y-31020D03*
Y91020D03*
Y128980D03*
Y251020D03*
X406300Y-31020D03*
Y91020D03*
Y128980D03*
Y251020D03*
X600000Y-270000D03*
Y270000D03*
X720450Y-177750D03*
Y-138780D03*
G54D11*
X-370000Y120000D03*
Y140000D03*
Y160000D03*
Y180000D03*
Y200000D03*
Y220000D03*
X-350000Y-120000D03*
Y-100000D03*
Y-80000D03*
Y-60000D03*
Y-40000D03*
Y-20000D03*
Y0D03*
Y120000D03*
Y140000D03*
Y160000D03*
Y180000D03*
Y200000D03*
Y220000D03*
X-330000Y-120000D03*
Y-100000D03*
Y-80000D03*
Y-60000D03*
Y-20000D03*
Y0D03*
Y120000D03*
Y140000D03*
Y160000D03*
Y200000D03*
Y220000D03*
Y240000D03*
Y260000D03*
X-310000Y-120000D03*
Y-100000D03*
Y-80000D03*
Y-60000D03*
Y-40000D03*
Y-20000D03*
Y0D03*
Y120000D03*
Y140000D03*
Y160000D03*
Y180000D03*
Y200000D03*
Y220000D03*
Y240000D03*
Y260000D03*
X-290000Y-80000D03*
Y-60000D03*
Y-40000D03*
Y-20000D03*
Y0D03*
Y140000D03*
Y160000D03*
Y180000D03*
Y200000D03*
Y220000D03*
Y240000D03*
Y260000D03*
X720450Y-60840D03*
G54D12*
X-352000Y-250000D03*
X-332000D03*
X-312000D03*
X-292000D03*
X-290000Y-180000D03*
Y-100000D03*
Y40000D03*
Y120000D03*
X-272000Y-250000D03*
X-260000Y-170000D03*
Y-110000D03*
Y50000D03*
Y110000D03*
X-252000Y-250000D03*
X-250310Y-61750D03*
Y-40000D03*
Y-18250D03*
Y158250D03*
Y180000D03*
Y201750D03*
X-220000Y-65000D03*
Y-15000D03*
Y5000D03*
Y35000D03*
Y155000D03*
Y205000D03*
Y225000D03*
Y255000D03*
X-210000Y5000D03*
Y35000D03*
Y225000D03*
Y255000D03*
X-203230Y-236000D03*
X-200000Y-65000D03*
Y-15000D03*
Y5000D03*
Y35000D03*
Y155000D03*
Y205000D03*
Y225000D03*
Y255000D03*
X-166610Y-236000D03*
X-130000D03*
X-125040Y-159760D03*
Y-129840D03*
Y30240D03*
Y60160D03*
X-125000Y195000D03*
Y225000D03*
X-115000Y195000D03*
Y225000D03*
X-110080Y-70000D03*
Y120000D03*
X-105000Y195000D03*
Y225000D03*
X-93390Y-236000D03*
X-90000Y-60000D03*
Y130000D03*
X-95000Y195000D03*
Y225000D03*
X-85000Y195000D03*
Y225000D03*
X-75000Y195000D03*
Y225000D03*
X-69920Y-70000D03*
Y120000D03*
X-56770Y-236000D03*
X-65000Y195000D03*
Y225000D03*
X-54960Y-120000D03*
Y70000D03*
X-55000Y195000D03*
Y225000D03*
X12770Y-236000D03*
X49390D03*
X86000D03*
X122610D03*
X159230D03*
X160000Y10750D03*
Y29250D03*
Y170750D03*
Y189250D03*
X185000Y-175000D03*
Y-165000D03*
Y-155000D03*
Y-145000D03*
X188190Y-9760D03*
Y44570D03*
Y150240D03*
Y204570D03*
X200000Y-250000D03*
Y-210000D03*
Y-95250D03*
Y-76750D03*
X214000Y-250000D03*
Y-210000D03*
X215000Y-175000D03*
Y-165000D03*
Y-155000D03*
Y-145000D03*
X236540Y-218740D03*
Y-61260D03*
X303460Y-218740D03*
Y-61260D03*
X336540Y-218740D03*
Y-61260D03*
X390000Y-260000D03*
X403460Y-218740D03*
Y-61260D03*
X410000Y-260000D03*
X411810Y-9760D03*
Y44570D03*
Y150240D03*
Y204570D03*
X430000Y-260000D03*
X444000Y252380D03*
X450000Y-260000D03*
X451870Y228760D03*
Y276000D03*
X453620Y-55000D03*
Y-45000D03*
Y-35000D03*
Y-25000D03*
Y-15000D03*
Y-5000D03*
Y5000D03*
Y15000D03*
Y35000D03*
Y45000D03*
Y55000D03*
Y65000D03*
Y75000D03*
Y85000D03*
Y95000D03*
Y105000D03*
Y125000D03*
Y135000D03*
Y145000D03*
Y155000D03*
Y165000D03*
Y175000D03*
Y185000D03*
Y195000D03*
X470000Y-260000D03*
X490000D03*
X499120Y228760D03*
Y276000D03*
X506380Y-55000D03*
Y-45000D03*
Y-35000D03*
Y-25000D03*
Y-15000D03*
Y-5000D03*
Y5000D03*
Y15000D03*
Y35000D03*
Y45000D03*
Y55000D03*
Y65000D03*
Y75000D03*
Y85000D03*
Y95000D03*
Y105000D03*
Y125000D03*
Y135000D03*
Y145000D03*
Y155000D03*
Y165000D03*
Y175000D03*
Y185000D03*
Y195000D03*
X527500Y-250000D03*
X530750Y5000D03*
Y95000D03*
Y185000D03*
X542500Y-250000D03*
X549250Y5000D03*
Y95000D03*
Y185000D03*
X557500Y-250000D03*
X572500D03*
X580000Y-45000D03*
Y-30000D03*
Y-15000D03*
Y0D03*
Y45000D03*
Y60000D03*
Y75000D03*
Y90000D03*
Y135000D03*
Y150000D03*
Y165000D03*
Y180000D03*
X592000Y212000D03*
Y232000D03*
X720450Y-21870D03*
Y17100D03*
Y56070D03*
Y95040D03*
Y134020D03*
G54D13*
X-138000Y-280000D03*
X-130000D03*
X-122000D03*
X244690Y-253310D03*
X337190Y-266690D03*
X424000Y-128000D03*
X438000Y-230000D03*
Y-218000D03*
Y-206000D03*
X448000Y-156500D03*
X455000Y-142000D03*
X460000Y-166000D03*
X466110Y-140890D03*
X469000Y-183500D03*
Y-156500D03*
X474000Y-230000D03*
Y-218000D03*
Y-206000D03*
X474500Y-112000D03*
X483200Y-166000D03*
X480920Y-138920D03*
X486000Y-62000D03*
X491080Y-148580D03*
X491000Y-59500D03*
X497500Y-85000D03*
X495500Y-57000D03*
X501000Y-178000D03*
X502890Y-85000D03*
X500000Y-62000D03*
X508500Y-85000D03*
X511500Y-183500D03*
X510500Y-138920D03*
Y-133020D03*
X516260Y-111760D03*
X516500Y-85000D03*
X523000D03*
X527500Y-271500D03*
X526950Y-133050D03*
X526920Y-127080D03*
X527000Y-120500D03*
X535830Y-149170D03*
X550000Y-203000D03*
X546500Y-196000D03*
X554000Y-113500D03*
X557500Y-203000D03*
X557000Y-108000D03*
X580500Y-151500D03*
X720450Y-99810D03*
G54D14*
X31850Y-145630D03*
Y-74370D03*
Y4370D03*
Y75630D03*
Y154370D03*
Y225630D03*
X88150Y-74370D03*
Y75630D03*
Y225630D03*
G54D15*
X95630Y-138150D03*
Y11850D03*
Y161850D03*
G54D16*
X720450Y-255690D03*
G54D17*
Y-216720D03*
G54D18*
G01X686500Y159750D02*
Y172250D01*
X692400D01*
G01X690220Y166210D02*
X686500D01*
G01X699990Y172250D02*
X703710D01*
G01X701850D02*
Y159750D01*
G01X699990D02*
X703710D01*
G01X715180Y166000D02*
X718280D01*
Y162250D01*
X717350Y161000D01*
X716260Y160170D01*
X714720Y159750D01*
X713170Y160170D01*
X712080Y161000D01*
X711150Y162250D01*
X710530Y163710D01*
X710220Y165370D01*
Y166830D01*
X710530Y168080D01*
X711150Y169540D01*
X712080Y170790D01*
X713010Y171620D01*
X714250Y172250D01*
X715330D01*
X716570Y171830D01*
X717510Y171000D01*
G01X723240Y172250D02*
Y163290D01*
X723860Y161420D01*
X725100Y160170D01*
X726650Y159750D01*
X728200Y160170D01*
X729440Y161420D01*
X730060Y163290D01*
Y172250D01*
G01X735950Y159750D02*
Y172250D01*
X739820D01*
X741060Y171620D01*
X741840Y170790D01*
X742150Y169120D01*
X741840Y167460D01*
X740910Y166420D01*
X739820Y165790D01*
X735950D01*
G01X739820D02*
X742150Y159750D01*
G01X754550D02*
X748350D01*
Y172250D01*
X754550D01*
G01X752070Y166210D02*
X748350D01*
G01X758890Y209750D02*
Y222250D01*
X761990D01*
X763230Y221620D01*
X764160Y220790D01*
X764940Y219540D01*
X765560Y218080D01*
X765710Y216000D01*
X765560Y213920D01*
X764940Y212460D01*
X764160Y211210D01*
X763230Y210370D01*
X761990Y209750D01*
X758890D01*
G01X771600D02*
Y222250D01*
X775470D01*
X776710Y221620D01*
X777490Y220790D01*
X777800Y219120D01*
X777490Y217460D01*
X776560Y216420D01*
X775470Y215790D01*
X771600D01*
G01X775470D02*
X777800Y209750D01*
G01X785240Y222250D02*
X788960D01*
G01X787100D02*
Y209750D01*
G01X785240D02*
X788960D01*
G01X796400Y222250D02*
Y209750D01*
X802600D01*
G01X808800Y222250D02*
Y209750D01*
X815000D01*
G01X840110Y221210D02*
X839180Y221830D01*
X838100Y222250D01*
X836860D01*
X835460Y221620D01*
X834380Y220580D01*
X833600Y219330D01*
X832980Y217250D01*
X832820Y215370D01*
X833140Y213500D01*
X833600Y212250D01*
X834530Y211000D01*
X835620Y210170D01*
X836700Y209750D01*
X837780D01*
X838870Y210170D01*
X839800Y210790D01*
X840580Y211620D01*
G01X845840Y209750D02*
Y222250D01*
G01X852360D02*
Y209750D01*
G01Y216000D02*
X845840D01*
G01X857620Y209750D02*
X861500Y222250D01*
X865380Y209750D01*
G01X863980Y214120D02*
X859020D01*
G01X870800Y209750D02*
Y222250D01*
X874670D01*
X875910Y221620D01*
X876690Y220790D01*
X877000Y219120D01*
X876690Y217460D01*
X875760Y216420D01*
X874670Y215790D01*
X870800D01*
G01X874670D02*
X877000Y209750D01*
G01X886300Y222250D02*
Y209750D01*
G01X882740Y222250D02*
X889860D01*
G01X898700Y209330D02*
X898390Y209540D01*
Y209960D01*
X898700Y210170D01*
X899010Y209960D01*
Y209540D01*
X898700Y209330D01*
G01Y214960D02*
X898390Y215170D01*
Y215580D01*
X898700Y215790D01*
X899010Y215580D01*
Y215170D01*
X898700Y214960D01*
G01X923500Y222250D02*
Y209750D01*
G01X919940Y222250D02*
X927060D01*
G01X935900Y209750D02*
X934660Y209960D01*
X933580Y210790D01*
X932640Y212040D01*
X932020Y213500D01*
X931710Y215170D01*
Y216830D01*
X932020Y218500D01*
X932640Y219960D01*
X933580Y221210D01*
X934660Y222040D01*
X935900Y222250D01*
X937140Y222040D01*
X938220Y221210D01*
X939160Y219960D01*
X939780Y218500D01*
X940090Y216830D01*
Y215170D01*
X939780Y213500D01*
X939160Y212040D01*
X938220Y210790D01*
X937140Y209960D01*
X935900Y209750D01*
G01X945200D02*
Y222250D01*
X948920D01*
X950160Y221620D01*
X951090Y220170D01*
X951400Y218500D01*
X951090Y216830D01*
X950310Y215580D01*
X948920Y214960D01*
X945200D01*
G01X973100Y222250D02*
Y209750D01*
G01X970930Y218080D02*
X975270D01*
G01X985500Y209750D02*
X984570Y209960D01*
X983640Y210790D01*
X983020Y212250D01*
X982710Y213920D01*
X983020Y215580D01*
X983640Y217040D01*
X984570Y217870D01*
X985500Y218080D01*
X986430Y217870D01*
X987360Y217040D01*
X987980Y215580D01*
X988140Y213920D01*
X987980Y212250D01*
X987360Y210790D01*
X986430Y209960D01*
X985500Y209750D01*
G01X1011540Y216420D02*
X1012160Y217040D01*
X1012620Y218080D01*
X1012940Y219540D01*
X1012620Y220790D01*
X1012010Y221620D01*
X1010920Y222250D01*
X1006740D01*
Y209750D01*
X1011850D01*
X1012940Y210580D01*
X1013560Y211830D01*
X1013860Y213290D01*
X1013560Y214750D01*
X1012620Y216000D01*
X1011540Y216420D01*
X1006740D01*
G01X1022700Y209750D02*
X1021460Y209960D01*
X1020380Y210790D01*
X1019440Y212040D01*
X1018820Y213500D01*
X1018510Y215170D01*
Y216830D01*
X1018820Y218500D01*
X1019440Y219960D01*
X1020380Y221210D01*
X1021460Y222040D01*
X1022700Y222250D01*
X1023940Y222040D01*
X1025020Y221210D01*
X1025960Y219960D01*
X1026580Y218500D01*
X1026890Y216830D01*
Y215170D01*
X1026580Y213500D01*
X1025960Y212040D01*
X1025020Y210790D01*
X1023940Y209960D01*
X1022700Y209750D01*
G01X1035100Y222250D02*
Y209750D01*
G01X1031540Y222250D02*
X1038660D01*
G01X1047500D02*
Y209750D01*
G01X1043940Y222250D02*
X1051060D01*
G01X1059900Y209750D02*
X1058660Y209960D01*
X1057580Y210790D01*
X1056640Y212040D01*
X1056020Y213500D01*
X1055710Y215170D01*
Y216830D01*
X1056020Y218500D01*
X1056640Y219960D01*
X1057580Y221210D01*
X1058660Y222040D01*
X1059900Y222250D01*
X1061140Y222040D01*
X1062220Y221210D01*
X1063160Y219960D01*
X1063780Y218500D01*
X1064090Y216830D01*
Y215170D01*
X1063780Y213500D01*
X1063160Y212040D01*
X1062220Y210790D01*
X1061140Y209960D01*
X1059900Y209750D01*
G01X1068270D02*
Y222250D01*
X1072300Y211830D01*
X1076330Y222250D01*
Y209750D01*
G01X789420Y184750D02*
X793300Y197250D01*
X797180Y184750D01*
G01X795780Y189120D02*
X790820D01*
G01X802600Y197250D02*
Y184750D01*
X808800D01*
G01X815000Y197250D02*
Y184750D01*
X821200D01*
G01X839490Y197250D02*
Y188290D01*
X840110Y186420D01*
X841350Y185170D01*
X842900Y184750D01*
X844450Y185170D01*
X845690Y186420D01*
X846310Y188290D01*
Y197250D01*
G01X851740Y184750D02*
Y197250D01*
X858860Y184750D01*
Y197250D01*
G01X865840D02*
X869560D01*
G01X867700D02*
Y184750D01*
G01X865840D02*
X869560D01*
G01X880100Y197250D02*
Y184750D01*
G01X876540Y197250D02*
X883660D01*
G01X889240Y186420D02*
X890490Y185370D01*
X891880Y184750D01*
X893120D01*
X894360Y185370D01*
X895290Y186420D01*
X895760Y187880D01*
X895450Y189330D01*
X894670Y190580D01*
X893270Y191420D01*
X891420Y191830D01*
X890330Y192670D01*
X889860Y194120D01*
X890180Y195580D01*
X890950Y196620D01*
X892030Y197250D01*
X893120D01*
X894210Y196830D01*
X895140Y195790D01*
G01X913420Y184750D02*
X917300Y197250D01*
X921180Y184750D01*
G01X919780Y189120D02*
X914820D01*
G01X926600Y184750D02*
Y197250D01*
X930470D01*
X931710Y196620D01*
X932490Y195790D01*
X932800Y194120D01*
X932490Y192460D01*
X931560Y191420D01*
X930470Y190790D01*
X926600D01*
G01X930470D02*
X932800Y184750D01*
G01X945200D02*
X939000D01*
Y197250D01*
X945200D01*
G01X942720Y191210D02*
X939000D01*
G01X965040Y197250D02*
X968760D01*
G01X966900D02*
Y184750D01*
G01X965040D02*
X968760D01*
G01X975740D02*
Y197250D01*
X982860Y184750D01*
Y197250D01*
G01X1000070Y184750D02*
Y197250D01*
X1004100Y186830D01*
X1008130Y197250D01*
Y184750D01*
G01X1014640Y197250D02*
X1018360D01*
G01X1016500D02*
Y184750D01*
G01X1014640D02*
X1018360D01*
G01X1025800Y197250D02*
Y184750D01*
X1032000D01*
G01X1038040Y186420D02*
X1039290Y185370D01*
X1040680Y184750D01*
X1041920D01*
X1043160Y185370D01*
X1044090Y186420D01*
X1044560Y187880D01*
X1044250Y189330D01*
X1043470Y190580D01*
X1042070Y191420D01*
X1040220Y191830D01*
X1039130Y192670D01*
X1038660Y194120D01*
X1038980Y195580D01*
X1039750Y196620D01*
X1040830Y197250D01*
X1041920D01*
X1043010Y196830D01*
X1043940Y195790D01*
G01X801200Y-251520D02*
X802140Y-250270D01*
X803220Y-249650D01*
X804460Y-249440D01*
X806010Y-249860D01*
X807100Y-250900D01*
X807410Y-252150D01*
X807250Y-253400D01*
X806630Y-254440D01*
X803530Y-256520D01*
X802140Y-257980D01*
X801200Y-260070D01*
X800890Y-261940D01*
X807410D01*
G01X813140Y-260070D02*
X814070Y-261110D01*
X815150Y-261730D01*
X816550Y-261940D01*
X817950Y-261520D01*
X819030Y-260690D01*
X819810Y-259230D01*
X819960Y-257570D01*
X819650Y-255900D01*
X818870Y-254860D01*
X817790Y-254020D01*
X816710Y-253820D01*
X815620Y-254020D01*
X814230Y-254860D01*
X814690Y-249440D01*
X818870D01*
G01X826310Y-260480D02*
X827400Y-261520D01*
X828640Y-261940D01*
X829880Y-261520D01*
X830960Y-260270D01*
X831740Y-258400D01*
X832050Y-256520D01*
Y-254230D01*
X831740Y-252360D01*
X830960Y-250690D01*
X830030Y-249860D01*
X828950Y-249440D01*
X827710Y-249860D01*
X826780Y-250690D01*
X826160Y-251940D01*
X825850Y-253610D01*
X826160Y-255060D01*
X826940Y-256520D01*
X827870Y-257360D01*
X828950Y-257570D01*
X830190Y-257150D01*
X831120Y-256110D01*
X832050Y-254230D01*
G01X841350Y-262360D02*
X841040Y-262150D01*
Y-261730D01*
X841350Y-261520D01*
X841660Y-261730D01*
Y-262150D01*
X841350Y-262360D01*
G01X853750Y-261940D02*
X854830Y-261730D01*
X856070Y-261110D01*
X856850Y-260070D01*
X857160Y-258610D01*
X856850Y-257150D01*
X855920Y-255900D01*
X854520Y-255270D01*
X852980D01*
X852040Y-254860D01*
X851270Y-253820D01*
X850960Y-252360D01*
X851430Y-250900D01*
X852510Y-249860D01*
X853750Y-249440D01*
X854990Y-249860D01*
X856070Y-250900D01*
X856540Y-252360D01*
X856230Y-253820D01*
X855460Y-254860D01*
X854520Y-255270D01*
X852980D01*
X851580Y-255900D01*
X850650Y-257150D01*
X850340Y-258610D01*
X850650Y-260070D01*
X851430Y-261110D01*
X852670Y-261730D01*
X853750Y-261940D01*
G01X863830Y-253610D02*
X868470Y-261940D01*
G01Y-253610D02*
X863830Y-261940D01*
G01X875140Y-259440D02*
X876070Y-260900D01*
X877310Y-261730D01*
X878710Y-261940D01*
X879950Y-261730D01*
X881190Y-260690D01*
X881960Y-259440D01*
X882110Y-258190D01*
X881810Y-256730D01*
X880720Y-255690D01*
X879630Y-255270D01*
X878240D01*
G01X879630D02*
X880560Y-254650D01*
X881340Y-253610D01*
X881650Y-252360D01*
X881340Y-251110D01*
X880560Y-250070D01*
X879170Y-249440D01*
X877780Y-249650D01*
X876380Y-250480D01*
G01X888310Y-260480D02*
X889400Y-261520D01*
X890640Y-261940D01*
X891880Y-261520D01*
X892960Y-260270D01*
X893740Y-258400D01*
X894050Y-256520D01*
Y-254230D01*
X893740Y-252360D01*
X892960Y-250690D01*
X892030Y-249860D01*
X890950Y-249440D01*
X889710Y-249860D01*
X888780Y-250690D01*
X888160Y-251940D01*
X887850Y-253610D01*
X888160Y-255060D01*
X888940Y-256520D01*
X889870Y-257360D01*
X890950Y-257570D01*
X892190Y-257150D01*
X893120Y-256110D01*
X894050Y-254230D01*
G01X903350Y-262360D02*
X903040Y-262150D01*
Y-261730D01*
X903350Y-261520D01*
X903660Y-261730D01*
Y-262150D01*
X903350Y-262360D01*
G01X917610Y-261940D02*
Y-249440D01*
X911870Y-258400D01*
X919630D01*
G01X801200Y-212550D02*
X802140Y-211300D01*
X803220Y-210680D01*
X804460Y-210470D01*
X806010Y-210890D01*
X807100Y-211930D01*
X807410Y-213180D01*
X807250Y-214430D01*
X806630Y-215470D01*
X803530Y-217550D01*
X802140Y-219010D01*
X801200Y-221100D01*
X800890Y-222970D01*
X807410D01*
G01X813140Y-221100D02*
X814070Y-222140D01*
X815150Y-222760D01*
X816550Y-222970D01*
X817950Y-222550D01*
X819030Y-221720D01*
X819810Y-220260D01*
X819960Y-218600D01*
X819650Y-216930D01*
X818870Y-215890D01*
X817790Y-215050D01*
X816710Y-214850D01*
X815620Y-215050D01*
X814230Y-215890D01*
X814690Y-210470D01*
X818870D01*
G01X826310Y-221510D02*
X827400Y-222550D01*
X828640Y-222970D01*
X829880Y-222550D01*
X830960Y-221300D01*
X831740Y-219430D01*
X832050Y-217550D01*
Y-215260D01*
X831740Y-213390D01*
X830960Y-211720D01*
X830030Y-210890D01*
X828950Y-210470D01*
X827710Y-210890D01*
X826780Y-211720D01*
X826160Y-212970D01*
X825850Y-214640D01*
X826160Y-216090D01*
X826940Y-217550D01*
X827870Y-218390D01*
X828950Y-218600D01*
X830190Y-218180D01*
X831120Y-217140D01*
X832050Y-215260D01*
G01X841350Y-223390D02*
X841040Y-223180D01*
Y-222760D01*
X841350Y-222550D01*
X841660Y-222760D01*
Y-223180D01*
X841350Y-223390D01*
G01X853750Y-222970D02*
X854830Y-222760D01*
X856070Y-222140D01*
X856850Y-221100D01*
X857160Y-219640D01*
X856850Y-218180D01*
X855920Y-216930D01*
X854520Y-216300D01*
X852980D01*
X852040Y-215890D01*
X851270Y-214850D01*
X850960Y-213390D01*
X851430Y-211930D01*
X852510Y-210890D01*
X853750Y-210470D01*
X854990Y-210890D01*
X856070Y-211930D01*
X856540Y-213390D01*
X856230Y-214850D01*
X855460Y-215890D01*
X854520Y-216300D01*
X852980D01*
X851580Y-216930D01*
X850650Y-218180D01*
X850340Y-219640D01*
X850650Y-221100D01*
X851430Y-222140D01*
X852670Y-222760D01*
X853750Y-222970D01*
G01X863830Y-214640D02*
X868470Y-222970D01*
G01Y-214640D02*
X863830Y-222970D01*
G01X875140Y-220470D02*
X876070Y-221930D01*
X877310Y-222760D01*
X878710Y-222970D01*
X879950Y-222760D01*
X881190Y-221720D01*
X881960Y-220470D01*
X882110Y-219220D01*
X881810Y-217760D01*
X880720Y-216720D01*
X879630Y-216300D01*
X878240D01*
G01X879630D02*
X880560Y-215680D01*
X881340Y-214640D01*
X881650Y-213390D01*
X881340Y-212140D01*
X880560Y-211100D01*
X879170Y-210470D01*
X877780Y-210680D01*
X876380Y-211510D01*
G01X888310Y-221510D02*
X889400Y-222550D01*
X890640Y-222970D01*
X891880Y-222550D01*
X892960Y-221300D01*
X893740Y-219430D01*
X894050Y-217550D01*
Y-215260D01*
X893740Y-213390D01*
X892960Y-211720D01*
X892030Y-210890D01*
X890950Y-210470D01*
X889710Y-210890D01*
X888780Y-211720D01*
X888160Y-212970D01*
X887850Y-214640D01*
X888160Y-216090D01*
X888940Y-217550D01*
X889870Y-218390D01*
X890950Y-218600D01*
X892190Y-218180D01*
X893120Y-217140D01*
X894050Y-215260D01*
G01X903350Y-223390D02*
X903040Y-223180D01*
Y-222760D01*
X903350Y-222550D01*
X903660Y-222760D01*
Y-223180D01*
X903350Y-223390D01*
G01X917610Y-222970D02*
Y-210470D01*
X911870Y-219430D01*
X919630D01*
G01X835150Y-184000D02*
Y-171500D01*
X833290Y-174000D01*
G01Y-184000D02*
X837010D01*
G01X844140Y-182130D02*
X845070Y-183170D01*
X846150Y-183790D01*
X847550Y-184000D01*
X848950Y-183580D01*
X850030Y-182750D01*
X850810Y-181290D01*
X850960Y-179630D01*
X850650Y-177960D01*
X849870Y-176920D01*
X848790Y-176080D01*
X847710Y-175880D01*
X846620Y-176080D01*
X845230Y-176920D01*
X845690Y-171500D01*
X849870D01*
G01X859640Y-184000D02*
X859950Y-181290D01*
X860420Y-179000D01*
X861030Y-176920D01*
X861810Y-174630D01*
X863050Y-171500D01*
X856850D01*
G01X872350Y-184420D02*
X872040Y-184210D01*
Y-183790D01*
X872350Y-183580D01*
X872660Y-183790D01*
Y-184210D01*
X872350Y-184420D01*
G01X881340Y-182130D02*
X882270Y-183170D01*
X883350Y-183790D01*
X884750Y-184000D01*
X886150Y-183580D01*
X887230Y-182750D01*
X888010Y-181290D01*
X888160Y-179630D01*
X887850Y-177960D01*
X887070Y-176920D01*
X885990Y-176080D01*
X884910Y-175880D01*
X883820Y-176080D01*
X882430Y-176920D01*
X882890Y-171500D01*
X887070D01*
G01X835150Y-145030D02*
Y-132530D01*
X833290Y-135030D01*
G01Y-145030D02*
X837010D01*
G01X844910Y-143570D02*
X846000Y-144610D01*
X847240Y-145030D01*
X848480Y-144610D01*
X849560Y-143360D01*
X850340Y-141490D01*
X850650Y-139610D01*
Y-137320D01*
X850340Y-135450D01*
X849560Y-133780D01*
X848630Y-132950D01*
X847550Y-132530D01*
X846310Y-132950D01*
X845380Y-133780D01*
X844760Y-135030D01*
X844450Y-136700D01*
X844760Y-138150D01*
X845540Y-139610D01*
X846470Y-140450D01*
X847550Y-140660D01*
X848790Y-140240D01*
X849720Y-139200D01*
X850650Y-137320D01*
G01X857000Y-139820D02*
X858090Y-138360D01*
X859020Y-137530D01*
X860260Y-137110D01*
X861350Y-137530D01*
X862120Y-138360D01*
X862740Y-139610D01*
X862900Y-141070D01*
X862740Y-142320D01*
X862120Y-143570D01*
X861190Y-144610D01*
X860110Y-145030D01*
X858870Y-144610D01*
X857780Y-143360D01*
X857160Y-141490D01*
X857000Y-139410D01*
X857310Y-136700D01*
X857780Y-135240D01*
X858550Y-133780D01*
X859640Y-132740D01*
X860720Y-132530D01*
X861810Y-132950D01*
X862590Y-133990D01*
G01X872350Y-145450D02*
X872040Y-145240D01*
Y-144820D01*
X872350Y-144610D01*
X872660Y-144820D01*
Y-145240D01*
X872350Y-145450D01*
G01X882110Y-143570D02*
X883200Y-144610D01*
X884440Y-145030D01*
X885680Y-144610D01*
X886760Y-143360D01*
X887540Y-141490D01*
X887850Y-139610D01*
Y-137320D01*
X887540Y-135450D01*
X886760Y-133780D01*
X885830Y-132950D01*
X884750Y-132530D01*
X883510Y-132950D01*
X882580Y-133780D01*
X881960Y-135030D01*
X881650Y-136700D01*
X881960Y-138150D01*
X882740Y-139610D01*
X883670Y-140450D01*
X884750Y-140660D01*
X885990Y-140240D01*
X886920Y-139200D01*
X887850Y-137320D01*
G01X841350Y-106060D02*
Y-93560D01*
X839490Y-96060D01*
G01Y-106060D02*
X843210D01*
G01X851110Y-104600D02*
X852200Y-105640D01*
X853440Y-106060D01*
X854680Y-105640D01*
X855760Y-104390D01*
X856540Y-102520D01*
X856850Y-100640D01*
Y-98350D01*
X856540Y-96480D01*
X855760Y-94810D01*
X854830Y-93980D01*
X853750Y-93560D01*
X852510Y-93980D01*
X851580Y-94810D01*
X850960Y-96060D01*
X850650Y-97730D01*
X850960Y-99180D01*
X851740Y-100640D01*
X852670Y-101480D01*
X853750Y-101690D01*
X854990Y-101270D01*
X855920Y-100230D01*
X856850Y-98350D01*
G01X866150Y-106480D02*
X865840Y-106270D01*
Y-105850D01*
X866150Y-105640D01*
X866460Y-105850D01*
Y-106270D01*
X866150Y-106480D01*
G01X878240Y-106060D02*
X878550Y-103350D01*
X879020Y-101060D01*
X879630Y-98980D01*
X880410Y-96690D01*
X881650Y-93560D01*
X875450D01*
G01X837940Y-64590D02*
X838870Y-66050D01*
X840110Y-66880D01*
X841510Y-67090D01*
X842750Y-66880D01*
X843990Y-65840D01*
X844760Y-64590D01*
X844910Y-63340D01*
X844610Y-61880D01*
X843520Y-60840D01*
X842430Y-60420D01*
X841040D01*
G01X842430D02*
X843360Y-59800D01*
X844140Y-58760D01*
X844450Y-57510D01*
X844140Y-56260D01*
X843360Y-55220D01*
X841970Y-54590D01*
X840580Y-54800D01*
X839180Y-55630D01*
G01X853750Y-67090D02*
Y-54590D01*
X851890Y-57090D01*
G01Y-67090D02*
X855610D01*
G01X866150Y-67510D02*
X865840Y-67300D01*
Y-66880D01*
X866150Y-66670D01*
X866460Y-66880D01*
Y-67300D01*
X866150Y-67510D01*
G01X875140Y-65220D02*
X876070Y-66260D01*
X877150Y-66880D01*
X878550Y-67090D01*
X879950Y-66670D01*
X881030Y-65840D01*
X881810Y-64380D01*
X881960Y-62720D01*
X881650Y-61050D01*
X880870Y-60010D01*
X879790Y-59170D01*
X878710Y-58970D01*
X877620Y-59170D01*
X876230Y-60010D01*
X876690Y-54590D01*
X880870D01*
G01X837940Y-25620D02*
X838870Y-27080D01*
X840110Y-27910D01*
X841510Y-28120D01*
X842750Y-27910D01*
X843990Y-26870D01*
X844760Y-25620D01*
X844910Y-24370D01*
X844610Y-22910D01*
X843520Y-21870D01*
X842430Y-21450D01*
X841040D01*
G01X842430D02*
X843360Y-20830D01*
X844140Y-19790D01*
X844450Y-18540D01*
X844140Y-17290D01*
X843360Y-16250D01*
X841970Y-15620D01*
X840580Y-15830D01*
X839180Y-16660D01*
G01X853750Y-28120D02*
Y-15620D01*
X851890Y-18120D01*
G01Y-28120D02*
X855610D01*
G01X866150Y-28540D02*
X865840Y-28330D01*
Y-27910D01*
X866150Y-27700D01*
X866460Y-27910D01*
Y-28330D01*
X866150Y-28540D01*
G01X875140Y-26250D02*
X876070Y-27290D01*
X877150Y-27910D01*
X878550Y-28120D01*
X879950Y-27700D01*
X881030Y-26870D01*
X881810Y-25410D01*
X881960Y-23750D01*
X881650Y-22080D01*
X880870Y-21040D01*
X879790Y-20200D01*
X878710Y-20000D01*
X877620Y-20200D01*
X876230Y-21040D01*
X876690Y-15620D01*
X880870D01*
G01X837940Y13350D02*
X838870Y11890D01*
X840110Y11060D01*
X841510Y10850D01*
X842750Y11060D01*
X843990Y12100D01*
X844760Y13350D01*
X844910Y14600D01*
X844610Y16060D01*
X843520Y17100D01*
X842430Y17520D01*
X841040D01*
G01X842430D02*
X843360Y18140D01*
X844140Y19180D01*
X844450Y20430D01*
X844140Y21680D01*
X843360Y22720D01*
X841970Y23350D01*
X840580Y23140D01*
X839180Y22310D01*
G01X850340Y13350D02*
X851270Y11890D01*
X852510Y11060D01*
X853910Y10850D01*
X855150Y11060D01*
X856390Y12100D01*
X857160Y13350D01*
X857310Y14600D01*
X857010Y16060D01*
X855920Y17100D01*
X854830Y17520D01*
X853440D01*
G01X854830D02*
X855760Y18140D01*
X856540Y19180D01*
X856850Y20430D01*
X856540Y21680D01*
X855760Y22720D01*
X854370Y23350D01*
X852980Y23140D01*
X851580Y22310D01*
G01X866150Y10430D02*
X865840Y10640D01*
Y11060D01*
X866150Y11270D01*
X866460Y11060D01*
Y10640D01*
X866150Y10430D01*
G01X875140Y12720D02*
X876070Y11680D01*
X877150Y11060D01*
X878550Y10850D01*
X879950Y11270D01*
X881030Y12100D01*
X881810Y13560D01*
X881960Y15220D01*
X881650Y16890D01*
X880870Y17930D01*
X879790Y18770D01*
X878710Y18970D01*
X877620Y18770D01*
X876230Y17930D01*
X876690Y23350D01*
X880870D01*
G01X837940Y52320D02*
X838870Y50860D01*
X840110Y50030D01*
X841510Y49820D01*
X842750Y50030D01*
X843990Y51070D01*
X844760Y52320D01*
X844910Y53570D01*
X844610Y55030D01*
X843520Y56070D01*
X842430Y56490D01*
X841040D01*
G01X842430D02*
X843360Y57110D01*
X844140Y58150D01*
X844450Y59400D01*
X844140Y60650D01*
X843360Y61690D01*
X841970Y62320D01*
X840580Y62110D01*
X839180Y61280D01*
G01X851110Y51280D02*
X852200Y50240D01*
X853440Y49820D01*
X854680Y50240D01*
X855760Y51490D01*
X856540Y53360D01*
X856850Y55240D01*
Y57530D01*
X856540Y59400D01*
X855760Y61070D01*
X854830Y61900D01*
X853750Y62320D01*
X852510Y61900D01*
X851580Y61070D01*
X850960Y59820D01*
X850650Y58150D01*
X850960Y56700D01*
X851740Y55240D01*
X852670Y54400D01*
X853750Y54190D01*
X854990Y54610D01*
X855920Y55650D01*
X856850Y57530D01*
G01X866150Y49400D02*
X865840Y49610D01*
Y50030D01*
X866150Y50240D01*
X866460Y50030D01*
Y49610D01*
X866150Y49400D01*
G01X880410Y49820D02*
Y62320D01*
X874670Y53360D01*
X882430D01*
G01X843210Y88800D02*
Y101300D01*
X837470Y92340D01*
X845230D01*
G01X853440Y88800D02*
X853750Y91510D01*
X854220Y93800D01*
X854830Y95880D01*
X855610Y98170D01*
X856850Y101300D01*
X850650D01*
G01X866150Y88380D02*
X865840Y88590D01*
Y89010D01*
X866150Y89220D01*
X866460Y89010D01*
Y88590D01*
X866150Y88380D01*
G01X875600Y99220D02*
X876540Y100470D01*
X877620Y101090D01*
X878860Y101300D01*
X880410Y100880D01*
X881500Y99840D01*
X881810Y98590D01*
X881650Y97340D01*
X881030Y96300D01*
X877930Y94220D01*
X876540Y92760D01*
X875600Y90670D01*
X875290Y88800D01*
X881810D01*
G01X841040Y127760D02*
X841350Y130470D01*
X841820Y132760D01*
X842430Y134840D01*
X843210Y137130D01*
X844450Y140260D01*
X838250D01*
G01X853750D02*
X852510Y139840D01*
X851580Y138800D01*
X850960Y137550D01*
X850490Y135880D01*
X850340Y134010D01*
X850490Y132130D01*
X850960Y130470D01*
X851580Y129220D01*
X852510Y128180D01*
X853750Y127760D01*
X854990Y128180D01*
X855920Y129220D01*
X856540Y130470D01*
X857010Y132130D01*
X857160Y134010D01*
X857010Y135880D01*
X856540Y137550D01*
X855920Y138800D01*
X854990Y139840D01*
X853750Y140260D01*
G01X866150Y127340D02*
X865840Y127550D01*
Y127970D01*
X866150Y128180D01*
X866460Y127970D01*
Y127550D01*
X866150Y127340D01*
G01X875910Y129220D02*
X877000Y128180D01*
X878240Y127760D01*
X879480Y128180D01*
X880560Y129430D01*
X881340Y131300D01*
X881650Y133180D01*
Y135470D01*
X881340Y137340D01*
X880560Y139010D01*
X879630Y139840D01*
X878550Y140260D01*
X877310Y139840D01*
X876380Y139010D01*
X875760Y137760D01*
X875450Y136090D01*
X875760Y134640D01*
X876540Y133180D01*
X877470Y132340D01*
X878550Y132130D01*
X879790Y132550D01*
X880720Y133590D01*
X881650Y135470D01*
G01X838090Y161420D02*
X839340Y160370D01*
X840730Y159750D01*
X841970D01*
X843210Y160370D01*
X844140Y161420D01*
X844610Y162880D01*
X844300Y164330D01*
X843520Y165580D01*
X842120Y166420D01*
X840270Y166830D01*
X839180Y167670D01*
X838710Y169120D01*
X839030Y170580D01*
X839800Y171620D01*
X840880Y172250D01*
X841970D01*
X843060Y171830D01*
X843990Y170790D01*
G01X851890Y172250D02*
X855610D01*
G01X853750D02*
Y159750D01*
G01X851890D02*
X855610D01*
G01X863200Y172250D02*
X869100D01*
X863200Y159750D01*
X869100D01*
G01X881650D02*
X875450D01*
Y172250D01*
X881650D01*
G01X879170Y166210D02*
X875450D01*
G01X958690Y-184000D02*
Y-171500D01*
X965810Y-184000D01*
Y-171500D01*
G01X974650Y-184000D02*
X973410Y-183790D01*
X972330Y-182960D01*
X971390Y-181710D01*
X970770Y-180250D01*
X970460Y-178580D01*
Y-176920D01*
X970770Y-175250D01*
X971390Y-173790D01*
X972330Y-172540D01*
X973410Y-171710D01*
X974650Y-171500D01*
X975890Y-171710D01*
X976970Y-172540D01*
X977910Y-173790D01*
X978530Y-175250D01*
X978840Y-176920D01*
Y-178580D01*
X978530Y-180250D01*
X977910Y-181710D01*
X976970Y-182960D01*
X975890Y-183790D01*
X974650Y-184000D01*
G01X983490D02*
Y-171500D01*
X990610Y-184000D01*
Y-171500D01*
G01X997440Y-179830D02*
X1001460D01*
G01X1008750Y-184000D02*
Y-171500D01*
X1012470D01*
X1013710Y-172130D01*
X1014640Y-173580D01*
X1014950Y-175250D01*
X1014640Y-176920D01*
X1013860Y-178170D01*
X1012470Y-178790D01*
X1008750D01*
G01X1021150Y-171500D02*
Y-184000D01*
X1027350D01*
G01X1032770D02*
X1036650Y-171500D01*
X1040530Y-184000D01*
G01X1039130Y-179630D02*
X1034170D01*
G01X1049050Y-171500D02*
Y-184000D01*
G01X1045490Y-171500D02*
X1052610D01*
G01X1064550Y-184000D02*
X1058350D01*
Y-171500D01*
X1064550D01*
G01X1062070Y-177540D02*
X1058350D01*
G01X1070440Y-184000D02*
Y-171500D01*
X1073540D01*
X1074780Y-172130D01*
X1075710Y-172960D01*
X1076490Y-174210D01*
X1077110Y-175670D01*
X1077260Y-177750D01*
X1077110Y-179830D01*
X1076490Y-181290D01*
X1075710Y-182540D01*
X1074780Y-183380D01*
X1073540Y-184000D01*
X1070440D01*
G01X958690Y-145030D02*
Y-132530D01*
X965810Y-145030D01*
Y-132530D01*
G01X974650Y-145030D02*
X973410Y-144820D01*
X972330Y-143990D01*
X971390Y-142740D01*
X970770Y-141280D01*
X970460Y-139610D01*
Y-137950D01*
X970770Y-136280D01*
X971390Y-134820D01*
X972330Y-133570D01*
X973410Y-132740D01*
X974650Y-132530D01*
X975890Y-132740D01*
X976970Y-133570D01*
X977910Y-134820D01*
X978530Y-136280D01*
X978840Y-137950D01*
Y-139610D01*
X978530Y-141280D01*
X977910Y-142740D01*
X976970Y-143990D01*
X975890Y-144820D01*
X974650Y-145030D01*
G01X983490D02*
Y-132530D01*
X990610Y-145030D01*
Y-132530D01*
G01X997440Y-140860D02*
X1001460D01*
G01X1008750Y-145030D02*
Y-132530D01*
X1012470D01*
X1013710Y-133160D01*
X1014640Y-134610D01*
X1014950Y-136280D01*
X1014640Y-137950D01*
X1013860Y-139200D01*
X1012470Y-139820D01*
X1008750D01*
G01X1021150Y-132530D02*
Y-145030D01*
X1027350D01*
G01X1032770D02*
X1036650Y-132530D01*
X1040530Y-145030D01*
G01X1039130Y-140660D02*
X1034170D01*
G01X1049050Y-132530D02*
Y-145030D01*
G01X1045490Y-132530D02*
X1052610D01*
G01X1064550Y-145030D02*
X1058350D01*
Y-132530D01*
X1064550D01*
G01X1062070Y-138570D02*
X1058350D01*
G01X1070440Y-145030D02*
Y-132530D01*
X1073540D01*
X1074780Y-133160D01*
X1075710Y-133990D01*
X1076490Y-135240D01*
X1077110Y-136700D01*
X1077260Y-138780D01*
X1077110Y-140860D01*
X1076490Y-142320D01*
X1075710Y-143570D01*
X1074780Y-144410D01*
X1073540Y-145030D01*
X1070440D01*
G01X983950Y-261940D02*
Y-249440D01*
X987670D01*
X988910Y-250070D01*
X989840Y-251520D01*
X990150Y-253190D01*
X989840Y-254860D01*
X989060Y-256110D01*
X987670Y-256730D01*
X983950D01*
G01X996350Y-249440D02*
Y-261940D01*
X1002550D01*
G01X1007970D02*
X1011850Y-249440D01*
X1015730Y-261940D01*
G01X1014330Y-257570D02*
X1009370D01*
G01X1024250Y-249440D02*
Y-261940D01*
G01X1020690Y-249440D02*
X1027810D01*
G01X1039750Y-261940D02*
X1033550D01*
Y-249440D01*
X1039750D01*
G01X1037270Y-255480D02*
X1033550D01*
G01X1045640Y-261940D02*
Y-249440D01*
X1048740D01*
X1049980Y-250070D01*
X1050910Y-250900D01*
X1051690Y-252150D01*
X1052310Y-253610D01*
X1052460Y-255690D01*
X1052310Y-257770D01*
X1051690Y-259230D01*
X1050910Y-260480D01*
X1049980Y-261320D01*
X1048740Y-261940D01*
X1045640D01*
G01X983950Y-222970D02*
Y-210470D01*
X987670D01*
X988910Y-211100D01*
X989840Y-212550D01*
X990150Y-214220D01*
X989840Y-215890D01*
X989060Y-217140D01*
X987670Y-217760D01*
X983950D01*
G01X996350Y-210470D02*
Y-222970D01*
X1002550D01*
G01X1007970D02*
X1011850Y-210470D01*
X1015730Y-222970D01*
G01X1014330Y-218600D02*
X1009370D01*
G01X1024250Y-210470D02*
Y-222970D01*
G01X1020690Y-210470D02*
X1027810D01*
G01X1039750Y-222970D02*
X1033550D01*
Y-210470D01*
X1039750D01*
G01X1037270Y-216510D02*
X1033550D01*
G01X1045640Y-222970D02*
Y-210470D01*
X1048740D01*
X1049980Y-211100D01*
X1050910Y-211930D01*
X1051690Y-213180D01*
X1052310Y-214640D01*
X1052460Y-216720D01*
X1052310Y-218800D01*
X1051690Y-220260D01*
X1050910Y-221510D01*
X1049980Y-222350D01*
X1048740Y-222970D01*
X1045640D01*
G01X983950Y-106060D02*
Y-93560D01*
X987670D01*
X988910Y-94190D01*
X989840Y-95640D01*
X990150Y-97310D01*
X989840Y-98980D01*
X989060Y-100230D01*
X987670Y-100850D01*
X983950D01*
G01X996350Y-93560D02*
Y-106060D01*
X1002550D01*
G01X1007970D02*
X1011850Y-93560D01*
X1015730Y-106060D01*
G01X1014330Y-101690D02*
X1009370D01*
G01X1024250Y-93560D02*
Y-106060D01*
G01X1020690Y-93560D02*
X1027810D01*
G01X1039750Y-106060D02*
X1033550D01*
Y-93560D01*
X1039750D01*
G01X1037270Y-99600D02*
X1033550D01*
G01X1045640Y-106060D02*
Y-93560D01*
X1048740D01*
X1049980Y-94190D01*
X1050910Y-95020D01*
X1051690Y-96270D01*
X1052310Y-97730D01*
X1052460Y-99810D01*
X1052310Y-101890D01*
X1051690Y-103350D01*
X1050910Y-104600D01*
X1049980Y-105440D01*
X1048740Y-106060D01*
X1045640D01*
G01X983950Y-67090D02*
Y-54590D01*
X987670D01*
X988910Y-55220D01*
X989840Y-56670D01*
X990150Y-58340D01*
X989840Y-60010D01*
X989060Y-61260D01*
X987670Y-61880D01*
X983950D01*
G01X996350Y-54590D02*
Y-67090D01*
X1002550D01*
G01X1007970D02*
X1011850Y-54590D01*
X1015730Y-67090D01*
G01X1014330Y-62720D02*
X1009370D01*
G01X1024250Y-54590D02*
Y-67090D01*
G01X1020690Y-54590D02*
X1027810D01*
G01X1039750Y-67090D02*
X1033550D01*
Y-54590D01*
X1039750D01*
G01X1037270Y-60630D02*
X1033550D01*
G01X1045640Y-67090D02*
Y-54590D01*
X1048740D01*
X1049980Y-55220D01*
X1050910Y-56050D01*
X1051690Y-57300D01*
X1052310Y-58760D01*
X1052460Y-60840D01*
X1052310Y-62920D01*
X1051690Y-64380D01*
X1050910Y-65630D01*
X1049980Y-66470D01*
X1048740Y-67090D01*
X1045640D01*
G01X983950Y-28120D02*
Y-15620D01*
X987670D01*
X988910Y-16250D01*
X989840Y-17700D01*
X990150Y-19370D01*
X989840Y-21040D01*
X989060Y-22290D01*
X987670Y-22910D01*
X983950D01*
G01X996350Y-15620D02*
Y-28120D01*
X1002550D01*
G01X1007970D02*
X1011850Y-15620D01*
X1015730Y-28120D01*
G01X1014330Y-23750D02*
X1009370D01*
G01X1024250Y-15620D02*
Y-28120D01*
G01X1020690Y-15620D02*
X1027810D01*
G01X1039750Y-28120D02*
X1033550D01*
Y-15620D01*
X1039750D01*
G01X1037270Y-21660D02*
X1033550D01*
G01X1045640Y-28120D02*
Y-15620D01*
X1048740D01*
X1049980Y-16250D01*
X1050910Y-17080D01*
X1051690Y-18330D01*
X1052310Y-19790D01*
X1052460Y-21870D01*
X1052310Y-23950D01*
X1051690Y-25410D01*
X1050910Y-26660D01*
X1049980Y-27500D01*
X1048740Y-28120D01*
X1045640D01*
G01X983950Y10850D02*
Y23350D01*
X987670D01*
X988910Y22720D01*
X989840Y21270D01*
X990150Y19600D01*
X989840Y17930D01*
X989060Y16680D01*
X987670Y16060D01*
X983950D01*
G01X996350Y23350D02*
Y10850D01*
X1002550D01*
G01X1007970D02*
X1011850Y23350D01*
X1015730Y10850D01*
G01X1014330Y15220D02*
X1009370D01*
G01X1024250Y23350D02*
Y10850D01*
G01X1020690Y23350D02*
X1027810D01*
G01X1039750Y10850D02*
X1033550D01*
Y23350D01*
X1039750D01*
G01X1037270Y17310D02*
X1033550D01*
G01X1045640Y10850D02*
Y23350D01*
X1048740D01*
X1049980Y22720D01*
X1050910Y21890D01*
X1051690Y20640D01*
X1052310Y19180D01*
X1052460Y17100D01*
X1052310Y15020D01*
X1051690Y13560D01*
X1050910Y12310D01*
X1049980Y11470D01*
X1048740Y10850D01*
X1045640D01*
G01X983950Y49820D02*
Y62320D01*
X987670D01*
X988910Y61690D01*
X989840Y60240D01*
X990150Y58570D01*
X989840Y56900D01*
X989060Y55650D01*
X987670Y55030D01*
X983950D01*
G01X996350Y62320D02*
Y49820D01*
X1002550D01*
G01X1007970D02*
X1011850Y62320D01*
X1015730Y49820D01*
G01X1014330Y54190D02*
X1009370D01*
G01X1024250Y62320D02*
Y49820D01*
G01X1020690Y62320D02*
X1027810D01*
G01X1039750Y49820D02*
X1033550D01*
Y62320D01*
X1039750D01*
G01X1037270Y56280D02*
X1033550D01*
G01X1045640Y49820D02*
Y62320D01*
X1048740D01*
X1049980Y61690D01*
X1050910Y60860D01*
X1051690Y59610D01*
X1052310Y58150D01*
X1052460Y56070D01*
X1052310Y53990D01*
X1051690Y52530D01*
X1050910Y51280D01*
X1049980Y50440D01*
X1048740Y49820D01*
X1045640D01*
G01X983950Y88800D02*
Y101300D01*
X987670D01*
X988910Y100670D01*
X989840Y99220D01*
X990150Y97550D01*
X989840Y95880D01*
X989060Y94630D01*
X987670Y94010D01*
X983950D01*
G01X996350Y101300D02*
Y88800D01*
X1002550D01*
G01X1007970D02*
X1011850Y101300D01*
X1015730Y88800D01*
G01X1014330Y93170D02*
X1009370D01*
G01X1024250Y101300D02*
Y88800D01*
G01X1020690Y101300D02*
X1027810D01*
G01X1039750Y88800D02*
X1033550D01*
Y101300D01*
X1039750D01*
G01X1037270Y95260D02*
X1033550D01*
G01X1045640Y88800D02*
Y101300D01*
X1048740D01*
X1049980Y100670D01*
X1050910Y99840D01*
X1051690Y98590D01*
X1052310Y97130D01*
X1052460Y95050D01*
X1052310Y92970D01*
X1051690Y91510D01*
X1050910Y90260D01*
X1049980Y89420D01*
X1048740Y88800D01*
X1045640D01*
G01X983950Y127760D02*
Y140260D01*
X987670D01*
X988910Y139630D01*
X989840Y138180D01*
X990150Y136510D01*
X989840Y134840D01*
X989060Y133590D01*
X987670Y132970D01*
X983950D01*
G01X996350Y140260D02*
Y127760D01*
X1002550D01*
G01X1007970D02*
X1011850Y140260D01*
X1015730Y127760D01*
G01X1014330Y132130D02*
X1009370D01*
G01X1024250Y140260D02*
Y127760D01*
G01X1020690Y140260D02*
X1027810D01*
G01X1039750Y127760D02*
X1033550D01*
Y140260D01*
X1039750D01*
G01X1037270Y134220D02*
X1033550D01*
G01X1045640Y127760D02*
Y140260D01*
X1048740D01*
X1049980Y139630D01*
X1050910Y138800D01*
X1051690Y137550D01*
X1052310Y136090D01*
X1052460Y134010D01*
X1052310Y131930D01*
X1051690Y130470D01*
X1050910Y129220D01*
X1049980Y128380D01*
X1048740Y127760D01*
X1045640D01*
G01X983950Y159750D02*
Y172250D01*
X987670D01*
X988910Y171620D01*
X989840Y170170D01*
X990150Y168500D01*
X989840Y166830D01*
X989060Y165580D01*
X987670Y164960D01*
X983950D01*
G01X996350Y172250D02*
Y159750D01*
X1002550D01*
G01X1007970D02*
X1011850Y172250D01*
X1015730Y159750D01*
G01X1014330Y164120D02*
X1009370D01*
G01X1024250Y172250D02*
Y159750D01*
G01X1020690Y172250D02*
X1027810D01*
G01X1039750Y159750D02*
X1033550D01*
Y172250D01*
X1039750D01*
G01X1037270Y166210D02*
X1033550D01*
G01X1045640Y159750D02*
Y172250D01*
X1048740D01*
X1049980Y171620D01*
X1050910Y170790D01*
X1051690Y169540D01*
X1052310Y168080D01*
X1052460Y166000D01*
X1052310Y163920D01*
X1051690Y162460D01*
X1050910Y161210D01*
X1049980Y160370D01*
X1048740Y159750D01*
X1045640D01*
G01X1107950D02*
X1106710Y159960D01*
X1105630Y160790D01*
X1104690Y162040D01*
X1104070Y163500D01*
X1103760Y165170D01*
Y166830D01*
X1104070Y168500D01*
X1104690Y169960D01*
X1105630Y171210D01*
X1106710Y172040D01*
X1107950Y172250D01*
X1109190Y172040D01*
X1110270Y171210D01*
X1111210Y169960D01*
X1111830Y168500D01*
X1112140Y166830D01*
Y165170D01*
X1111830Y163500D01*
X1111210Y162040D01*
X1110270Y160790D01*
X1109190Y159960D01*
X1107950Y159750D01*
G01X1109190Y163080D02*
X1111050Y159750D01*
G01X1120350Y172250D02*
Y159750D01*
G01X1116790Y172250D02*
X1123910D01*
G01X1132750Y159750D02*
Y165370D01*
X1129650Y172250D01*
G01X1135850D02*
X1132750Y165370D01*
G01X1116010Y-106060D02*
Y-93560D01*
X1110270Y-102520D01*
X1118030D01*
G01X1126240Y-106060D02*
X1126550Y-103350D01*
X1127020Y-101060D01*
X1127630Y-98980D01*
X1128410Y-96690D01*
X1129650Y-93560D01*
X1123450D01*
G01X1110740Y-65220D02*
X1111670Y-66260D01*
X1112750Y-66880D01*
X1114150Y-67090D01*
X1115550Y-66670D01*
X1116630Y-65840D01*
X1117410Y-64380D01*
X1117560Y-62720D01*
X1117250Y-61050D01*
X1116470Y-60010D01*
X1115390Y-59170D01*
X1114310Y-58970D01*
X1113220Y-59170D01*
X1111830Y-60010D01*
X1112290Y-54590D01*
X1116470D01*
G01X1123910Y-65630D02*
X1125000Y-66670D01*
X1126240Y-67090D01*
X1127480Y-66670D01*
X1128560Y-65420D01*
X1129340Y-63550D01*
X1129650Y-61670D01*
Y-59380D01*
X1129340Y-57510D01*
X1128560Y-55840D01*
X1127630Y-55010D01*
X1126550Y-54590D01*
X1125310Y-55010D01*
X1124380Y-55840D01*
X1123760Y-57090D01*
X1123450Y-58760D01*
X1123760Y-60210D01*
X1124540Y-61670D01*
X1125470Y-62510D01*
X1126550Y-62720D01*
X1127790Y-62300D01*
X1128720Y-61260D01*
X1129650Y-59380D01*
G01X1113840Y-28120D02*
X1114150Y-25410D01*
X1114620Y-23120D01*
X1115230Y-21040D01*
X1116010Y-18750D01*
X1117250Y-15620D01*
X1111050D01*
G01X1123600Y-22910D02*
X1124690Y-21450D01*
X1125620Y-20620D01*
X1126860Y-20200D01*
X1127950Y-20620D01*
X1128720Y-21450D01*
X1129340Y-22700D01*
X1129500Y-24160D01*
X1129340Y-25410D01*
X1128720Y-26660D01*
X1127790Y-27700D01*
X1126710Y-28120D01*
X1125470Y-27700D01*
X1124380Y-26450D01*
X1123760Y-24580D01*
X1123600Y-22500D01*
X1123910Y-19790D01*
X1124380Y-18330D01*
X1125150Y-16870D01*
X1126240Y-15830D01*
X1127320Y-15620D01*
X1128410Y-16040D01*
X1129190Y-17080D01*
G01X1111200Y21270D02*
X1112140Y22520D01*
X1113220Y23140D01*
X1114460Y23350D01*
X1116010Y22930D01*
X1117100Y21890D01*
X1117410Y20640D01*
X1117250Y19390D01*
X1116630Y18350D01*
X1113530Y16270D01*
X1112140Y14810D01*
X1111200Y12720D01*
X1110890Y10850D01*
X1117410D01*
G01X1123600Y16060D02*
X1124690Y17520D01*
X1125620Y18350D01*
X1126860Y18770D01*
X1127950Y18350D01*
X1128720Y17520D01*
X1129340Y16270D01*
X1129500Y14810D01*
X1129340Y13560D01*
X1128720Y12310D01*
X1127790Y11270D01*
X1126710Y10850D01*
X1125470Y11270D01*
X1124380Y12520D01*
X1123760Y14390D01*
X1123600Y16470D01*
X1123910Y19180D01*
X1124380Y20640D01*
X1125150Y22100D01*
X1126240Y23140D01*
X1127320Y23350D01*
X1128410Y22930D01*
X1129190Y21890D01*
G01X1116010Y49820D02*
Y62320D01*
X1110270Y53360D01*
X1118030D01*
G01X1128410Y49820D02*
Y62320D01*
X1122670Y53360D01*
X1130430D01*
G01X1114150Y88800D02*
Y101300D01*
X1112290Y98800D01*
G01Y88800D02*
X1116010D01*
G01X1126240D02*
X1126550Y91510D01*
X1127020Y93800D01*
X1127630Y95880D01*
X1128410Y98170D01*
X1129650Y101300D01*
X1123450D01*
G01X1110740Y130260D02*
X1111670Y128800D01*
X1112910Y127970D01*
X1114310Y127760D01*
X1115550Y127970D01*
X1116790Y129010D01*
X1117560Y130260D01*
X1117710Y131510D01*
X1117410Y132970D01*
X1116320Y134010D01*
X1115230Y134430D01*
X1113840D01*
G01X1115230D02*
X1116160Y135050D01*
X1116940Y136090D01*
X1117250Y137340D01*
X1116940Y138590D01*
X1116160Y139630D01*
X1114770Y140260D01*
X1113380Y140050D01*
X1111980Y139220D01*
G01X1123600Y138180D02*
X1124540Y139430D01*
X1125620Y140050D01*
X1126860Y140260D01*
X1128410Y139840D01*
X1129500Y138800D01*
X1129810Y137550D01*
X1129650Y136300D01*
X1129030Y135260D01*
X1125930Y133180D01*
X1124540Y131720D01*
X1123600Y129630D01*
X1123290Y127760D01*
X1129810D01*
G01X1117710Y-260480D02*
X1118800Y-261520D01*
X1120040Y-261940D01*
X1121280Y-261520D01*
X1122360Y-260270D01*
X1123140Y-258400D01*
X1123450Y-256520D01*
Y-254230D01*
X1123140Y-252360D01*
X1122360Y-250690D01*
X1121430Y-249860D01*
X1120350Y-249440D01*
X1119110Y-249860D01*
X1118180Y-250690D01*
X1117560Y-251940D01*
X1117250Y-253610D01*
X1117560Y-255060D01*
X1118340Y-256520D01*
X1119270Y-257360D01*
X1120350Y-257570D01*
X1121590Y-257150D01*
X1122520Y-256110D01*
X1123450Y-254230D01*
G01X1116940Y-220470D02*
X1117870Y-221930D01*
X1119110Y-222760D01*
X1120510Y-222970D01*
X1121750Y-222760D01*
X1122990Y-221720D01*
X1123760Y-220470D01*
X1123910Y-219220D01*
X1123610Y-217760D01*
X1122520Y-216720D01*
X1121430Y-216300D01*
X1120040D01*
G01X1121430D02*
X1122360Y-215680D01*
X1123140Y-214640D01*
X1123450Y-213390D01*
X1123140Y-212140D01*
X1122360Y-211100D01*
X1120970Y-210470D01*
X1119580Y-210680D01*
X1118180Y-211510D01*
G01X1120350Y-184000D02*
X1121430Y-183790D01*
X1122670Y-183170D01*
X1123450Y-182130D01*
X1123760Y-180670D01*
X1123450Y-179210D01*
X1122520Y-177960D01*
X1121120Y-177330D01*
X1119580D01*
X1118640Y-176920D01*
X1117870Y-175880D01*
X1117560Y-174420D01*
X1118030Y-172960D01*
X1119110Y-171920D01*
X1120350Y-171500D01*
X1121590Y-171920D01*
X1122670Y-172960D01*
X1123140Y-174420D01*
X1122830Y-175880D01*
X1122060Y-176920D01*
X1121120Y-177330D01*
X1119580D01*
X1118180Y-177960D01*
X1117250Y-179210D01*
X1116940Y-180670D01*
X1117250Y-182130D01*
X1118030Y-183170D01*
X1119270Y-183790D01*
X1120350Y-184000D01*
G01X1117710Y-143570D02*
X1118800Y-144610D01*
X1120040Y-145030D01*
X1121280Y-144610D01*
X1122360Y-143360D01*
X1123140Y-141490D01*
X1123450Y-139610D01*
Y-137320D01*
X1123140Y-135450D01*
X1122360Y-133780D01*
X1121430Y-132950D01*
X1120350Y-132530D01*
X1119110Y-132950D01*
X1118180Y-133780D01*
X1117560Y-135030D01*
X1117250Y-136700D01*
X1117560Y-138150D01*
X1118340Y-139610D01*
X1119270Y-140450D01*
X1120350Y-140660D01*
X1121590Y-140240D01*
X1122520Y-139200D01*
X1123450Y-137320D01*
G54D19*
G01X620000Y-270000D02*
Y270000D01*
G03X600000Y290000I-20000J0D01*
G01X-380000D01*
G03X-400000Y270000I0J-20000D01*
G01Y-270000D01*
G03X-380000Y-290000I20000J0D01*
G01X600000D01*
G03X620000Y-270000I0J20000D01*
G01X675500Y-275170D02*
Y228500D01*
X1159100D01*
Y-275170D01*
X675500D01*
G01Y-236200D02*
X1159100D01*
G01X675500Y-197230D02*
X1159100D01*
G01X675500Y-158260D02*
X1159100D01*
G01X675500Y-119290D02*
X1159100D01*
G01X675500Y-80320D02*
X1159100D01*
G01X675500Y-41350D02*
X1159100D01*
G01X675500Y-2380D02*
X1159100D01*
G01X675500Y36590D02*
X1159100D01*
G01X675500Y75560D02*
X1159100D01*
G01X675500Y114530D02*
X1159100D01*
G01X675500Y153500D02*
X1159100D01*
G01X675500Y178500D02*
X1159100D01*
G01X675500Y203500D02*
X1159100D01*
G01X765400Y178500D02*
Y-275170D01*
G01X954500Y178500D02*
Y-275170D01*
G01X1081600Y178500D02*
Y-275170D01*
M02*
