G04 ================== begin FILE IDENTIFICATION RECORD ==================*
G04 Layout Name:  D:/winprj/orcad/美容护理/水床18/电源/pcb/pcb.brd*
G04 Film Name:    PASTEMASK_BOTTOM*
G04 File Format:  Gerber RS274X*
G04 File Origin:  Cadence Allegro 16.6-2015-S108*
G04 Origin Date:  Wed Oct 17 13:30:20 2018*
G04 *
G04 Layer:  VIA CLASS/PASTEMASK_BOTTOM*
G04 Layer:  PIN/PASTEMASK_BOTTOM*
G04 Layer:  PACKAGE GEOMETRY/PASTEMASK_BOTTOM*
G04 *
G04 Offset:    (0.0 0.0)*
G04 Mirror:    No*
G04 Mode:      Positive*
G04 Rotation:  0*
G04 FullContactRelief:  No*
G04 UndefLineWidth:     6.0*
G04 ================== end FILE IDENTIFICATION RECORD ====================*
%FSLAX25Y25*MOIN*%
%IR0*IPPOS*OFA0.00000B0.00000*MIA0B0*SFA1.00000B1.00000*%
%ADD12C,.1181*%
%ADD14C,.1575*%
%ADD10C,.063*%
%ADD15R,.315X.1575*%
%ADD13C,.0571*%
%ADD16R,.1575X.315*%
%ADD11C,.0709*%
%ADD18C,.0945*%
%ADD17C,.0787*%
%LPD*%
G75*
G54D10*
X-370000Y120000D03*
Y140000D03*
Y160000D03*
Y180000D03*
Y200000D03*
Y220000D03*
X-350000Y-120000D03*
Y-100000D03*
Y-80000D03*
Y-60000D03*
Y-40000D03*
Y-20000D03*
Y0D03*
Y120000D03*
Y140000D03*
Y160000D03*
Y180000D03*
Y200000D03*
Y220000D03*
X-330000Y-120000D03*
Y-100000D03*
Y-80000D03*
Y-60000D03*
Y-20000D03*
Y0D03*
Y120000D03*
Y140000D03*
Y160000D03*
Y200000D03*
Y220000D03*
Y240000D03*
Y260000D03*
X-310000Y-120000D03*
Y-100000D03*
Y-80000D03*
Y-60000D03*
Y-40000D03*
Y-20000D03*
Y0D03*
Y120000D03*
Y140000D03*
Y160000D03*
Y180000D03*
Y200000D03*
Y220000D03*
Y240000D03*
Y260000D03*
X-290000Y-80000D03*
Y-60000D03*
Y-40000D03*
Y-20000D03*
Y0D03*
Y140000D03*
Y160000D03*
Y180000D03*
Y200000D03*
Y220000D03*
Y240000D03*
Y260000D03*
X-125000Y195000D03*
Y225000D03*
X-115000Y195000D03*
Y225000D03*
X-105000Y195000D03*
Y225000D03*
X-95000Y195000D03*
Y225000D03*
X-85000Y195000D03*
Y225000D03*
X-75000Y195000D03*
Y225000D03*
X-65000Y195000D03*
Y225000D03*
X-55000Y195000D03*
Y225000D03*
X160000Y10750D03*
Y29250D03*
Y170750D03*
Y189250D03*
X200000Y-95250D03*
Y-76750D03*
X453620Y-55000D03*
Y-45000D03*
Y-35000D03*
Y-25000D03*
Y-15000D03*
Y-5000D03*
Y5000D03*
Y15000D03*
Y35000D03*
Y45000D03*
Y55000D03*
Y65000D03*
Y75000D03*
Y85000D03*
Y95000D03*
Y105000D03*
Y125000D03*
Y135000D03*
Y145000D03*
Y155000D03*
Y165000D03*
Y175000D03*
Y185000D03*
Y195000D03*
X506380Y-55000D03*
Y-45000D03*
Y-35000D03*
Y-25000D03*
Y-15000D03*
Y-5000D03*
Y5000D03*
Y15000D03*
Y35000D03*
Y45000D03*
Y55000D03*
Y65000D03*
Y75000D03*
Y85000D03*
Y95000D03*
Y105000D03*
Y125000D03*
Y135000D03*
Y145000D03*
Y155000D03*
Y165000D03*
Y175000D03*
Y185000D03*
Y195000D03*
X530750Y5000D03*
Y95000D03*
Y185000D03*
X549250Y5000D03*
Y95000D03*
Y185000D03*
G54D11*
X-352000Y-250000D03*
X-332000D03*
X-312000D03*
X-292000D03*
X-290000Y-180000D03*
Y-100000D03*
Y40000D03*
Y120000D03*
X-272000Y-250000D03*
X-260000Y-170000D03*
Y-110000D03*
Y50000D03*
Y110000D03*
X-252000Y-250000D03*
X-220000Y-65000D03*
Y-15000D03*
Y155000D03*
Y205000D03*
X-200000Y-65000D03*
Y-15000D03*
Y155000D03*
Y205000D03*
X-110080Y-70000D03*
Y120000D03*
X-69920Y-70000D03*
Y120000D03*
X390000Y-260000D03*
X410000D03*
X430000D03*
X450000D03*
X470000D03*
X490000D03*
X592000Y212000D03*
Y232000D03*
G54D12*
X-250310Y-61750D03*
Y-40000D03*
Y-18250D03*
Y158250D03*
Y180000D03*
Y201750D03*
X-125040Y-159760D03*
Y-129840D03*
Y30240D03*
Y60160D03*
X-90000Y-60000D03*
Y130000D03*
X-54960Y-120000D03*
Y70000D03*
X188190Y-9760D03*
Y44570D03*
Y150240D03*
Y204570D03*
X411810Y-9760D03*
Y44570D03*
Y150240D03*
Y204570D03*
G54D13*
X-220000Y5000D03*
Y35000D03*
Y225000D03*
Y255000D03*
X-210000Y5000D03*
Y35000D03*
Y225000D03*
Y255000D03*
X-200000Y5000D03*
Y35000D03*
Y225000D03*
Y255000D03*
X185000Y-175000D03*
Y-165000D03*
Y-155000D03*
Y-145000D03*
X200000Y-250000D03*
Y-210000D03*
X214000Y-250000D03*
Y-210000D03*
X215000Y-175000D03*
Y-165000D03*
Y-155000D03*
Y-145000D03*
X451870Y228760D03*
Y276000D03*
G54D14*
X-203230Y-236000D03*
X-166610D03*
X-130000D03*
X-93390D03*
X-56770D03*
X12770D03*
X49390D03*
X86000D03*
X122610D03*
X159230D03*
G54D15*
X31850Y-145630D03*
Y-74370D03*
Y4370D03*
Y75630D03*
Y154370D03*
Y225630D03*
X88150Y-74370D03*
Y75630D03*
Y225630D03*
G54D16*
X95630Y-138150D03*
Y11850D03*
Y161850D03*
G54D17*
X236540Y-218740D03*
Y-61260D03*
X303460Y-218740D03*
Y-61260D03*
X336540Y-218740D03*
Y-61260D03*
X403460Y-218740D03*
Y-61260D03*
X527500Y-250000D03*
X542500D03*
X557500D03*
X572500D03*
X580000Y-45000D03*
Y-30000D03*
Y-15000D03*
Y0D03*
Y45000D03*
Y60000D03*
Y75000D03*
Y90000D03*
Y135000D03*
Y150000D03*
Y165000D03*
Y180000D03*
G54D18*
X444000Y252380D03*
X499120Y228760D03*
Y276000D03*
M02*
