M48
INCH,TZ
T01C.0709
T02C.0472
T03C.0394
T04C.0335
T05C.0315
T06C.0197
T07C.1969
T08C.1575
;LEADER: 12 
;HEADER: 
;CODE  : ASCII 
;FILE  : pcb-1-2.drl for  ... layers TOP and BOTTOM
;DESIGN: pcb.brd
;T01 Holesize 1. = 70.900000 Tolerance = +0.000000/-0.000000 PLATED MILS Quantity = 32
;T02 Holesize 2. = 47.200000 Tolerance = +0.000000/-0.000000 PLATED MILS Quantity = 17
;T03 Holesize 3. = 39.400000 Tolerance = +0.000000/-0.000000 PLATED MILS Quantity = 44
;T04 Holesize 4. = 33.500000 Tolerance = +0.000000/-0.000000 PLATED MILS Quantity = 26
;T05 Holesize 5. = 31.500000 Tolerance = +0.000000/-0.000000 PLATED MILS Quantity = 135
;T06 Holesize 6. = 19.700000 Tolerance = +0.000000/-0.000000 PLATED MILS Quantity = 47
;T07 Holesize 7. = 196.900000 Tolerance = +0.000000/-0.000000 NON_PLATED MILS Quantity = 9
;T08 Holesize 8. = 157.500000 Tolerance = +0.000000/-0.000000 NON_PLATED MILS Quantity = 8
%
G90
T01
X-250310Y158250
R02Y21750
X-250310Y-61750
R02Y21750
X-203230Y-236000
X-166610Y-236000
X-130000Y-236000
X-93390Y-236000
X-56770Y-236000
X-54960Y70000
X-125040Y60160
X-125040Y30240
X-90000Y130000
X-54960Y-120000
X-125040Y-129840
X-125040Y-159760
X-90000Y-60000
X12770Y-236000
X49390Y-236000
X86000Y-236000
X122610Y-236000
X159230Y-236000
X188190Y150240
X188190Y204570
X411810Y150240
X411810Y204570
X188190Y-9760
X188190Y44570
X411810Y-9760
X411810Y44570
T02
X-352000Y-250000
R05X20000
X390000Y-260000
R05X20000
X444000Y252380
X499120Y228760
X499120Y276000
X592000Y232000
X592000Y212000
T03
X-220000Y155000
X-220000Y205000
X-260000Y110000
X-260000Y50000
X-290000Y120000
X-290000Y40000
X-220000Y-65000
X-220000Y-15000
X-260000Y-110000
X-260000Y-170000
X-290000Y-100000
X-290000Y-180000
X-200000Y-65000
X-200000Y-15000
X-200000Y155000
X-200000Y205000
X-69920Y120000
X-110080Y120000
X-69920Y-70000
X-110080Y-70000
X303460Y-61260
X236540Y-61260
X303460Y-218740
X236540Y-218740
X403460Y-61260
X336540Y-61260
X403460Y-218740
X336540Y-218740
X580000Y135000
R03Y15000
X580000Y45000
R03Y15000
X580000Y-45000
R03Y15000
X527500Y-250000
R03X15000
T04
X-200000Y255000
R02X-10000
X-220000Y225000
R02X10000
X-200000Y35000
R02X-10000
X-220000Y5000
R02X10000
X214000Y-250000
X214000Y-210000
X200000Y-250000
X200000Y-210000
X185000Y-145000
R03Y-10000
X215000Y-175000
R03Y10000
X451870Y276000
X451870Y228760
T05
X-55000Y225000
R07X-10000
X-125000Y195000
R07X10000
X-350000Y200000
R03X20000
X-370000Y200000
X-350000Y220000
R03X20000
X-310000Y240000
X-290000Y240000
X-310000Y260000
X-290000Y260000
X-330000Y260000
X-330000Y240000
X-370000Y220000
X-370000Y180000
X-370000Y160000
R02Y-20000
X-350000Y140000
X-350000Y120000
X-330000Y140000
X-330000Y120000
X-310000Y140000
X-310000Y120000
X-290000Y140000
X-350000Y180000
X-310000Y180000
X-290000Y180000
X-350000Y160000
R03X20000
X-350000Y-40000
X-350000Y-20000
X-350000Y-60000
R03Y-20000
X-330000Y-120000
R03Y20000
X-330000Y-20000
X-310000Y-20000
X-310000Y-40000
R04Y-20000
X-290000Y-80000
R04Y20000
X-310000Y0
R02X-20000
X160000Y170750
X160000Y189250
X160000Y10750
X160000Y29250
X200000Y-95250
X200000Y-76750
X453620Y15000
R07Y-10000
X506380Y-55000
R07Y10000
X453620Y105000
R07Y-10000
X506380Y35000
R07Y10000
X453620Y195000
R07Y-10000
X506380Y125000
R07Y10000
X549250Y185000
X530750Y185000
X549250Y95000
X530750Y95000
X549250Y5000
X530750Y5000
T06
X491000Y-59500
X502890Y-85000
X491080Y-148580
X455000Y-142000
X557000Y-108000
X516260Y-111760
X554000Y-113500
X527000Y-120500
X460000Y-166000
X466110Y-140890
X580500Y-151500
X438000Y-230000
X474000Y-230000
X438000Y-218000
X474000Y-218000
X438000Y-206000
X474000Y-206000
X448000Y-156500
X474500Y-112000
X523000Y-85000
X527500Y-271500
X244690Y-253310
X483200Y-166000
X535830Y-149170
X469000Y-156500
X469000Y-183500
X337190Y-266690
X511500Y-183500
X486000Y-62000
X497500Y-85000
X508500Y-85000
X495500Y-57000
X557500Y-203000
X526920Y-127080
X480920Y-138920
X501000Y-178000
X546500Y-196000
X510500Y-133020
X510500Y-138920
X424000Y-128000
X526950Y-133050
X550000Y-203000
X516500Y-85000
X500000Y-62000
X-130000Y-280000
X-138000Y-280000
X-122000Y-280000
T07
X-380000Y-270000
X-380000Y270000
X-333780Y180000
X-333780Y-40000
X60000Y-110000
R02Y150000
X600000Y-270000
X600000Y270000
T08
X193700Y128980
X406300Y128980
X406300Y251020
X193700Y251020
X193700Y-31020
X406300Y-31020
X406300Y91020
X193700Y91020
M30
