G04 ================== begin FILE IDENTIFICATION RECORD ==================*
G04 Layout Name:  D:/winprj/orcad/美容护理/水床18/电源/pcb/pcb.brd*
G04 Film Name:    SOLDERMASK_BOTTOM*
G04 File Format:  Gerber RS274X*
G04 File Origin:  Cadence Allegro 16.6-2015-S108*
G04 Origin Date:  Wed Oct 17 13:30:20 2018*
G04 *
G04 Layer:  VIA CLASS/SOLDERMASK_BOTTOM*
G04 Layer:  PIN/SOLDERMASK_BOTTOM*
G04 Layer:  PACKAGE GEOMETRY/SOLDERMASK_BOTTOM*
G04 Layer:  BOARD GEOMETRY/SOLDERMASK_BOTTOM*
G04 *
G04 Offset:    (0.0 0.0)*
G04 Mirror:    No*
G04 Mode:      Positive*
G04 Rotation:  0*
G04 FullContactRelief:  No*
G04 UndefLineWidth:     6.0*
G04 ================== end FILE IDENTIFICATION RECORD ====================*
%FSLAX25Y25*MOIN*%
%IR0*IPPOS*OFA0.00000B0.00000*MIA0B0*SFA1.00000B1.00000*%
%ADD12C,.122*%
%ADD14C,.1614*%
%ADD13C,.061*%
%ADD17C,.0827*%
%ADD15R,.3189X.1614*%
%ADD11C,.0748*%
%ADD16R,.1614X.3189*%
%ADD18C,.0984*%
%ADD10C,.0669*%
%ADD19C,.06*%
G75*
%LPD*%
G75*
G36*
G01X-330000Y280000D02*
X-340000Y270000D01*
Y240000D01*
X-350000Y230000D01*
X-380000D01*
X-390000Y220000D01*
Y-210000D01*
X-380000Y-220000D01*
X-230000D01*
X-220000Y-230000D01*
Y-246000D01*
X-218000Y-248000D01*
X-196000D01*
X-194000Y-246000D01*
Y-194000D01*
Y-114000D01*
X-150000Y-70000D01*
Y70000D01*
X-140000Y80000D01*
X-100000D01*
X-70000Y50000D01*
X-50000D01*
X-40000Y60000D01*
Y90000D01*
X-50000Y100000D01*
X-82000D01*
X-84000Y102000D01*
Y136000D01*
X-86000Y138000D01*
X-94000D01*
X-96000Y136000D01*
Y102000D01*
X-98000Y100000D01*
X-160000D01*
X-170000Y90000D01*
Y-60000D01*
X-230000Y-120000D01*
Y-190000D01*
X-240000Y-200000D01*
X-300000D01*
X-310000Y-190000D01*
Y-160000D01*
X-300000Y-150000D01*
X-280000Y-130000D01*
Y-100000D01*
X-270000Y-90000D01*
Y10000D01*
X-280000Y20000D01*
X-300000D01*
X-310000Y30000D01*
Y50000D01*
X-300000Y60000D01*
X-284000D01*
X-280000Y64000D01*
Y120000D01*
X-270000Y130000D01*
Y270000D01*
X-280000Y280000D01*
X-330000D01*
G37*
G36*
G01X-350000Y-244000D02*
X-354000D01*
X-356000Y-246000D01*
Y-254000D01*
X-354000Y-256000D01*
X-350000D01*
X-348000Y-254000D01*
Y-246000D01*
X-350000Y-244000D01*
G37*
G36*
G01X-94000Y-52000D02*
X-86000D01*
X-84000Y-54000D01*
Y-88000D01*
X-82000Y-90000D01*
X-60000D01*
X-40000Y-110000D01*
Y-120000D01*
X-50000Y-130000D01*
X-60000D01*
X-80000Y-110000D01*
X-130000D01*
X-156000Y-136000D01*
Y-246000D01*
Y-278000D01*
X-162000Y-284000D01*
X-334000D01*
X-336000Y-282000D01*
Y-246000D01*
X-334000Y-244000D01*
X-330000D01*
X-328000Y-246000D01*
Y-268000D01*
X-326000Y-270000D01*
X-278000D01*
X-276000Y-268000D01*
Y-246000D01*
X-274000Y-244000D01*
X-270000D01*
X-268000Y-246000D01*
Y-268000D01*
X-266000Y-270000D01*
X-184000D01*
X-180000Y-266000D01*
Y-246000D01*
Y-130000D01*
X-140000Y-90000D01*
X-98000D01*
X-96000Y-88000D01*
Y-54000D01*
X-94000Y-52000D01*
G37*
G36*
G01X-314000Y-256000D02*
X-310000D01*
X-308000Y-254000D01*
Y-246000D01*
X-310000Y-244000D01*
X-314000D01*
X-316000Y-246000D01*
Y-254000D01*
X-314000Y-256000D01*
G37*
G36*
G01X-296000Y-246000D02*
X-294000Y-244000D01*
X-290000D01*
X-288000Y-246000D01*
Y-254000D01*
X-290000Y-256000D01*
X-294000D01*
X-296000Y-254000D01*
Y-246000D01*
G37*
G36*
G01X-254000Y-244000D02*
X-250000D01*
X-248000Y-246000D01*
Y-254000D01*
X-250000Y-256000D01*
X-254000D01*
X-256000Y-254000D01*
Y-246000D01*
X-254000Y-244000D01*
G37*
G54D10*
X-370000Y120000D03*
Y140000D03*
Y160000D03*
Y180000D03*
Y200000D03*
Y220000D03*
X-350000Y-120000D03*
Y-100000D03*
Y-80000D03*
Y-60000D03*
Y-40000D03*
Y-20000D03*
Y0D03*
Y120000D03*
Y140000D03*
Y160000D03*
Y180000D03*
Y200000D03*
Y220000D03*
X-330000Y-120000D03*
Y-100000D03*
Y-80000D03*
Y-60000D03*
Y-20000D03*
Y0D03*
Y120000D03*
Y140000D03*
Y160000D03*
Y200000D03*
Y220000D03*
Y240000D03*
Y260000D03*
X-310000Y-120000D03*
Y-100000D03*
Y-80000D03*
Y-60000D03*
Y-40000D03*
Y-20000D03*
Y0D03*
Y120000D03*
Y140000D03*
Y160000D03*
Y180000D03*
Y200000D03*
Y220000D03*
Y240000D03*
Y260000D03*
X-290000Y-80000D03*
Y-60000D03*
Y-40000D03*
Y-20000D03*
Y0D03*
Y140000D03*
Y160000D03*
Y180000D03*
Y200000D03*
Y220000D03*
Y240000D03*
Y260000D03*
X-125000Y195000D03*
Y225000D03*
X-115000Y195000D03*
Y225000D03*
X-105000Y195000D03*
Y225000D03*
X-95000Y195000D03*
Y225000D03*
X-85000Y195000D03*
Y225000D03*
X-75000Y195000D03*
Y225000D03*
X-65000Y195000D03*
Y225000D03*
X-55000Y195000D03*
Y225000D03*
X160000Y10750D03*
Y29250D03*
Y170750D03*
Y189250D03*
X200000Y-95250D03*
Y-76750D03*
X453620Y-55000D03*
Y-45000D03*
Y-35000D03*
Y-25000D03*
Y-15000D03*
Y-5000D03*
Y5000D03*
Y15000D03*
Y35000D03*
Y45000D03*
Y55000D03*
Y65000D03*
Y75000D03*
Y85000D03*
Y95000D03*
Y105000D03*
Y125000D03*
Y135000D03*
Y145000D03*
Y155000D03*
Y165000D03*
Y175000D03*
Y185000D03*
Y195000D03*
X506380Y-55000D03*
Y-45000D03*
Y-35000D03*
Y-25000D03*
Y-15000D03*
Y-5000D03*
Y5000D03*
Y15000D03*
Y35000D03*
Y45000D03*
Y55000D03*
Y65000D03*
Y75000D03*
Y85000D03*
Y95000D03*
Y105000D03*
Y125000D03*
Y135000D03*
Y145000D03*
Y155000D03*
Y165000D03*
Y175000D03*
Y185000D03*
Y195000D03*
X530750Y5000D03*
Y95000D03*
Y185000D03*
X549250Y5000D03*
Y95000D03*
Y185000D03*
G54D11*
X-352000Y-250000D03*
X-332000D03*
X-312000D03*
X-292000D03*
X-290000Y-180000D03*
Y-100000D03*
Y40000D03*
Y120000D03*
X-272000Y-250000D03*
X-260000Y-170000D03*
Y-110000D03*
Y50000D03*
Y110000D03*
X-252000Y-250000D03*
X-220000Y-65000D03*
Y-15000D03*
Y155000D03*
Y205000D03*
X-200000Y-65000D03*
Y-15000D03*
Y155000D03*
Y205000D03*
X-110080Y-70000D03*
Y120000D03*
X-69920Y-70000D03*
Y120000D03*
X390000Y-260000D03*
X410000D03*
X430000D03*
X450000D03*
X470000D03*
X490000D03*
X592000Y212000D03*
Y232000D03*
G54D12*
X-250310Y-61750D03*
Y-40000D03*
Y-18250D03*
Y158250D03*
Y180000D03*
Y201750D03*
X-125040Y-159760D03*
Y-129840D03*
Y30240D03*
Y60160D03*
X-90000Y-60000D03*
Y130000D03*
X-54960Y-120000D03*
Y70000D03*
X188190Y-9760D03*
Y44570D03*
Y150240D03*
Y204570D03*
X411810Y-9760D03*
Y44570D03*
Y150240D03*
Y204570D03*
G54D13*
X-220000Y5000D03*
Y35000D03*
Y225000D03*
Y255000D03*
X-210000Y5000D03*
Y35000D03*
Y225000D03*
Y255000D03*
X-200000Y5000D03*
Y35000D03*
Y225000D03*
Y255000D03*
X185000Y-175000D03*
Y-165000D03*
Y-155000D03*
Y-145000D03*
X200000Y-250000D03*
Y-210000D03*
X214000Y-250000D03*
Y-210000D03*
X215000Y-175000D03*
Y-165000D03*
Y-155000D03*
Y-145000D03*
X451870Y228760D03*
Y276000D03*
G54D14*
X-203230Y-236000D03*
X-166610D03*
X-130000D03*
X-93390D03*
X-56770D03*
X12770D03*
X49390D03*
X86000D03*
X122610D03*
X159230D03*
G54D15*
X31850Y-145630D03*
Y-74370D03*
Y4370D03*
Y75630D03*
Y154370D03*
Y225630D03*
X88150Y-74370D03*
Y75630D03*
Y225630D03*
G54D16*
X95630Y-138150D03*
Y11850D03*
Y161850D03*
G54D17*
X236540Y-218740D03*
Y-61260D03*
X303460Y-218740D03*
Y-61260D03*
X336540Y-218740D03*
Y-61260D03*
X403460Y-218740D03*
Y-61260D03*
X527500Y-250000D03*
X542500D03*
X557500D03*
X572500D03*
X580000Y-45000D03*
Y-30000D03*
Y-15000D03*
Y0D03*
Y45000D03*
Y60000D03*
Y75000D03*
Y90000D03*
Y135000D03*
Y150000D03*
Y165000D03*
Y180000D03*
G54D18*
X444000Y252380D03*
X499120Y228760D03*
Y276000D03*
G54D19*
G01X412000Y44500D02*
X437000Y69500D01*
Y107000D01*
X444500Y114500D01*
X471000D01*
X490500Y95000D01*
X506500D01*
G01X412500Y-9500D02*
Y12500D01*
X425000Y25000D01*
X496500D01*
X506500Y15000D01*
M02*
