G04 ================== begin FILE IDENTIFICATION RECORD ==================*
G04 Layout Name:  D:/winprj/orcad/美容护理/水床18/电源/pcb/pcb.brd*
G04 Film Name:    TOP*
G04 File Format:  Gerber RS274X*
G04 File Origin:  Cadence Allegro 16.6-2015-S108*
G04 Origin Date:  Wed Oct 17 13:30:20 2018*
G04 *
G04 Layer:  VIA CLASS/TOP*
G04 Layer:  PIN/TOP*
G04 Layer:  ETCH/TOP*
G04 *
G04 Offset:    (0.0 0.0)*
G04 Mirror:    No*
G04 Mode:      Positive*
G04 Rotation:  0*
G04 FullContactRelief:  No*
G04 UndefLineWidth:     6.0*
G04 ================== end FILE IDENTIFICATION RECORD ====================*
%FSLAX25Y25*MOIN*%
%IR0*IPPOS*OFA0.00000B0.00000*MIA0B0*SFA1.00000B1.00000*%
%ADD12R,.9449X.6299*%
%ADD14C,.1181*%
%ADD22R,.1024X.0374*%
%ADD30R,.1181X.0472*%
%ADD16C,.1575*%
%ADD28O,.0098X.0531*%
%ADD27O,.0531X.0098*%
%ADD24R,.0846X.128*%
%ADD10C,.1969*%
%ADD11C,.063*%
%ADD29R,.0236X.0551*%
%ADD18R,.315X.1575*%
%ADD15C,.0571*%
%ADD19R,.1575X.315*%
%ADD20R,.0295X.0531*%
%ADD17C,.0394*%
%ADD13C,.0709*%
%ADD26R,.0531X.0295*%
%ADD25C,.0945*%
%ADD21C,.0787*%
%ADD23R,.0846X.0374*%
%ADD31C,.2*%
%ADD32C,.12*%
%ADD33C,.16*%
%ADD34C,.01*%
%ADD35C,.02*%
%ADD36C,.03*%
%ADD37C,.04*%
%ADD38C,.08*%
G75*
%LPD*%
G75*
G36*
G01X-270000Y140000D02*
Y150000D01*
Y270000D01*
X-280000Y280000D01*
X-330000D01*
X-340000Y270000D01*
Y240000D01*
X-350000Y230000D01*
X-370000D01*
X-380000D01*
X-390000Y220000D01*
Y130000D01*
Y120000D01*
Y110000D01*
X-380000Y100000D01*
X-300000D01*
X-290000Y110000D01*
X-270000Y130000D01*
Y140000D01*
G37*
G36*
G01X-350000Y-130000D02*
X-310000D01*
X-270000Y-90000D01*
Y10000D01*
X-280000Y20000D01*
X-310000D01*
X-350000D01*
X-360000Y10000D01*
X-366000Y4000D01*
Y-118000D01*
X-354000Y-130000D01*
X-350000D01*
G37*
G36*
G01X-200710Y38330D02*
X-202010Y37010D01*
X-200000Y34750D01*
X-197990Y37010D01*
X-199290Y38330D01*
G03X-200710I-710J-710D01*
G37*
G36*
G01Y258330D02*
X-202010Y257010D01*
X-200000Y254750D01*
X-197990Y257010D01*
X-199290Y258330D01*
G03X-200710I-710J-710D01*
G37*
G36*
G01X-110000Y70000D02*
Y54000D01*
X-114000Y50000D01*
X-140000D01*
X-150000Y40000D01*
Y10000D01*
X-140000Y0D01*
Y-100000D01*
X-150000Y-110000D01*
Y-170000D01*
X-138000Y-182000D01*
X-94000D01*
X-86000Y-190000D01*
X-82000Y-194000D01*
Y-244000D01*
X-84000Y-246000D01*
X-104000D01*
X-106000Y-244000D01*
Y-214000D01*
X-110000Y-210000D01*
X-160000D01*
X-170000Y-200000D01*
X-180000Y-190000D01*
Y70000D01*
X-170000Y80000D01*
X-114000D01*
X-110000Y76000D01*
Y70000D01*
G37*
G36*
G01X-66000Y-190000D02*
Y-244000D01*
X-64000Y-246000D01*
X-36000D01*
X-34000Y-244000D01*
Y-176000D01*
X-40000Y-170000D01*
X-90000Y-120000D01*
X-130000D01*
X-134000Y-124000D01*
Y-136000D01*
Y-140000D01*
X-130000Y-144000D01*
X-112000D01*
X-110000Y-146000D01*
X-66000Y-190000D01*
G37*
G36*
G01X-65710Y228750D02*
X-67220Y227220D01*
X-65000Y224750D01*
X-62780Y227220D01*
X-64290Y228750D01*
G03X-65710I-710J-710D01*
G37*
G36*
G01X-55710D02*
X-57220Y227220D01*
X-55000Y224750D01*
X-52780Y227220D01*
X-54290Y228750D01*
G03X-55710I-710J-710D01*
G37*
G36*
G01X189970Y-132070D02*
X191140Y-130660D01*
X189670Y-127750D01*
X188200Y-130660D01*
X189370Y-132070D01*
G03X189970I300J950D01*
G37*
G36*
G01X201700Y-128530D02*
X204200Y-130660D01*
X205920Y-128000D01*
X204200Y-125340D01*
X201700Y-127470D01*
G03Y-128530I850J-530D01*
G37*
G36*
G01X202300Y-127470D02*
X199800Y-125340D01*
X198080Y-128000D01*
X199800Y-130660D01*
X202300Y-128530D01*
G03Y-127470I-850J530D01*
G37*
G36*
G01X208880Y-144290D02*
X206370Y-141790D01*
X205420Y-144000D01*
Y-146000D01*
X206370Y-148210D01*
X208880Y-145710D01*
G03Y-144290I-710J710D01*
G37*
G36*
G01X205970Y-132070D02*
X207140Y-130660D01*
X205670Y-127750D01*
X204200Y-130660D01*
X205370Y-132070D01*
G03X205970I300J950D01*
G37*
G36*
G01X211670Y-165710D02*
X212990Y-167010D01*
X215250Y-165000D01*
X212990Y-162990D01*
X211670Y-164290D01*
G03Y-165710I710J-710D01*
G37*
G36*
G01Y-145710D02*
X212990Y-147010D01*
X215250Y-145000D01*
X212990Y-142990D01*
X211670Y-144290D01*
G03Y-145710I710J-710D01*
G37*
G36*
G01X218300Y-127470D02*
X215800Y-125340D01*
X214080Y-128000D01*
X215800Y-130660D01*
X218300Y-128530D01*
G03Y-127470I-850J530D01*
G37*
G36*
G01X421920Y-128710D02*
X422610Y-129380D01*
X424250Y-128000D01*
X422610Y-126620D01*
X421920Y-127290D01*
G03Y-128710I710J-710D01*
G37*
G36*
G01X449200Y-157030D02*
X451700Y-159160D01*
X453420Y-156500D01*
X451700Y-153840D01*
X449200Y-155970D01*
G03Y-157030I850J-530D01*
G37*
G36*
G01X450080Y-155790D02*
X449390Y-155120D01*
X447750Y-156500D01*
X449390Y-157880D01*
X450080Y-157210D01*
G03Y-155790I-710J710D01*
G37*
G36*
G01X453030Y-140530D02*
Y-142000D01*
X455090Y-142090D01*
X455000Y-140030D01*
X453530D01*
G03X453030Y-140530I0J-500D01*
G37*
G36*
G01X456770Y-57650D02*
Y-55000D01*
X453530Y-54910D01*
X453620Y-58150D01*
X456270D01*
G03X456770Y-57650I0J500D01*
G37*
G36*
G01X450470Y-42350D02*
Y-45000D01*
X453710Y-45090D01*
X453620Y-41850D01*
X450970D01*
G03X450470Y-42350I0J-500D01*
G37*
G36*
G01X456770Y-37650D02*
Y-35000D01*
X453530Y-34910D01*
X453620Y-38150D01*
X456270D01*
G03X456770Y-37650I0J500D01*
G37*
G36*
G01Y-27650D02*
Y-25000D01*
X453530Y-24910D01*
X453620Y-28150D01*
X456270D01*
G03X456770Y-27650I0J500D01*
G37*
G36*
G01X457720Y-14650D02*
X455850Y-12780D01*
X453500Y-15000D01*
X455850Y-17220D01*
X457720Y-15350D01*
G03Y-14650I-350J350D01*
G37*
G36*
G01X456770Y-7650D02*
Y-5000D01*
X453530Y-4910D01*
X453620Y-8150D01*
X456270D01*
G03X456770Y-7650I0J500D01*
G37*
G36*
G01Y2350D02*
Y5000D01*
X453530Y5090D01*
X453620Y1850D01*
X456270D01*
G03X456770Y2350I0J500D01*
G37*
G36*
G01Y32350D02*
Y35000D01*
X453530Y35090D01*
X453620Y31850D01*
X456270D01*
G03X456770Y32350I0J500D01*
G37*
G36*
G01X450970Y41850D02*
X453620D01*
X453710Y45090D01*
X450470Y45000D01*
Y42350D01*
G03X450970Y41850I500J0D01*
G37*
G36*
G01X456770Y52350D02*
Y55000D01*
X453530Y55090D01*
X453620Y51850D01*
X456270D01*
G03X456770Y52350I0J500D01*
G37*
G36*
G01Y62350D02*
Y65000D01*
X453530Y65090D01*
X453620Y61850D01*
X456270D01*
G03X456770Y62350I0J500D01*
G37*
G36*
G01Y72350D02*
Y75000D01*
X453530Y75090D01*
X453620Y71850D01*
X456270D01*
G03X456770Y72350I0J500D01*
G37*
G36*
G01Y82350D02*
Y85000D01*
X453530Y85090D01*
X453620Y81850D01*
X456270D01*
G03X456770Y82350I0J500D01*
G37*
G36*
G01Y92350D02*
Y95000D01*
X453530Y95090D01*
X453620Y91850D01*
X456270D01*
G03X456770Y92350I0J500D01*
G37*
G36*
G01X450970Y121850D02*
X453620D01*
X453710Y125090D01*
X450470Y125000D01*
Y122350D01*
G03X450970Y121850I500J0D01*
G37*
G36*
G01X456770Y132350D02*
Y135000D01*
X453530Y135090D01*
X453620Y131850D01*
X456270D01*
G03X456770Y132350I0J500D01*
G37*
G36*
G01X450970Y141850D02*
X453620D01*
X453710Y145090D01*
X450470Y145000D01*
Y142350D01*
G03X450970Y141850I500J0D01*
G37*
G36*
G01Y151850D02*
X453620D01*
X453710Y155090D01*
X450470Y155000D01*
Y152350D01*
G03X450970Y151850I500J0D01*
G37*
G36*
G01Y161850D02*
X453620D01*
X453710Y165090D01*
X450470Y165000D01*
Y162350D01*
G03X450970Y161850I500J0D01*
G37*
G36*
G01Y171850D02*
X453620D01*
X453710Y175090D01*
X450470Y175000D01*
Y172350D01*
G03X450970Y171850I500J0D01*
G37*
G36*
G01Y181850D02*
X453620D01*
X453710Y185090D01*
X450470Y185000D01*
Y182350D01*
G03X450970Y181850I500J0D01*
G37*
G36*
G01X459970Y-234070D02*
X461140Y-232660D01*
X459670Y-229750D01*
X458200Y-232660D01*
X459370Y-234070D01*
G03X459970I300J950D01*
G37*
G36*
G01Y-222070D02*
X461140Y-220660D01*
X459670Y-217750D01*
X458200Y-220660D01*
X459370Y-222070D01*
G03X459970I300J950D01*
G37*
G36*
G01Y-210070D02*
X461140Y-208660D01*
X459670Y-205750D01*
X458200Y-208660D01*
X459370Y-210070D01*
G03X459970I300J950D01*
G37*
G36*
G01X462080Y-165290D02*
X461390Y-164620D01*
X459750Y-166000D01*
X461390Y-167380D01*
X462080Y-166710D01*
G03Y-165290I-710J710D01*
G37*
G36*
G01X460310Y-127840D02*
X462660Y-125300D01*
X460000Y-123700D01*
X457340Y-125300D01*
X459690Y-127840D01*
G03X460310I310J390D01*
G37*
G36*
G01X455930Y-115470D02*
X457340Y-116640D01*
X460250Y-115170D01*
X457340Y-113700D01*
X455930Y-114870D01*
G03Y-115470I950J-300D01*
G37*
G36*
G01X464070Y-114870D02*
X462660Y-113700D01*
X459750Y-115170D01*
X462660Y-116640D01*
X464070Y-115470D01*
G03Y-114870I-950J300D01*
G37*
G36*
G01X465800Y-155970D02*
X463300Y-153840D01*
X461580Y-156500D01*
X463300Y-159160D01*
X465800Y-157030D01*
G03Y-155970I-850J530D01*
G37*
G36*
G01X464140Y-139920D02*
Y-140890D01*
X466290Y-141070D01*
X466110Y-138920D01*
X465140D01*
G03X464140Y-139920I0J-1000D01*
G37*
G36*
G01X471080Y-155790D02*
X470390Y-155120D01*
X468750Y-156500D01*
X470390Y-157880D01*
X471080Y-157210D01*
G03Y-155790I-710J710D01*
G37*
G36*
G01X466920Y-157210D02*
X467610Y-157880D01*
X469250Y-156500D01*
X467610Y-155120D01*
X466920Y-155790D01*
G03Y-157210I710J-710D01*
G37*
G36*
G01X468540Y-140540D02*
X467500Y-139500D01*
X465980Y-140890D01*
X467500Y-142280D01*
X468540Y-141240D01*
G03Y-140540I-350J350D01*
G37*
G36*
G01X472420Y-112710D02*
X473110Y-113380D01*
X474750Y-112000D01*
X473110Y-110620D01*
X472420Y-111290D01*
G03Y-112710I710J-710D01*
G37*
G36*
G01X474150Y-109570D02*
X473110Y-110610D01*
X474500Y-112120D01*
X475890Y-110610D01*
X474850Y-109570D01*
G03X474150I-350J-350D01*
G37*
G36*
G01X481970Y-234070D02*
X483140Y-232660D01*
X481670Y-229750D01*
X480200Y-232660D01*
X481370Y-234070D01*
G03X481970I300J950D01*
G37*
G36*
G01Y-222070D02*
X483140Y-220660D01*
X481670Y-217750D01*
X480200Y-220660D01*
X481370Y-222070D01*
G03X481970I300J950D01*
G37*
G36*
G01Y-210070D02*
X483140Y-208660D01*
X481670Y-205750D01*
X480200Y-208660D01*
X481370Y-210070D01*
G03X481970I300J950D01*
G37*
G36*
G01X481120Y-166710D02*
X481810Y-167380D01*
X483450Y-166000D01*
X481810Y-164620D01*
X481120Y-165290D01*
G03Y-166710I710J-710D01*
G37*
G36*
G01X478490Y-139270D02*
X479530Y-140310D01*
X481040Y-138920D01*
X479530Y-137530D01*
X478490Y-138570D01*
G03Y-139270I350J-350D01*
G37*
G36*
G01X480890Y-117480D02*
X479480Y-118890D01*
X481240Y-119240D01*
Y-117830D01*
X480890Y-117480D01*
G37*
G36*
G01X482850Y-163570D02*
X481810Y-164610D01*
X483200Y-166120D01*
X484590Y-164610D01*
X483550Y-163570D01*
G03X482850I-350J-350D01*
G37*
G36*
G01X482000Y-122000D02*
Y-132000D01*
X486000Y-136000D01*
Y-137000D01*
Y-140500D01*
Y-141000D01*
X482000Y-145000D01*
Y-146000D01*
Y-147000D01*
X483000Y-148000D01*
X484000D01*
X485000D01*
Y-147000D01*
X488500Y-143500D01*
X489500D01*
X490500D01*
X491500D01*
X493000D01*
X493500D01*
X498000Y-148000D01*
X500000D01*
X508000D01*
X510000D01*
Y-146000D01*
X505000Y-141000D01*
Y-140000D01*
Y-139000D01*
Y-131500D01*
Y-130500D01*
X510000Y-125500D01*
Y-125000D01*
Y-124000D01*
Y-121500D01*
Y-120500D01*
X509000D01*
X506500D01*
X483500D01*
X482500D01*
X482000D01*
Y-121000D01*
Y-122000D01*
G37*
G36*
G01X485290Y-59920D02*
X484620Y-60610D01*
X486000Y-62250D01*
X487380Y-60610D01*
X486710Y-59920D01*
G03X485290I-710J-710D01*
G37*
G36*
G01X494300Y-229470D02*
X491800Y-227340D01*
X490080Y-230000D01*
X491800Y-232660D01*
X494300Y-230530D01*
G03Y-229470I-850J530D01*
G37*
G36*
G01X494340Y-217690D02*
X491800Y-215340D01*
X490200Y-218000D01*
X491800Y-220660D01*
X494340Y-218310D01*
G03Y-217690I-390J310D01*
G37*
G36*
G01X493910Y-205710D02*
X491790Y-203590D01*
X490200Y-206000D01*
X491790Y-208410D01*
X493910Y-206290D01*
G03Y-205710I-410J290D01*
G37*
G36*
G01X491430Y-151010D02*
X492470Y-149970D01*
X491080Y-148460D01*
X489690Y-149970D01*
X490730Y-151010D01*
G03X491430I350J350D01*
G37*
G36*
G01X490290Y-57420D02*
X489620Y-58110D01*
X491000Y-59750D01*
X492380Y-58110D01*
X491710Y-57420D01*
G03X490290I-710J-710D01*
G37*
G36*
G01X497850Y-87430D02*
X498890Y-86390D01*
X497500Y-84880D01*
X496110Y-86390D01*
X497150Y-87430D01*
G03X497850I350J350D01*
G37*
G36*
G01X494790Y-54920D02*
X494120Y-55610D01*
X495500Y-57250D01*
X496880Y-55610D01*
X496210Y-54920D01*
G03X494790I-710J-710D01*
G37*
G36*
G01X501710Y-180080D02*
X502380Y-179390D01*
X501000Y-177750D01*
X499620Y-179390D01*
X500290Y-180080D01*
G03X501710I710J710D01*
G37*
G36*
G01X503240Y-87430D02*
X504280Y-86390D01*
X502890Y-84880D01*
X501500Y-86390D01*
X502540Y-87430D01*
G03X503240I350J350D01*
G37*
G36*
G01X499290Y-59920D02*
X498620Y-60610D01*
X500000Y-62250D01*
X501380Y-60610D01*
X500710Y-59920D01*
G03X499290I-710J-710D01*
G37*
G36*
G01X508790Y-102910D02*
X510910Y-100790D01*
X508500Y-99200D01*
X506090Y-100790D01*
X508210Y-102910D01*
G03X508790I290J410D01*
G37*
G36*
G01X508190Y-86660D02*
X505840Y-89200D01*
X508500Y-90800D01*
X511160Y-89200D01*
X508810Y-86660D01*
G03X508190I-310J-390D01*
G37*
G36*
G01X508850Y-87430D02*
X509890Y-86390D01*
X508500Y-84880D01*
X507110Y-86390D01*
X508150Y-87430D01*
G03X508850I350J350D01*
G37*
G36*
G01X509530Y-47650D02*
Y-45000D01*
X506290Y-44910D01*
X506380Y-48150D01*
X509030D01*
G03X509530Y-47650I0J500D01*
G37*
G36*
G01Y42350D02*
Y45000D01*
X506290Y45090D01*
X506380Y41850D01*
X509030D01*
G03X509530Y42350I0J500D01*
G37*
G36*
G01Y132350D02*
Y135000D01*
X506290Y135090D01*
X506380Y131850D01*
X509030D01*
G03X509530Y132350I0J500D01*
G37*
G36*
G01X512470Y-181530D02*
X511500D01*
X511320Y-183680D01*
X513470Y-183500D01*
Y-182530D01*
G03X512470Y-181530I-1000J0D01*
G37*
G36*
G01X512930Y-138570D02*
X511890Y-137530D01*
X510380Y-138920D01*
X511890Y-140310D01*
X512930Y-139270D01*
G03Y-138570I-350J350D01*
G37*
G36*
G01Y-132670D02*
X511890Y-131630D01*
X510380Y-133020D01*
X511890Y-134410D01*
X512930Y-133370D01*
G03Y-132670I-350J350D01*
G37*
G36*
G01X513830Y-112110D02*
X514870Y-113150D01*
X516380Y-111760D01*
X514870Y-110370D01*
X513830Y-111410D01*
G03Y-112110I350J-350D01*
G37*
G36*
G01X516810Y-103340D02*
X519160Y-100800D01*
X516500Y-99200D01*
X513840Y-100800D01*
X516190Y-103340D01*
G03X516810I310J390D01*
G37*
G36*
G01X516190Y-86660D02*
X513840Y-89200D01*
X516500Y-90800D01*
X519160Y-89200D01*
X516810Y-86660D01*
G03X516190I-310J-390D01*
G37*
G36*
G01X516850Y-87430D02*
X517890Y-86390D01*
X516500Y-84880D01*
X515110Y-86390D01*
X516150Y-87430D01*
G03X516850I350J350D01*
G37*
G36*
G01X523160Y-156550D02*
X525700Y-158900D01*
X527300Y-156240D01*
X525700Y-153580D01*
X523160Y-155930D01*
G03Y-156550I390J-310D01*
G37*
G36*
G01X524810Y-103340D02*
X527160Y-100800D01*
X524500Y-99200D01*
X521840Y-100800D01*
X524190Y-103340D01*
G03X524810I310J390D01*
G37*
G36*
G01X526790Y-245140D02*
X524720Y-247220D01*
X527500Y-250250D01*
X530280Y-247220D01*
X528210Y-245140D01*
G03X526790I-710J-710D01*
G37*
G36*
G01X524980Y-131580D02*
Y-133050D01*
X527040Y-133140D01*
X526950Y-131080D01*
X525480D01*
G03X524980Y-131580I0J-500D01*
G37*
G36*
G01X525450Y-129050D02*
X526920D01*
X527010Y-126990D01*
X524950Y-127080D01*
Y-128550D01*
G03X525450Y-129050I500J0D01*
G37*
G36*
G01X525530Y-122470D02*
X527000D01*
X527090Y-120410D01*
X525030Y-120500D01*
Y-121970D01*
G03X525530Y-122470I500J0D01*
G37*
G36*
G01X538730Y-232770D02*
X541320Y-235000D01*
X542750Y-232240D01*
X541320Y-229480D01*
X538730Y-231710D01*
G03Y-232770I850J-530D01*
G37*
G36*
G01X536100Y-160280D02*
X537300Y-158900D01*
X535830Y-156120D01*
X534360Y-158900D01*
X535560Y-160280D01*
G03X536100I270J420D01*
G37*
G36*
G01X535560Y-152200D02*
X534360Y-153580D01*
X535830Y-156360D01*
X537300Y-153580D01*
X536100Y-152200D01*
G03X535560I-270J-420D01*
G37*
G36*
G01X536180Y-151600D02*
X537220Y-150560D01*
X535830Y-149040D01*
X534440Y-150560D01*
X535480Y-151600D01*
G03X536180I350J350D01*
G37*
G36*
G01X545440Y-246060D02*
X542500Y-246070D01*
X542320Y-250180D01*
X546430Y-250000D01*
X546440Y-247060D01*
G03X545440Y-246060I-1000J0D01*
G37*
G36*
G01X542370Y-207850D02*
X541320Y-209000D01*
X542500Y-212010D01*
X543680Y-209000D01*
X542630Y-207850D01*
G03X542370I-130J-990D01*
G37*
G36*
G01X547630Y-236150D02*
X548680Y-235000D01*
X547500Y-231990D01*
X546320Y-235000D01*
X547370Y-236150D01*
G03X547630I130J990D01*
G37*
G36*
G01X548730Y-212290D02*
X551320Y-214520D01*
X552750Y-211760D01*
X551320Y-209000D01*
X548730Y-211230D01*
G03Y-212290I850J-530D01*
G37*
G36*
G01X547630Y-215670D02*
X548680Y-214520D01*
X547500Y-211510D01*
X546320Y-214520D01*
X547370Y-215670D01*
G03X547630I130J990D01*
G37*
G36*
G01X551270Y-211230D02*
X548680Y-209000D01*
X547250Y-211760D01*
X548680Y-214520D01*
X551270Y-212290D01*
G03Y-211230I-850J530D01*
G37*
G36*
G01X547920Y-203710D02*
X548610Y-204380D01*
X550250Y-203000D01*
X548610Y-201620D01*
X547920Y-202290D01*
G03Y-203710I710J-710D01*
G37*
G36*
G01X545530Y-197970D02*
X546500D01*
X546680Y-195820D01*
X544530Y-196000D01*
Y-196970D01*
G03X545530Y-197970I1000J0D01*
G37*
G36*
G01X553560Y-247060D02*
X553570Y-250000D01*
X557680Y-250180D01*
X557500Y-246070D01*
X554560Y-246060D01*
G03X553560Y-247060I0J-1000D01*
G37*
G36*
G01X552630Y-236150D02*
X553680Y-235000D01*
X552500Y-231990D01*
X551320Y-235000D01*
X552370Y-236150D01*
G03X552630I130J990D01*
G37*
G36*
G01X556080Y-112790D02*
X555390Y-112120D01*
X553750Y-113500D01*
X555390Y-114880D01*
X556080Y-114210D01*
G03Y-112790I-710J710D01*
G37*
G36*
G01X561270Y-231710D02*
X558680Y-229480D01*
X557250Y-232240D01*
X558680Y-235000D01*
X561270Y-232770D01*
G03Y-231710I-850J530D01*
G37*
G36*
G01X557370Y-207850D02*
X556320Y-209000D01*
X557500Y-212010D01*
X558680Y-209000D01*
X557630Y-207850D01*
G03X557370I-130J-990D01*
G37*
G36*
G01X558210Y-205080D02*
X558880Y-204390D01*
X557500Y-202750D01*
X556120Y-204390D01*
X556790Y-205080D01*
G03X558210I710J710D01*
G37*
G36*
G01X557930Y-119990D02*
X559340Y-121160D01*
X562250Y-119690D01*
X559340Y-118220D01*
X557930Y-119390D01*
G03Y-119990I950J-300D01*
G37*
G36*
G01X559080Y-107290D02*
X558390Y-106620D01*
X556750Y-108000D01*
X558390Y-109380D01*
X559080Y-108710D01*
G03Y-107290I-710J710D01*
G37*
G36*
G01X566070Y-143800D02*
X564660Y-142620D01*
X561750Y-144100D01*
X564660Y-145580D01*
X566070Y-144400D01*
G03Y-143800I-950J300D01*
G37*
G36*
G01Y-135140D02*
X564660Y-133960D01*
X561750Y-135440D01*
X564660Y-136920D01*
X566070Y-135740D01*
G03Y-135140I-950J300D01*
G37*
G36*
G01Y-128050D02*
X564660Y-126880D01*
X561750Y-128350D01*
X564660Y-129820D01*
X566070Y-128650D01*
G03Y-128050I-950J300D01*
G37*
G36*
G01Y-119390D02*
X564660Y-118220D01*
X561750Y-119690D01*
X564660Y-121160D01*
X566070Y-119990D01*
G03Y-119390I-950J300D01*
G37*
G36*
G01X571790Y-245140D02*
X569720Y-247220D01*
X572500Y-250250D01*
X575280Y-247220D01*
X573210Y-245140D01*
G03X571790I-710J-710D01*
G37*
G54D10*
X-380000Y-270000D03*
Y270000D03*
X-333780Y-40000D03*
Y180000D03*
X60000Y-110000D03*
Y40000D03*
Y190000D03*
X600000Y-270000D03*
Y270000D03*
G54D20*
X189670Y-128000D03*
X198330D03*
X205670D03*
X214330D03*
X443670Y-230000D03*
Y-218000D03*
Y-206000D03*
X452330Y-230000D03*
Y-218000D03*
Y-206000D03*
X453170Y-156500D03*
X459670Y-230000D03*
Y-218000D03*
Y-206000D03*
X461830Y-156500D03*
X468330Y-230000D03*
Y-218000D03*
Y-206000D03*
X481670Y-230000D03*
Y-218000D03*
Y-206000D03*
X490330Y-230000D03*
Y-218000D03*
Y-206000D03*
X527170Y-156240D03*
X535830D03*
G54D11*
X-370000Y120000D03*
Y140000D03*
Y160000D03*
Y180000D03*
Y200000D03*
Y220000D03*
X-350000Y-120000D03*
Y-100000D03*
Y-80000D03*
Y-60000D03*
Y-40000D03*
Y-20000D03*
Y0D03*
Y120000D03*
Y140000D03*
Y160000D03*
Y180000D03*
Y200000D03*
Y220000D03*
X-330000Y-120000D03*
Y-100000D03*
Y-80000D03*
Y-60000D03*
Y-20000D03*
Y0D03*
Y120000D03*
Y140000D03*
Y160000D03*
Y200000D03*
Y220000D03*
Y240000D03*
Y260000D03*
X-310000Y-120000D03*
Y-100000D03*
Y-80000D03*
Y-60000D03*
Y-40000D03*
Y-20000D03*
Y0D03*
Y120000D03*
Y140000D03*
Y160000D03*
Y180000D03*
Y200000D03*
Y220000D03*
Y240000D03*
Y260000D03*
X-290000Y-80000D03*
Y-60000D03*
Y-40000D03*
Y-20000D03*
Y0D03*
Y140000D03*
Y160000D03*
Y180000D03*
Y200000D03*
Y220000D03*
Y240000D03*
Y260000D03*
X-125000Y195000D03*
Y225000D03*
X-115000Y195000D03*
Y225000D03*
X-105000Y195000D03*
Y225000D03*
X-95000Y195000D03*
Y225000D03*
X-85000Y195000D03*
Y225000D03*
X-75000Y195000D03*
Y225000D03*
X-65000Y195000D03*
Y225000D03*
X-55000Y195000D03*
Y225000D03*
X160000Y10750D03*
Y29250D03*
Y170750D03*
Y189250D03*
X200000Y-95250D03*
Y-76750D03*
X453620Y-55000D03*
Y-45000D03*
Y-35000D03*
Y-25000D03*
Y-15000D03*
Y-5000D03*
Y5000D03*
Y15000D03*
Y35000D03*
Y45000D03*
Y55000D03*
Y65000D03*
Y75000D03*
Y85000D03*
Y95000D03*
Y105000D03*
Y125000D03*
Y135000D03*
Y145000D03*
Y155000D03*
Y165000D03*
Y175000D03*
Y185000D03*
Y195000D03*
X506380Y-55000D03*
Y-45000D03*
Y-35000D03*
Y-25000D03*
Y-15000D03*
Y-5000D03*
Y5000D03*
Y15000D03*
Y35000D03*
Y45000D03*
Y55000D03*
Y65000D03*
Y75000D03*
Y85000D03*
Y95000D03*
Y105000D03*
Y125000D03*
Y135000D03*
Y145000D03*
Y155000D03*
Y165000D03*
Y175000D03*
Y185000D03*
Y195000D03*
X530750Y5000D03*
Y95000D03*
Y185000D03*
X549250Y5000D03*
Y95000D03*
Y185000D03*
G54D21*
X236540Y-218740D03*
Y-61260D03*
X303460Y-218740D03*
Y-61260D03*
X336540Y-218740D03*
Y-61260D03*
X403460Y-218740D03*
Y-61260D03*
X527500Y-250000D03*
X542500D03*
X557500D03*
X572500D03*
X580000Y-45000D03*
Y-30000D03*
Y-15000D03*
Y0D03*
Y45000D03*
Y60000D03*
Y75000D03*
Y90000D03*
Y135000D03*
Y150000D03*
Y165000D03*
Y180000D03*
G54D30*
X580500Y-143310D03*
Y-135440D03*
Y-127560D03*
Y-119690D03*
G54D12*
X-317240Y-40000D03*
Y180000D03*
G54D31*
G01X122610Y-236000D02*
Y-220000D01*
X90610Y-188000D01*
X16000D01*
X-6000Y-166000D01*
Y-145630D01*
G01X31850Y154370D02*
X5200D01*
X-6000Y143170D01*
Y4370D01*
G01X31850Y-145630D02*
X-6000D01*
G01Y4370D02*
Y-145630D01*
G01X31850Y4370D02*
X-6000D01*
G01X134370Y-74370D02*
X88150D01*
G01X134370Y75630D02*
X88150D01*
G01Y225630D02*
X122370D01*
X134370Y213630D01*
Y75630D01*
G01Y-74370D02*
Y-175140D01*
X159230Y-200000D01*
Y-236000D01*
G01X134370Y75630D02*
Y-74370D01*
G54D13*
X-352000Y-250000D03*
X-332000D03*
X-312000D03*
X-292000D03*
X-290000Y-180000D03*
Y-100000D03*
Y40000D03*
Y120000D03*
X-272000Y-250000D03*
X-260000Y-170000D03*
Y-110000D03*
Y50000D03*
Y110000D03*
X-252000Y-250000D03*
X-220000Y-65000D03*
Y-15000D03*
Y155000D03*
Y205000D03*
X-200000Y-65000D03*
Y-15000D03*
Y155000D03*
Y205000D03*
X-110080Y-70000D03*
Y120000D03*
X-69920Y-70000D03*
Y120000D03*
X390000Y-260000D03*
X410000D03*
X430000D03*
X450000D03*
X470000D03*
X490000D03*
X592000Y212000D03*
Y232000D03*
G54D22*
X258000Y-266690D03*
Y-253310D03*
X320000Y-266690D03*
Y-253310D03*
G54D32*
G01X-317240Y-40000D02*
X-310000D01*
G01X-317240Y180000D02*
X-310000D01*
G01Y-40000D02*
X-290000D01*
G01X-310000Y180000D02*
X-290000D01*
G01Y-40000D02*
X-250310D01*
G01X-290000Y180000D02*
X-250310D01*
G01X-203230Y-236000D02*
Y-256770D01*
X-198000Y-262000D01*
X42000D01*
X49390Y-254610D01*
Y-236000D01*
G01X411810Y150240D02*
X392020Y170030D01*
Y216020D01*
X404000Y228000D01*
X419620D01*
X444000Y252380D01*
G01X530750Y5000D02*
Y95000D01*
G01D02*
Y185000D01*
G01X549250Y5000D02*
Y95000D01*
G01D02*
Y185000D01*
G54D23*
X278580Y-269060D03*
Y-260000D03*
Y-250940D03*
G54D14*
X-250310Y-61750D03*
Y-40000D03*
Y-18250D03*
Y158250D03*
Y180000D03*
Y201750D03*
X-125040Y-159760D03*
Y-129840D03*
Y30240D03*
Y60160D03*
X-90000Y-60000D03*
Y130000D03*
X-54960Y-120000D03*
Y70000D03*
X188190Y-9760D03*
Y44570D03*
Y150240D03*
Y204570D03*
X411810Y-9760D03*
Y44570D03*
Y150240D03*
Y204570D03*
G54D33*
G01X-352000Y-250000D02*
X-386000Y-216000D01*
Y44000D01*
X-360000Y70000D01*
X-300000D01*
X-260000Y110000D01*
G01X-292000Y-250000D02*
Y-218000D01*
X-318000Y-192000D01*
Y-168000D01*
X-260000Y-110000D01*
G54D15*
X-220000Y5000D03*
Y35000D03*
Y225000D03*
Y255000D03*
X-210000Y5000D03*
Y35000D03*
Y225000D03*
Y255000D03*
X-200000Y5000D03*
Y35000D03*
Y225000D03*
Y255000D03*
X185000Y-175000D03*
Y-165000D03*
Y-155000D03*
Y-145000D03*
X200000Y-250000D03*
Y-210000D03*
X214000Y-250000D03*
Y-210000D03*
X215000Y-175000D03*
Y-165000D03*
Y-155000D03*
Y-145000D03*
X451870Y228760D03*
Y276000D03*
G54D24*
X301420Y-260000D03*
G54D34*
G01X453620Y185000D02*
X428000Y159380D01*
Y-69000D01*
X434000Y-75000D01*
Y-169000D01*
X440000Y-175000D01*
X490000D01*
X493050Y-171950D01*
Y-156240D01*
G01X489110D02*
Y-170390D01*
X487000Y-172500D01*
X442500D01*
X436500Y-166500D01*
Y-73500D01*
X430500Y-67500D01*
Y151880D01*
X453620Y175000D01*
G01X487140Y-156240D02*
Y-168360D01*
X485500Y-170000D01*
X444500D01*
X439000Y-164500D01*
Y-72000D01*
X433000Y-66000D01*
Y144380D01*
X453620Y165000D01*
G01Y155000D02*
X435750Y137130D01*
Y-65250D01*
X441500Y-71000D01*
Y-159000D01*
X444500Y-162000D01*
X479500D01*
X481240Y-160260D01*
Y-156240D01*
G01X453620Y145000D02*
X438500Y129880D01*
Y-64000D01*
X444000Y-69500D01*
Y-143000D01*
X449760Y-148760D01*
X473760D01*
G01X453620Y125000D02*
X441050Y112430D01*
Y-62450D01*
X446500Y-67900D01*
Y-141500D01*
X451800Y-146800D01*
X473760D01*
G01X455000Y-142000D02*
X449000Y-136000D01*
Y-66000D01*
X443500Y-60500D01*
Y109000D01*
X448500Y114000D01*
X454000D01*
X460000Y120000D01*
Y128620D01*
X453620Y135000D01*
G01X473760Y-144830D02*
X463830D01*
X451500Y-132500D01*
Y-64000D01*
X446000Y-58500D01*
Y37380D01*
X453620Y45000D01*
G01X493050Y-111760D02*
Y-101550D01*
X489650Y-98150D01*
X466500D01*
X463000Y-94650D01*
Y-25000D01*
X458000Y-20000D01*
X451000D01*
X448500Y-22500D01*
Y-39880D01*
X453620Y-45000D01*
G01Y-55000D02*
X456850Y-58230D01*
Y-98850D01*
X462000Y-104000D01*
X484000D01*
X485170Y-105170D01*
Y-111760D01*
G01X487140D02*
Y-103640D01*
X485550Y-102050D01*
X463500D01*
X459000Y-97550D01*
Y-40380D01*
X453620Y-35000D01*
G01X491080Y-111760D02*
Y-103080D01*
X488100Y-100100D01*
X465000D01*
X461000Y-96100D01*
Y-32380D01*
X453620Y-25000D01*
G01X495020Y-111760D02*
Y-100020D01*
X491200Y-96200D01*
X468000D01*
X465000Y-93200D01*
Y-26380D01*
X464950Y-26330D01*
Y-21770D01*
X458180Y-15000D01*
X453620D01*
G01Y-5000D02*
X467000Y-18380D01*
Y-91750D01*
X469500Y-94250D01*
X493250D01*
X496980Y-97980D01*
Y-111760D01*
G01X453620Y5000D02*
X469000Y-10380D01*
Y-90300D01*
X471000Y-92300D01*
X494800D01*
X498950Y-96450D01*
Y-111760D01*
G01X518240Y-142860D02*
X524560D01*
X531920Y-135500D01*
Y-88420D01*
X523500Y-80000D01*
X474000D01*
X472000Y-78000D01*
Y16620D01*
X453620Y35000D01*
G01X518240Y-144830D02*
X525540D01*
X533870Y-136500D01*
Y-86870D01*
X524500Y-77500D01*
X475500D01*
X473950Y-75950D01*
Y34670D01*
X453620Y55000D01*
G01X518240Y-146800D02*
X526700D01*
X536000Y-137500D01*
Y-85550D01*
X525220Y-74770D01*
X477270D01*
X476000Y-73500D01*
Y42620D01*
X453620Y65000D01*
G01X518240Y-148760D02*
X528190D01*
X537950Y-139000D01*
Y-83950D01*
X526500Y-72500D01*
X479000D01*
X478000Y-71500D01*
Y50620D01*
X453620Y75000D01*
G01X506830Y-156240D02*
Y-163330D01*
X508500Y-165000D01*
X538000D01*
X539900Y-163100D01*
Y-82450D01*
X527220Y-69770D01*
X481270D01*
X480000Y-68500D01*
Y58620D01*
X453620Y85000D01*
G01X504860Y-156240D02*
Y-164860D01*
X506950Y-166950D01*
X538810D01*
X541850Y-163910D01*
Y-80350D01*
X528500Y-67000D01*
X483000D01*
X482000Y-66000D01*
Y66620D01*
X453620Y95000D01*
G01X460000Y-123830D02*
Y-128000D01*
X463050Y-131050D01*
X473760D01*
G01Y-140890D02*
X466110D01*
G01X473760Y-142860D02*
X482360D01*
X484000Y-144500D01*
G01X473760Y-138920D02*
X480920D01*
G01X473760Y-119240D02*
X481240D01*
G01X474500Y-112000D02*
Y-107500D01*
X475520Y-106480D01*
X482480D01*
X483200Y-107200D01*
Y-111760D01*
G01X481240Y-119240D02*
X484000Y-122000D01*
G01X481240Y-111760D02*
Y-119240D01*
G01X483200Y-166000D02*
Y-156240D01*
G01X485170D02*
Y-146000D01*
G01X489110Y-111760D02*
Y-115820D01*
X489000Y-115930D01*
Y-116000D01*
X488000Y-117000D01*
X484000D01*
X483200Y-116200D01*
Y-111760D01*
G01X490330Y-218000D02*
X495000D01*
X496980Y-216020D01*
Y-156240D01*
G01X495020D02*
Y-204480D01*
X493500Y-206000D01*
X490330D01*
G01X491080Y-148580D02*
Y-156240D01*
G01X497500Y-85000D02*
Y-88500D01*
X500920Y-91920D01*
Y-111760D01*
G01X506380Y45000D02*
X515000Y36380D01*
Y-60500D01*
X516500Y-62000D01*
X530500D01*
X546000Y-77500D01*
Y-166500D01*
X541650Y-170850D01*
X504850D01*
X500920Y-166920D01*
Y-156240D01*
G01X506380Y135000D02*
X517500Y123880D01*
Y-57500D01*
X519000Y-59000D01*
X531500D01*
X548000Y-75500D01*
Y-168500D01*
X543000Y-173500D01*
X504000D01*
X498950Y-168450D01*
Y-156240D01*
G01X506380Y-45000D02*
X512500Y-51120D01*
Y-62550D01*
X514450Y-64500D01*
X529500D01*
X543800Y-78800D01*
Y-164720D01*
X539620Y-168900D01*
X505660D01*
X502890Y-166130D01*
Y-156240D01*
G01Y-111760D02*
Y-85000D01*
G01X510760Y-156240D02*
Y-148760D01*
X508000Y-146000D01*
G01X518240Y-119240D02*
X510760D01*
X507000Y-123000D01*
G01X516500Y-99330D02*
Y-103000D01*
X515000Y-104500D01*
X509500D01*
X506830Y-107170D01*
Y-111760D01*
G01X508500Y-99330D02*
Y-102500D01*
X504860Y-106140D01*
Y-111760D01*
G01X535830Y-156240D02*
Y-161170D01*
X534500Y-162500D01*
X511000D01*
X508800Y-160300D01*
Y-156240D01*
G01X510760D02*
X527170D01*
G01X518240Y-138920D02*
X510500D01*
G01X518240Y-133020D02*
X510500D01*
G01X510760Y-111760D02*
X516260D01*
G01X508500Y-90670D02*
Y-85000D01*
G01X518240Y-131050D02*
X524950D01*
X526950Y-133050D01*
G01X518240Y-129080D02*
X524920D01*
X526920Y-127080D01*
G01X518240Y-123170D02*
X524330D01*
X527000Y-120500D01*
G01X524500Y-99330D02*
Y-110000D01*
X518240Y-116260D01*
Y-119240D01*
G01Y-121200D02*
X521800D01*
X523000Y-120000D01*
Y-115500D01*
X529500Y-109000D01*
Y-94490D01*
X525680Y-90670D01*
X524500D01*
G01X516500D02*
Y-85000D01*
G01X535830Y-149170D02*
Y-156240D01*
G54D25*
X444000Y252380D03*
X499120Y228760D03*
Y276000D03*
G54D16*
X-203230Y-236000D03*
X-166610D03*
X-130000D03*
X-93390D03*
X-56770D03*
X12770D03*
X49390D03*
X86000D03*
X122610D03*
X159230D03*
X193700Y-31020D03*
Y91020D03*
Y128980D03*
Y251020D03*
X406300Y-31020D03*
Y91020D03*
Y128980D03*
Y251020D03*
G54D35*
G01X495500Y-57000D02*
Y74500D01*
X472000Y98000D01*
Y270000D01*
X460000Y282000D01*
X-172000D01*
X-178000Y276000D01*
Y142000D01*
X-200000Y120000D01*
Y35000D01*
G01X500000Y-62000D02*
Y76000D01*
X476000Y100000D01*
Y272000D01*
X462000Y286000D01*
X-186000D01*
X-200000Y272000D01*
Y255000D01*
G01X491000Y-59500D02*
Y73000D01*
X468000Y96000D01*
Y250000D01*
X440000Y278000D01*
X-55500D01*
X-65000Y268500D01*
Y225000D01*
G01X486000Y-62000D02*
Y72000D01*
X464000Y94000D01*
Y248000D01*
X438000Y274000D01*
X-46000D01*
X-55000Y265000D01*
Y225000D01*
G01X189670Y-128000D02*
Y-133670D01*
X200000Y-144000D01*
Y-172000D01*
X226000Y-198000D01*
Y-262000D01*
X230690Y-266690D01*
X258000D01*
G01X198330Y-128000D02*
X205670D01*
G01Y-145000D02*
Y-161670D01*
X209000Y-165000D01*
X215000D01*
G01X205670Y-128000D02*
Y-145000D01*
G01X215000D02*
X205670D01*
G01X214330Y-128000D02*
X424000D01*
G01X453170Y-156500D02*
X448000D01*
G01X460000Y-115170D02*
X455830D01*
X454500Y-116500D01*
Y-129280D01*
X466110Y-140890D01*
G01X481670Y-230000D02*
Y-234330D01*
X480000Y-236000D01*
X461110D01*
X459670Y-234560D01*
Y-230000D01*
G01X481670Y-218000D02*
Y-222330D01*
X480000Y-224000D01*
X461110D01*
X459670Y-222560D01*
Y-218000D01*
G01X481670Y-206000D02*
Y-210330D01*
X480000Y-212000D01*
X461110D01*
X459670Y-210560D01*
Y-206000D01*
G01X460000Y-166000D02*
X483200D01*
G01X460000Y-115170D02*
X466830D01*
X470000Y-112000D01*
X474500D01*
G01X469000Y-156500D02*
X461830D01*
G01X483500Y-146500D02*
X473500Y-156500D01*
X469000D01*
G01X490330Y-230000D02*
X497500D01*
X501000Y-226500D01*
Y-178000D01*
G01X511500Y-183500D02*
X517000Y-178000D01*
X549500D01*
X552500Y-175000D01*
Y-122000D01*
X554810Y-119690D01*
X562000D01*
G01X527500Y-250000D02*
Y-236000D01*
X531260Y-232240D01*
X542500D01*
G01X546500Y-196000D02*
X537500Y-205000D01*
Y-217500D01*
X540000Y-220000D01*
X545500D01*
X547500Y-218000D01*
Y-211760D01*
G01Y-232240D02*
Y-245000D01*
X542500Y-250000D01*
G01X550000Y-203000D02*
X546120D01*
X542500Y-206620D01*
Y-211760D01*
G01X547500D02*
X552500D01*
G01Y-232240D02*
Y-245000D01*
X557500Y-250000D01*
G01X554000Y-113500D02*
X591500D01*
X593370Y-115370D01*
Y-126130D01*
X591940Y-127560D01*
X580500D01*
G01X572500Y-250000D02*
Y-236000D01*
X568740Y-232240D01*
X557500D01*
G01Y-211760D02*
Y-203000D01*
G01X557000Y-108000D02*
X593000D01*
X597500Y-112500D01*
Y-130500D01*
X592560Y-135440D01*
X580500D01*
G01X562000Y-144100D02*
X571900D01*
X572690Y-143310D01*
X580500D01*
G01X562000Y-135440D02*
X580500D01*
G01X562000Y-128350D02*
X571900D01*
X572690Y-127560D01*
X580500D01*
G01X562000Y-119690D02*
X580500D01*
G54D26*
X460000Y-123830D03*
Y-115170D03*
X508500Y-99330D03*
Y-90670D03*
X516500Y-99330D03*
Y-90670D03*
X524500Y-99330D03*
Y-90670D03*
X562000Y-144100D03*
Y-135440D03*
Y-128350D03*
Y-119690D03*
G54D17*
X-138000Y-280000D03*
X-130000D03*
X-122000D03*
X244690Y-253310D03*
X337190Y-266690D03*
X424000Y-128000D03*
X438000Y-230000D03*
Y-218000D03*
Y-206000D03*
X448000Y-156500D03*
X455000Y-142000D03*
X460000Y-166000D03*
X466110Y-140890D03*
X469000Y-183500D03*
Y-156500D03*
X474000Y-230000D03*
Y-218000D03*
Y-206000D03*
X474500Y-112000D03*
X483200Y-166000D03*
X480920Y-138920D03*
X486000Y-62000D03*
X491080Y-148580D03*
X491000Y-59500D03*
X497500Y-85000D03*
X495500Y-57000D03*
X501000Y-178000D03*
X502890Y-85000D03*
X500000Y-62000D03*
X508500Y-85000D03*
X511500Y-183500D03*
X510500Y-138920D03*
Y-133020D03*
X516260Y-111760D03*
X516500Y-85000D03*
X523000D03*
X527500Y-271500D03*
X526950Y-133050D03*
X526920Y-127080D03*
X527000Y-120500D03*
X535830Y-149170D03*
X550000Y-203000D03*
X546500Y-196000D03*
X554000Y-113500D03*
X557500Y-203000D03*
X557000Y-108000D03*
X580500Y-151500D03*
G54D36*
G01X452330Y-206000D02*
Y-210170D01*
X450500Y-212000D01*
X434000D01*
X422000Y-224000D01*
Y-248000D01*
X410000Y-260000D01*
G01X452330Y-218000D02*
Y-222670D01*
X451130Y-223870D01*
X434000D01*
X430000Y-227870D01*
Y-240000D01*
X450000Y-260000D01*
G01X443670Y-230000D02*
X438000D01*
G01X443670Y-218000D02*
X438000D01*
G01X443670Y-206000D02*
X438000D01*
G01X490000Y-260000D02*
X478000Y-248000D01*
X460000D01*
X452330Y-240330D01*
Y-230000D01*
G01D02*
X459670D01*
G01X452330Y-218000D02*
X459670D01*
G01X452330Y-206000D02*
X459670D01*
G01X468330Y-230000D02*
X474000D01*
G01X468330Y-218000D02*
X474000D01*
G01X468330Y-206000D02*
X474000D01*
G01X524500Y-90670D02*
Y-86500D01*
X523000Y-85000D01*
G54D18*
X31850Y-145630D03*
Y-74370D03*
Y4370D03*
Y75630D03*
Y154370D03*
Y225630D03*
X88150Y-74370D03*
Y75630D03*
Y225630D03*
G54D27*
X473760Y-148760D03*
Y-146800D03*
Y-144830D03*
Y-142860D03*
Y-140890D03*
Y-138920D03*
Y-136950D03*
Y-134980D03*
Y-133020D03*
Y-131050D03*
Y-129080D03*
Y-127110D03*
Y-125140D03*
Y-123170D03*
Y-121200D03*
Y-119240D03*
X518240Y-148760D03*
Y-142860D03*
Y-144830D03*
Y-146800D03*
Y-136950D03*
Y-138920D03*
Y-140890D03*
Y-133020D03*
Y-134980D03*
Y-127110D03*
Y-129080D03*
Y-131050D03*
Y-121200D03*
Y-123170D03*
Y-125140D03*
Y-119240D03*
G54D37*
G01X-110080Y-70000D02*
Y-46080D01*
X-94000Y-30000D01*
Y84000D01*
X-120000Y110000D01*
Y164000D01*
X-108000Y176000D01*
X-80000D01*
X-75000Y181000D01*
Y195000D01*
G01X-110080Y120000D02*
Y159920D01*
X-104000Y166000D01*
X-72000D01*
X-65000Y173000D01*
Y195000D01*
G01X122610Y-236000D02*
X153450Y-266840D01*
X211160D01*
X214000Y-264000D01*
Y-250000D01*
G01X200000D02*
X173230D01*
X159230Y-236000D01*
G01X258000Y-253310D02*
X244690D01*
G01X370000Y-280000D02*
X262000D01*
X258000Y-276000D01*
Y-266690D01*
G01X278580Y-269060D02*
X270000D01*
X267630Y-266690D01*
X258000D01*
G01Y-253310D02*
X269080D01*
X271450Y-250940D01*
X278580D01*
G01Y-260000D02*
X301420D01*
G01X278580Y-250940D02*
X286220D01*
X296000Y-241160D01*
X315160D01*
X320000Y-246000D01*
Y-253310D01*
G01Y-266690D02*
X308110D01*
X301420Y-260000D01*
G01X320000Y-266690D02*
X337190D01*
G01X572500Y-250000D02*
Y-275500D01*
X568000Y-280000D01*
X370000D01*
G01X403460Y-218740D02*
X376760D01*
X370000Y-225500D01*
Y-280000D01*
G01X390000Y-260000D02*
X414000Y-236000D01*
Y-191000D01*
X421500Y-183500D01*
X469000D01*
G01X527500Y-250000D02*
Y-271500D01*
G01X580500Y-143310D02*
Y-151500D01*
G54D19*
X95630Y-138150D03*
Y11850D03*
Y161850D03*
G54D28*
X481240Y-156240D03*
Y-111760D03*
X487140Y-156240D03*
X485170D03*
X483200D03*
Y-111760D03*
X485170D03*
X487140D03*
X491080Y-156240D03*
X489110D03*
Y-111760D03*
X491080D03*
X496980Y-156240D03*
X495020D03*
X493050D03*
Y-111760D03*
X495020D03*
X496980D03*
X502890Y-156240D03*
X500920D03*
X498950D03*
Y-111760D03*
X500920D03*
X502890D03*
X506830Y-156240D03*
X504860D03*
Y-111760D03*
X506830D03*
X510760Y-156240D03*
X508800D03*
Y-111760D03*
X510760D03*
G54D38*
G01X-252000Y-280000D02*
X-304000D01*
X-312000Y-272000D01*
Y-250000D01*
G01X-252000D02*
Y-280000D01*
G01X-138000D02*
X-252000D01*
G01X-130000D02*
X-138000D01*
G01X-122000D02*
X-130000D01*
G01X86000Y-236000D02*
Y-270000D01*
X76000Y-280000D01*
X-122000D01*
G01X-69920Y120000D02*
Y100080D01*
X-80000Y90000D01*
Y-30000D01*
X-69920Y-40080D01*
Y-70000D01*
G54D29*
X542500Y-232240D03*
Y-211760D03*
X547500Y-232240D03*
Y-211760D03*
X552500Y-232240D03*
Y-211760D03*
X557500Y-232240D03*
Y-211760D03*
M02*
