G04 ================== begin FILE IDENTIFICATION RECORD ==================*
G04 Layout Name:  D:/winprj/orcad/美容护理/水床18/核心板/pcb/pcb.brd*
G04 Film Name:    BOTTOM*
G04 File Format:  Gerber RS274X*
G04 File Origin:  Cadence Allegro 16.6-2015-S108*
G04 Origin Date:  Thu Oct 18 11:45:50 2018*
G04 *
G04 Layer:  VIA CLASS/BOTTOM*
G04 Layer:  PIN/BOTTOM*
G04 Layer:  ETCH/BOTTOM*
G04 *
G04 Offset:    (0.0 0.0)*
G04 Mirror:    No*
G04 Mode:      Positive*
G04 Rotation:  0*
G04 FullContactRelief:  No*
G04 UndefLineWidth:     6.0*
G04 ================== end FILE IDENTIFICATION RECORD ====================*
%FSLAX25Y25*MOIN*%
%IR0*IPPOS*OFA0.00000B0.00000*MIA0B0*SFA1.00000B1.00000*%
%ADD23R,.0374X.1024*%
%ADD26R,.1024X.0374*%
%ADD13R,.1181X.0472*%
%ADD11C,.1575*%
%ADD20O,.0098X.0531*%
%ADD25R,.128X.0846*%
%ADD19O,.0531X.0098*%
%ADD17C,.0236*%
%ADD22R,.0236X.0551*%
%ADD21C,.0472*%
%ADD18O,.063X.0945*%
%ADD15R,.0295X.0531*%
%ADD12C,.0709*%
%ADD10C,.0394*%
%ADD16R,.0531X.0295*%
%ADD24R,.0374X.0846*%
%ADD14R,.0787X.0236*%
%ADD27C,.01*%
%ADD28C,.02*%
%ADD29C,.04*%
%ADD31R,.1206X.0556*%
%ADD30C,.0892*%
G75*
%LPD*%
G75*
G36*
G01X-89510Y-115660D02*
G02X-92920Y-117080I-2000J-2D01*
G01X-100000Y-110000D01*
Y10090D01*
G02X-96590Y11500I1999J-5D01*
G01X-92080Y6990D01*
X-19770D01*
Y3070D01*
X-25810D01*
Y-4070D01*
X-21030D01*
X-19840Y-3620D01*
X-18270Y-5410D01*
Y-21730D01*
X-22240D01*
G03X-22470Y-21740I37J-3508D01*
G01X-24400D01*
G03X-27210Y-23140I-9J-3501D01*
G02X-30160Y-23420I-1602J1196D01*
G03X-37100Y-25630I-2841J-3080D01*
G03X-37510Y-25820I1554J-3892D01*
G01X-37730Y-25950D01*
X-38990D01*
Y-16050D01*
X-44050Y-10990D01*
X-81950D01*
X-89510Y-18550D01*
Y-115660D01*
G37*
G36*
G01X-31150Y32010D02*
Y52190D01*
X-33250D01*
Y75090D01*
X-42950D01*
Y52430D01*
X-43400Y52010D01*
X-48340D01*
X-49990Y53660D01*
Y132370D01*
X-48900Y133460D01*
X-48520D01*
G03X-54580Y139690I491J6540D01*
G01Y139120D01*
X-58010Y135690D01*
Y50330D01*
G02X-59510Y47010I-1501J-1321D01*
G01X-60660D01*
X-65680Y41990D01*
Y33670D01*
X-68950D01*
Y57190D01*
X-71050D01*
Y75090D01*
X-80750D01*
Y57190D01*
X-82850D01*
Y49670D01*
G02X-85460Y47770I-1998J1D01*
G03X-87000Y48010I-1532J-4771D01*
G01X-93080D01*
X-96590Y44500D01*
G02X-100000Y45910I-1411J1415D01*
G01Y140000D01*
X-90000Y150000D01*
X-60000D01*
X-50000Y160000D01*
Y200000D01*
X-40000Y210000D01*
X24430D01*
Y205010D01*
X13780D01*
X13610Y205070D01*
G03X8490Y204230I-1797J-5070D01*
G02X7250I-620J785D01*
G03X620Y204220I-3309J-4230D01*
G02X-620I-620J786D01*
G03X-8030Y203480I-3320J-4220D01*
G02X-10410Y202970I-1522J1295D01*
G03X-9880Y197350I-1400J-2967D01*
G02X-8450Y197080I588J-809D01*
G03X-7950Y196430I4495J2940D01*
G01Y189780D01*
X-6510Y188340D01*
Y76010D01*
X-6690D01*
Y73910D01*
X-9590D01*
Y66570D01*
X-6690D01*
Y64470D01*
X6850D01*
X7390Y63430D01*
G02X5610Y60510I-1777J-919D01*
G01X2340D01*
X-1510Y56660D01*
X-1650Y56780D01*
X-2600Y56590D01*
X-3150Y55530D01*
X-6850D01*
X-7180Y56160D01*
G03X-8720Y56460I-888J-457D01*
G01X-11840Y53770D01*
X-12900D01*
X-16670Y50000D01*
Y34340D01*
X-16050Y33720D01*
G02X-16760Y32010I-705J-710D01*
G01X-31150D01*
G37*
G36*
G01X-80990Y42870D02*
X-79840Y41820D01*
X-75650Y43000D01*
X-79840Y44180D01*
X-80990Y43130D01*
G03Y42870I990J-130D01*
G37*
G36*
G01X-78550Y-121960D02*
X-78540Y-125000D01*
X-74910Y-125090D01*
X-75000Y-121470D01*
X-78050Y-121460D01*
G03X-78550Y-121960I0J-500D01*
G37*
G36*
G01X-70040Y-110800D02*
G02X-72640Y-111220I-1540J1277D01*
G03X-76030Y-110660I-2366J-3780D01*
G02X-78490Y-108710I-460J1946D01*
G01Y-61680D01*
X-75010D01*
Y-66000D01*
G03X-71000Y-70910I5011J0D01*
G01X-70700Y-70970D01*
X-67660Y-74010D01*
X-27820D01*
Y-84540D01*
X-61500D01*
X-68510Y-91550D01*
Y-109240D01*
X-69410Y-110150D01*
X-69430Y-110160D01*
G03X-70040Y-110800I4433J-4836D01*
G37*
G36*
G01X-61080Y-35460D02*
Y-35190D01*
X-63180D01*
Y-29420D01*
X-78490D01*
Y-24450D01*
X-76050Y-22010D01*
X-50950D01*
X-50060Y-22900D01*
Y-29510D01*
X-59070D01*
Y-34290D01*
X-58610Y-35530D01*
X-59440Y-36230D01*
G02X-61080Y-35460I-641J767D01*
G37*
G36*
G01X-68030Y-66970D02*
Y-66000D01*
X-70180Y-65820D01*
X-70000Y-67970D01*
X-69030D01*
G03X-68030Y-66970I0J1000D01*
G37*
G36*
G01X-74300Y27470D02*
X-71800Y25340D01*
X-70080Y28000D01*
X-71800Y30660D01*
X-74300Y28530D01*
G03Y27470I850J-530D01*
G37*
G36*
G01X-61950Y-121460D02*
X-65000Y-121470D01*
X-65090Y-125090D01*
X-61460Y-125000D01*
X-61450Y-121960D01*
G03X-61950Y-121460I-500J0D01*
G37*
G36*
G01X-65350Y-110340D02*
X-67500Y-112490D01*
X-65000Y-115120D01*
X-62500Y-112490D01*
X-64650Y-110340D01*
G03X-65350I-350J-350D01*
G37*
G36*
G01X-59570Y-57400D02*
X-58160Y-58580D01*
X-55250Y-57100D01*
X-58160Y-55620D01*
X-59570Y-56800D01*
G03Y-57400I950J-300D01*
G37*
G36*
G01Y-48740D02*
X-58160Y-49920D01*
X-55250Y-48440D01*
X-58160Y-46960D01*
X-59570Y-48140D01*
G03Y-48740I950J-300D01*
G37*
G36*
G01Y-40860D02*
X-58160Y-42040D01*
X-55250Y-40560D01*
X-58160Y-39080D01*
X-59570Y-40260D01*
G03Y-40860I950J-300D01*
G37*
G36*
G01X-61370Y23930D02*
X-60200Y25340D01*
X-61670Y28250D01*
X-63140Y25340D01*
X-61970Y23930D01*
G03X-61370I300J950D01*
G37*
G36*
G01X-61970Y32070D02*
X-63140Y30660D01*
X-61670Y27750D01*
X-60200Y30660D01*
X-61370Y32070D01*
G03X-61970I-300J-950D01*
G37*
G36*
G01X39510Y-195660D02*
Y-148160D01*
X45160Y-142510D01*
X52660D01*
G02X54080Y-145920I2J-2000D01*
G01X50000Y-150000D01*
Y-200000D01*
X40000Y-210000D01*
X-40000D01*
X-50000Y-200000D01*
Y-150000D01*
X-58080Y-141920D01*
G02X-56660Y-138510I1418J1410D01*
G01X32990D01*
G02X34400Y-141920I-3J-1998D01*
G01X31490Y-144840D01*
Y-192340D01*
X29470Y-194360D01*
X28760Y-193720D01*
G03X19200Y-195310I-4156J-4547D01*
G01X18920Y-195830D01*
X-18920D01*
X-19200Y-195310D01*
G03X-30770Y-198260I-5408J-2952D01*
G01Y-201420D01*
G03X-19200Y-204370I6162J2D01*
G01X-18920Y-203850D01*
X18920D01*
X19200Y-204370D01*
G03X30020I5410J2955D01*
G01X30300Y-203850D01*
X31320D01*
X39510Y-195660D01*
G37*
G36*
G01X-51950Y-121460D02*
X-55000Y-121470D01*
X-55090Y-125090D01*
X-51460Y-125000D01*
X-51450Y-121960D01*
G03X-51950Y-121460I-500J0D01*
G37*
G36*
G01X-55350Y-110340D02*
X-57500Y-112490D01*
X-55000Y-115120D01*
X-52500Y-112490D01*
X-54650Y-110340D01*
G03X-55350I-350J-350D01*
G37*
G36*
G01X-51460Y-48170D02*
X-52840Y-46960D01*
X-55620Y-48440D01*
X-52840Y-49920D01*
X-51460Y-48710D01*
G03Y-48170I-420J270D01*
G37*
G36*
G01Y-40290D02*
X-52840Y-39080D01*
X-55620Y-40560D01*
X-52840Y-42040D01*
X-51460Y-40830D01*
G03Y-40290I-420J270D01*
G37*
G36*
G01X-54030Y23930D02*
X-52860Y25340D01*
X-54330Y28250D01*
X-55800Y25340D01*
X-54630Y23930D01*
G03X-54030I300J950D01*
G37*
G36*
G01X-54630Y32070D02*
X-55800Y30660D01*
X-54330Y27750D01*
X-52860Y30660D01*
X-54030Y32070D01*
G03X-54630I-300J-950D01*
G37*
G36*
G01X-50580Y136460D02*
X-48030Y136470D01*
X-47850Y140180D01*
X-51570Y140000D01*
X-51580Y137460D01*
G03X-50580Y136460I1000J0D01*
G37*
G36*
G01X-41950Y-121460D02*
X-45000Y-121470D01*
X-45090Y-125090D01*
X-41460Y-125000D01*
X-41450Y-121960D01*
G03X-41950Y-121460I-500J0D01*
G37*
G36*
G01X-45350Y-110340D02*
X-47500Y-112490D01*
X-45000Y-115120D01*
X-42500Y-112490D01*
X-44650Y-110340D01*
G03X-45350I-350J-350D01*
G37*
G36*
G01X-41700Y28530D02*
X-44200Y30660D01*
X-45920Y28000D01*
X-44200Y25340D01*
X-41700Y27470D01*
G03Y28530I-850J530D01*
G37*
G36*
G01X-37920Y-32920D02*
X-38400Y-32440D01*
X-39360Y-33270D01*
X-38400Y-34100D01*
X-37920Y-33620D01*
G03Y-32920I-350J350D01*
G37*
G36*
G01X-43190Y37870D02*
X-42040Y36820D01*
X-37850Y38000D01*
X-42040Y39180D01*
X-43190Y38130D01*
G03Y37870I990J-130D01*
G37*
G36*
G01Y42870D02*
X-42040Y41820D01*
X-37850Y43000D01*
X-42040Y44180D01*
X-43190Y43130D01*
G03Y42870I990J-130D01*
G37*
G36*
G01Y47870D02*
X-42040Y46820D01*
X-37850Y48000D01*
X-42040Y49180D01*
X-43190Y48130D01*
G03Y47870I990J-130D01*
G37*
G36*
G01X-34880Y-39740D02*
X-35560Y-39830D01*
X-35580Y-41090D01*
X-34320Y-41000D01*
Y-40240D01*
G03X-34880Y-39740I-503J0D01*
G37*
G36*
G01X-34040Y-35800D02*
X-34520Y-35320D01*
X-35480Y-36150D01*
X-34520Y-36980D01*
X-34040Y-36500D01*
G03Y-35800I-350J350D01*
G37*
G36*
G01X-34320Y-30180D02*
Y-29500D01*
X-35590Y-29410D01*
X-35500Y-30680D01*
X-34820D01*
G03X-34320Y-30180I0J500D01*
G37*
G36*
G01X-31820Y-27180D02*
Y-26500D01*
X-33090Y-26410D01*
X-33000Y-27680D01*
X-32320D01*
G03X-31820Y-27180I0J500D01*
G37*
G36*
G01X-32030Y-21970D02*
Y-20500D01*
X-34090Y-20410D01*
X-34000Y-22470D01*
X-32530D01*
G03X-32030Y-21970I0J500D01*
G37*
G36*
G01X-27820Y-42820D02*
X-28500D01*
X-28590Y-44090D01*
X-27320Y-44000D01*
Y-43320D01*
G03X-27820Y-42820I-500J0D01*
G37*
G36*
G01X-30170Y-40630D02*
X-30650Y-40150D01*
X-31600Y-40980D01*
X-30650Y-41810D01*
X-30170Y-41330D01*
G03Y-40630I-350J350D01*
G37*
G36*
G01X-23600Y-73460D02*
X-24800Y-74840D01*
X-23330Y-77620D01*
X-21860Y-74840D01*
X-23060Y-73460D01*
G03X-23600I-270J-420D01*
G37*
G36*
G01X-25410Y-70710D02*
X-24720Y-71380D01*
X-23080Y-70000D01*
X-24720Y-68620D01*
X-25410Y-69290D01*
G03Y-70710I710J-710D01*
G37*
G36*
G01X-22980Y-72430D02*
X-21940Y-71390D01*
X-23330Y-69880D01*
X-24720Y-71390D01*
X-23680Y-72430D01*
G03X-22980I350J350D01*
G37*
G36*
G01X-23680Y-67570D02*
X-24720Y-68610D01*
X-23330Y-70120D01*
X-21940Y-68610D01*
X-22980Y-67570D01*
G03X-23680I-350J-350D01*
G37*
G36*
G01X-18080Y17790D02*
X-17390Y17120D01*
X-15750Y18500D01*
X-17390Y19880D01*
X-18080Y19210D01*
G03Y17790I710J-710D01*
G37*
G36*
G01X-14370Y-81570D02*
X-13200Y-80160D01*
X-14670Y-77250D01*
X-16140Y-80160D01*
X-14970Y-81570D01*
G03X-14370I300J950D01*
G37*
G36*
G01X-15670Y-81450D02*
X-15680Y-82800D01*
X-13920Y-83740D01*
X-12610Y-82110D01*
X-13970Y-80750D01*
G03X-15670Y-81450I-701J-712D01*
G37*
G36*
G01X-14940Y-73460D02*
X-16140Y-74840D01*
X-14670Y-77620D01*
X-13200Y-74840D01*
X-14400Y-73460D01*
G03X-14940I-270J-420D01*
G37*
G36*
G01X-10030Y-53470D02*
Y-52000D01*
X-12090Y-51910D01*
X-12000Y-53970D01*
X-10530D01*
G03X-10030Y-53470I0J500D01*
G37*
G36*
G01X-12000Y-40000D02*
X4000D01*
X8000Y-44000D01*
Y-54000D01*
X10000Y-56000D01*
X14000D01*
Y-42000D01*
Y-28000D01*
X12000Y-26000D01*
X-12000D01*
X-14000Y-28000D01*
Y-38000D01*
X-12000Y-40000D01*
G37*
G36*
G01X-14490Y-4540D02*
X-13280Y-3160D01*
X-14760Y-380D01*
X-16240Y-3160D01*
X-15030Y-4540D01*
G03X-14490I270J420D01*
G37*
G36*
G01X-12470Y21970D02*
Y21000D01*
X-10320Y20820D01*
X-10500Y22970D01*
X-11470D01*
G03X-12470Y21970I0J-1000D01*
G37*
G36*
G01X-7850Y-74070D02*
X-8890Y-75110D01*
X-7500Y-76620D01*
X-6110Y-75110D01*
X-7150Y-74070D01*
G03X-7850I-350J-350D01*
G37*
G36*
G01X-8530Y-48470D02*
Y-47000D01*
X-10590Y-46910D01*
X-10500Y-48970D01*
X-9030D01*
G03X-8530Y-48470I0J500D01*
G37*
G36*
G01X-11270Y49230D02*
X-8680Y47000D01*
X-7250Y49760D01*
X-8680Y52520D01*
X-11270Y50290D01*
G03Y49230I850J-530D01*
G37*
G36*
G01X-1950Y-121460D02*
X-5000Y-121470D01*
X-5090Y-125090D01*
X-1460Y-125000D01*
X-1450Y-121960D01*
G03X-1950Y-121460I-500J0D01*
G37*
G36*
G01X-3850Y-78570D02*
X-4890Y-79610D01*
X-3500Y-81120D01*
X-2110Y-79610D01*
X-3150Y-78570D01*
G03X-3850I-350J-350D01*
G37*
G36*
G01X-4570Y-49010D02*
X-3530Y-47970D01*
X-4920Y-46460D01*
X-6310Y-47970D01*
X-5270Y-49010D01*
G03X-4570I350J350D01*
G37*
G36*
G01X-2680Y-4540D02*
X-1480Y-3160D01*
X-2950Y-380D01*
X-4420Y-3160D01*
X-3220Y-4540D01*
G03X-2680I270J420D01*
G37*
G36*
G01X-5630Y39500D02*
X-6300Y38810D01*
X-4920Y37170D01*
X-3540Y38810D01*
X-4210Y39500D01*
G03X-5630I-710J-710D01*
G37*
G36*
G01X1270Y50290D02*
X-1320Y52520D01*
X-2750Y49760D01*
X-1320Y47000D01*
X1270Y49230D01*
G03Y50290I-850J530D01*
G37*
G36*
G01X-2630Y74150D02*
X-3680Y73000D01*
X-2500Y69990D01*
X-1320Y73000D01*
X-2370Y74150D01*
G03X-2630I-130J-990D01*
G37*
G36*
G01X-3230Y197370D02*
X-2280Y198340D01*
X-3940Y200250D01*
X-5600Y198340D01*
X-4650Y197370D01*
G03X-3230I710J710D01*
G37*
G36*
G01X4650Y-110340D02*
X2500Y-112490D01*
X5000Y-115120D01*
X7500Y-112490D01*
X5350Y-110340D01*
G03X4650I-350J-350D01*
G37*
G36*
G01X4150Y-78570D02*
X3110Y-79610D01*
X4500Y-81120D01*
X5890Y-79610D01*
X4850Y-78570D01*
G03X4150I-350J-350D01*
G37*
G36*
G01X1970Y-74530D02*
X500D01*
X410Y-76590D01*
X2470Y-76500D01*
Y-75030D01*
G03X1970Y-74530I-500J0D01*
G37*
G36*
G01X530Y-54470D02*
X2000D01*
X2090Y-52410D01*
X30Y-52500D01*
Y-53970D01*
G03X530Y-54470I500J0D01*
G37*
G36*
G01X-970Y-49470D02*
X500D01*
X590Y-47410D01*
X-1470Y-47500D01*
Y-48970D01*
G03X-970Y-49470I500J0D01*
G37*
G36*
G01X72990Y-21730D02*
G02X69580Y-23140I-1998J3D01*
G01X67660Y-21230D01*
X55760D01*
G03X54010Y-21630I-4J-4011D01*
G01X53810Y-21730D01*
X22240D01*
G03X22010Y-21740I37J-3508D01*
G01X20080D01*
G03X19370Y-21810I-13J-3501D01*
G02X18190Y-20630I-202J978D01*
G03X18260Y-19920I-3431J697D01*
G01Y-15600D01*
G03X13780Y-12230I-3502J8D01*
G03X11820Y-12240I-963J-3365D01*
G03X9840I-990J-3355D01*
G03X6890Y-12700I-987J-3357D01*
G03X3940Y-12240I-1963J-2897D01*
G03X1960I-990J-3355D01*
G03X1430Y-12120I-1035J-3342D01*
G01X560Y-12010D01*
Y-6170D01*
X1540D01*
Y-4070D01*
X8100D01*
Y3070D01*
X1540D01*
Y6990D01*
X72990D01*
Y-21730D01*
G37*
G36*
G01X2010Y17010D02*
Y23660D01*
X-1080Y26750D01*
X1240Y29070D01*
X1530Y29130D01*
G03X5230Y32450I-1031J4871D01*
G03X8220Y33250I272J4971D01*
G01X8470Y33410D01*
X12580D01*
X17260Y38090D01*
Y56410D01*
X16180Y57490D01*
G02X16890Y59190I711J701D01*
G01X24990D01*
Y21920D01*
X26490Y20420D01*
G02X25080Y17010I-1416J-1411D01*
G01X2010D01*
G37*
G36*
G01X-470Y32030D02*
X500D01*
X680Y34180D01*
X-1470Y34000D01*
Y33030D01*
G03X-470Y32030I1000J0D01*
G37*
G36*
G01X2370Y53670D02*
X1320Y52520D01*
X2500Y49510D01*
X3680Y52520D01*
X2630Y53670D01*
G03X2370I-130J-990D01*
G37*
G36*
G01X-1270Y49220D02*
X1320Y47000D01*
X2750Y49760D01*
X1320Y52520D01*
X-1270Y50300D01*
G03Y49220I840J-540D01*
G37*
G36*
G01X2370Y74150D02*
X1320Y73000D01*
X2500Y69990D01*
X3680Y73000D01*
X2630Y74150D01*
G03X2370I-130J-990D01*
G37*
G36*
G01X4650Y197370D02*
X5600Y198340D01*
X3940Y200250D01*
X2280Y198340D01*
X3230Y197370D01*
G03X4650I710J710D01*
G37*
G36*
G01X8050Y-121460D02*
X5000Y-121470D01*
X4910Y-125090D01*
X8540Y-125000D01*
X8550Y-121960D01*
G03X8050Y-121460I-500J0D01*
G37*
G36*
G01X7580Y38130D02*
X6890Y38800D01*
X5250Y37420D01*
X6890Y36040D01*
X7580Y36710D01*
G03Y38130I-710J710D01*
G37*
G36*
G01X7630Y45850D02*
X8680Y47000D01*
X7500Y50010D01*
X6320Y47000D01*
X7370Y45850D01*
G03X7630I130J990D01*
G37*
G36*
G01X11270Y70770D02*
X8680Y73000D01*
X7250Y70240D01*
X8680Y67480D01*
X11270Y69710D01*
G03Y70770I-850J530D01*
G37*
G36*
G01X17680Y-90780D02*
X18270Y-90190D01*
Y-84220D01*
X25810D01*
Y-77660D01*
X27910D01*
Y-73410D01*
X28970Y-72760D01*
G02X30490Y-73620I519J-857D01*
G01Y-86550D01*
X24550Y-92490D01*
X18390D01*
G02X17680Y-90780I-3J1001D01*
G37*
G36*
G01X15930Y69940D02*
X17340Y68760D01*
X20250Y70240D01*
X17340Y71720D01*
X15930Y70540D01*
G03Y69940I950J-300D01*
G37*
G36*
G01X45470Y199700D02*
G02X48880Y201120I2000J2D01*
G01X50000Y200000D01*
Y160000D01*
X60000Y150000D01*
X90000D01*
X100000Y140000D01*
Y-110000D01*
X90000Y-120000D01*
X83020D01*
G02X81140Y-117300I-5J2001D01*
G03X80440Y-111330I-6141J2306D01*
G01X80010Y-110700D01*
Y-110620D01*
X83010Y-107620D01*
Y82080D01*
X74770Y90320D01*
X50000D01*
G03X48960Y90210I4J-5010D01*
G01X48860Y90190D01*
X41870D01*
Y80430D01*
X44990D01*
Y76560D01*
X38160D01*
Y66280D01*
X44990D01*
Y55820D01*
X40590D01*
Y41340D01*
X59410D01*
Y55820D01*
X55010D01*
Y64170D01*
X64990D01*
Y28080D01*
X63080Y26170D01*
X59340D01*
Y32000D01*
G03X58900Y34050I-5009J-3D01*
G01X58820Y34240D01*
Y37670D01*
X49840D01*
Y35570D01*
X43280D01*
Y28430D01*
X49320D01*
Y26170D01*
X35010D01*
Y70080D01*
X29840Y75250D01*
X25010D01*
Y98080D01*
X16820Y106270D01*
Y194990D01*
X24430D01*
Y191870D01*
X34190D01*
Y198860D01*
X34210Y198960D01*
G03Y201040I-4900J1040D01*
G01X34190Y201140D01*
Y210000D01*
X40000D01*
X40560Y209440D01*
G02X39910Y206180I-1418J-1412D01*
G01Y193970D01*
X45470D01*
Y199700D01*
G37*
G36*
G01X21930Y-69160D02*
X19580Y-71700D01*
X22240Y-73300D01*
X24900Y-71700D01*
X22550Y-69160D01*
G03X21930I-310J-390D01*
G37*
G36*
G01X38050Y-121460D02*
X35000Y-121470D01*
X34910Y-125090D01*
X38540Y-125000D01*
X38550Y-121960D01*
G03X38050Y-121460I-500J0D01*
G37*
G36*
G01X34650Y-110340D02*
X32500Y-112490D01*
X35000Y-115120D01*
X37500Y-112490D01*
X35350Y-110340D01*
G03X34650I-350J-350D01*
G37*
G36*
G01X48050Y-121460D02*
X45000Y-121470D01*
X44910Y-125090D01*
X48540Y-125000D01*
X48550Y-121960D01*
G03X48050Y-121460I-500J0D01*
G37*
G36*
G01X44650Y-110340D02*
X42500Y-112490D01*
X45000Y-115120D01*
X47500Y-112490D01*
X45350Y-110340D01*
G03X44650I-350J-350D01*
G37*
G36*
G01X65990Y-106000D02*
G03X66000Y-106330I4011J-44D01*
G02X64240Y-108480I-1990J-166D01*
G03X60660Y-110080I765J-6517D01*
G02X59340I-660J751D01*
G03X55390Y-108450I-4341J-4919D01*
G02X53510Y-106460I119J1996D01*
G01Y-35050D01*
X50630Y-32160D01*
G02X52040Y-28750I1415J1411D01*
G01X53810D01*
X54010Y-28850D01*
G03X55760Y-29250I1746J3611D01*
G01X64340D01*
X65990Y-30900D01*
Y-106000D01*
G37*
G36*
G01X51950Y-128540D02*
X55000Y-128530D01*
X55090Y-124910D01*
X51460Y-125000D01*
X51450Y-128040D01*
G03X51950Y-128540I500J0D01*
G37*
G36*
G01X58550Y-118040D02*
X58540Y-115000D01*
X54910Y-114910D01*
X55000Y-118530D01*
X58050Y-118540D01*
G03X58550Y-118040I0J500D01*
G37*
%LPC*%
G75*
G36*
G01X28670Y-181740D02*
G02X20550I-4060J5D01*
G01Y-178580D01*
G02X28670I4060J-5D01*
G01Y-181740D01*
G37*
G36*
G01X-20550D02*
G02X-28670I-4060J5D01*
G01Y-178580D01*
G02X-20550I4060J-5D01*
G01Y-181740D01*
G37*
G54D31*
X50000Y98690D03*
G54D30*
X30710Y140000D03*
%LPD*%
G75*
G36*
G01X-93420Y66210D02*
X-94110Y66880D01*
X-95750Y65500D01*
X-94110Y64120D01*
X-93420Y64790D01*
G03Y66210I-710J710D01*
G37*
G36*
G01X-54790Y-28080D02*
X-54120Y-27390D01*
X-55500Y-25750D01*
X-56880Y-27390D01*
X-56210Y-28080D01*
G03X-54790I710J710D01*
G37*
G36*
G01X-28410Y200D02*
X-29100Y890D01*
X-30750Y-500D01*
X-29110Y-1880D01*
X-28420Y-1210D01*
G03X-28410Y200I-708J710D01*
G37*
G36*
G01X-25580Y62290D02*
X-24890Y61620D01*
X-23250Y63000D01*
X-24890Y64380D01*
X-25580Y63710D01*
G03Y62290I710J-710D01*
G37*
G36*
G01X-15660Y70950D02*
X-16350Y71620D01*
X-17990Y70240D01*
X-16350Y68860D01*
X-15660Y69530D01*
G03Y70950I-710J710D01*
G37*
G36*
G01X14920Y-1210D02*
X15610Y-1880D01*
X17250Y-500D01*
X15600Y890D01*
X14910Y200D01*
G03X14920Y-1210I718J-700D01*
G37*
G36*
G01X19290Y53080D02*
X18620Y52390D01*
X20000Y50750D01*
X21380Y52390D01*
X20710Y53080D01*
G03X19290I-710J-710D01*
G37*
G36*
G01X21890Y-84830D02*
X20850Y-85870D01*
X22240Y-87380D01*
X23630Y-85870D01*
X22590Y-84830D01*
G03X21890I-350J-350D01*
G37*
G36*
G01X21030Y-19470D02*
X22500D01*
X22590Y-17410D01*
X20530Y-17500D01*
Y-18970D01*
G03X21030Y-19470I500J0D01*
G37*
G36*
G01X34190Y81530D02*
Y82500D01*
X32040Y82680D01*
X32220Y80530D01*
X33190D01*
G03X34190Y81530I0J1000D01*
G37*
G36*
G01X41580Y32710D02*
X40890Y33380D01*
X39250Y32000D01*
X40890Y30620D01*
X41580Y31290D01*
G03Y32710I-710J710D01*
G37*
G36*
G01X41980Y184890D02*
X41310Y184200D01*
X42690Y182560D01*
X44070Y184200D01*
X43400Y184890D01*
G03X41980I-710J-710D01*
G37*
G36*
G01X61610Y97980D02*
X62300Y97310D01*
X63940Y98690D01*
X62300Y100070D01*
X61610Y99400D01*
G03Y97980I710J-710D01*
G37*
G54D10*
X-95500Y65500D03*
X-80000Y0D03*
X-70000Y-66000D03*
Y-24000D03*
X-55500Y-26000D03*
X-50000Y0D03*
X-34000Y-20500D03*
X-30500Y-500D03*
X-23330Y-70000D03*
X-23500Y63000D03*
X-16000Y18500D03*
X-17740Y70240D03*
X-14000Y-83500D03*
X-12000Y-52000D03*
X-10500Y-47000D03*
Y21000D03*
X-7500Y-76500D03*
X-4920Y-46580D03*
Y37420D03*
X-3500Y-81000D03*
X4500D03*
X500Y-76500D03*
X2000Y-52500D03*
X500Y-47500D03*
X5500Y37420D03*
X500Y34000D03*
X11000Y-44000D03*
X17000Y-500D03*
X20000Y51000D03*
X22240Y-87260D03*
X22500Y-17500D03*
X32220Y82500D03*
X40000Y-10000D03*
X39500Y32000D03*
X42690Y182810D03*
X60000Y-80000D03*
Y-50000D03*
Y-10000D03*
X63690Y98690D03*
G54D20*
X-14760Y-62240D03*
X-12800D03*
Y-17760D03*
X-14760D03*
X-10830Y-62240D03*
X-8860D03*
X-6890D03*
Y-17760D03*
X-8860D03*
X-10830D03*
X-4920Y-62240D03*
X-2950D03*
X-980D03*
Y-17760D03*
X-2950D03*
X-4920D03*
X980Y-62240D03*
X2950D03*
Y-17760D03*
X980D03*
X4920Y-62240D03*
X6890D03*
X8860D03*
Y-17760D03*
X6890D03*
X4920D03*
X10830Y-62240D03*
X12800D03*
X14760D03*
Y-17760D03*
X12800D03*
X10830D03*
G54D11*
X-74800Y-155200D03*
Y174800D03*
X74800Y-155200D03*
Y174800D03*
G54D12*
X-75000Y-125000D03*
Y-115000D03*
X-65000Y-125000D03*
Y-115000D03*
X-55000Y-125000D03*
Y-115000D03*
X-48030Y140000D03*
X-45000Y-125000D03*
Y-115000D03*
X-35000Y-125000D03*
Y-115000D03*
X-25000Y-125000D03*
Y-115000D03*
X-15000Y-125000D03*
Y-115000D03*
X-5000Y-125000D03*
Y-115000D03*
X5000Y-125000D03*
Y-115000D03*
X15000Y-125000D03*
Y-115000D03*
X25000Y-125000D03*
Y-115000D03*
X30710Y140000D03*
X35000Y-125000D03*
Y-115000D03*
X45000Y-125000D03*
Y-115000D03*
X55000Y-125000D03*
Y-115000D03*
X65000Y-125000D03*
Y-115000D03*
X75000Y-125000D03*
Y-115000D03*
G54D21*
X-11810Y200000D03*
X-3940D03*
X3940D03*
X11810D03*
G54D22*
X-7500Y49760D03*
Y70240D03*
X-2500Y49760D03*
Y70240D03*
X2500Y49760D03*
Y70240D03*
X7500Y49760D03*
Y70240D03*
G54D13*
X-70000Y-56310D03*
Y-48440D03*
Y-40560D03*
Y-32690D03*
G54D14*
X-75900Y38000D03*
Y43000D03*
Y48000D03*
Y58000D03*
Y53000D03*
Y63000D03*
Y68000D03*
Y73000D03*
X-38100Y38000D03*
Y43000D03*
Y48000D03*
Y53000D03*
Y58000D03*
Y63000D03*
Y68000D03*
Y73000D03*
G54D23*
X29310Y200000D03*
X42690D03*
G54D24*
X40940Y71420D03*
X50000D03*
X59060D03*
G54D15*
X-70330Y28000D03*
X-61670D03*
X-54330D03*
X-45670D03*
X-23330Y-77500D03*
X-23420Y-500D03*
X-14670Y-77500D03*
X-14760Y-500D03*
X-2950D03*
X5710D03*
X45670Y32000D03*
X54330D03*
G54D16*
X-55500Y-57100D03*
Y-48440D03*
Y-40560D03*
Y-31900D03*
X22240Y-81830D03*
Y-73170D03*
X20000Y61580D03*
Y70240D03*
G54D25*
X50000Y48580D03*
G54D17*
X-39230Y-33270D03*
X-35500Y-41000D03*
X-35350Y-36150D03*
X-35500Y-29500D03*
X-33000Y-26500D03*
X-28500Y-44000D03*
X-31480Y-40980D03*
G54D26*
X50000Y85310D03*
Y98690D03*
G54D27*
G01X55000Y-115000D02*
X60000Y-120000D01*
Y-131500D01*
X56500Y-135000D01*
X-76760D01*
X-85950Y-125810D01*
Y-125550D01*
X-86000Y-125500D01*
Y-20000D01*
X-80500Y-14500D01*
X-45500D01*
X-42500Y-17500D01*
Y-45500D01*
X-41110Y-46890D01*
X-22240D01*
G01X55000Y-125000D02*
X47500Y-132500D01*
X-76500D01*
X-84000Y-125000D01*
Y-21000D01*
X-79500Y-16500D01*
X-47500D01*
X-44500Y-19500D01*
Y-47500D01*
X-43140Y-48860D01*
X-22240D01*
G01Y-50830D02*
X-45170D01*
X-46550Y-49450D01*
Y-21450D01*
X-49500Y-18500D01*
X-77500D01*
X-82000Y-23000D01*
Y-118000D01*
X-75000Y-125000D01*
G01X-81750Y61240D02*
X-75900Y63000D01*
G01X-81750Y66240D02*
X-75900Y68000D01*
G01X-75000Y-115000D02*
Y-109540D01*
G01Y-115000D02*
X-70140Y-110140D01*
G01X-75900Y58000D02*
X-70050D01*
G01X-75900D02*
X-70050Y59760D01*
G01X-75900Y63000D02*
X-70050D01*
G01X-75900Y68000D02*
X-70050D01*
G01X-75900Y73000D02*
Y76090D01*
G01Y73000D02*
X-70050D01*
G01X-70000Y-32690D02*
X-62180Y-29560D01*
G01X-70000Y-32690D02*
X-66090Y-28990D01*
G01X10830Y-62240D02*
Y-85170D01*
X6000Y-90000D01*
X-57000D01*
X-60000Y-93000D01*
Y-120000D01*
X-65000Y-125000D01*
G01X8860Y-62240D02*
Y-84140D01*
X4950Y-88050D01*
X-60050D01*
X-65000Y-93000D01*
Y-115000D01*
G01X-60070Y-34440D02*
X-55500Y-31900D01*
G01X14760Y-62240D02*
Y-88740D01*
X9500Y-94000D01*
X-46000D01*
X-50000Y-98000D01*
Y-120000D01*
X-55000Y-125000D01*
G01X12800Y-62240D02*
Y-86700D01*
X7500Y-92000D01*
X-52000D01*
X-55000Y-95000D01*
Y-115000D01*
G01X-10830Y-62240D02*
X-10810Y-62220D01*
Y-57690D01*
X-11500Y-57000D01*
X-48500D01*
X-50500Y-55000D01*
Y-49440D01*
X-51500Y-48440D01*
X-55500D01*
G01Y-40560D02*
X-50500D01*
X-48500Y-42560D01*
Y-53500D01*
X-47240Y-54760D01*
X-22240D01*
G01X-55500Y-31900D02*
X-50930Y-29360D01*
G01X-45000Y-125000D02*
X-40000Y-120000D01*
Y-102000D01*
X-36000Y-98000D01*
X28500D01*
X36000Y-90500D01*
Y-51500D01*
X33360Y-48860D01*
X22240D01*
G01Y-50830D02*
X31830D01*
X34000Y-53000D01*
Y-88000D01*
X26000Y-96000D01*
X-42000D01*
X-45000Y-99000D01*
Y-115000D01*
G01X-43950Y56240D02*
X-38100Y58000D01*
G01X-43950Y53000D02*
X-38100D01*
G01X-43950Y61240D02*
X-38100Y63000D01*
G01X-43950Y58000D02*
X-38100D01*
G01X-43950Y66240D02*
X-38100Y68000D01*
G01X-43950Y63000D02*
X-38100D01*
G01X-43950Y68000D02*
X-38100D01*
G01X-43950Y73000D02*
X-38100D01*
G01X-39230Y-33270D02*
X-28230D01*
X-26420Y-35080D01*
X-22240D01*
G01X-38100Y53000D02*
X-32250Y54760D01*
G01X-38100Y73000D02*
Y76090D01*
G01X-35500Y-41000D02*
Y-40920D01*
X-32680Y-38100D01*
X-29400D01*
X-28480Y-39020D01*
X-22240D01*
G01X-35350Y-36150D02*
X-28590D01*
X-27690Y-37050D01*
X-22240D01*
G01Y-31140D02*
X-33860D01*
X-35500Y-29500D01*
G01X-34000Y-20500D02*
X-27300Y-27200D01*
X-22240D01*
G01Y-29170D02*
X-30330D01*
X-33000Y-26500D01*
G01X-29670Y-180160D02*
X-24610D01*
G01X-22240Y-42950D02*
X-27450D01*
X-28500Y-44000D01*
G01X-31480Y-40980D02*
X-22240D01*
G01X-24610Y-186800D02*
Y-180160D01*
G01D02*
Y-173520D01*
G01Y-180160D02*
X-19550D01*
G01X-23330Y-77500D02*
Y-70000D01*
G01D02*
Y-64330D01*
X-21240Y-62240D01*
X-14760D01*
G01X-22240Y-27200D02*
X-18300D01*
X-17500Y-28000D01*
Y-32500D01*
X-18110Y-33110D01*
X-22240D01*
G01X-15400Y-24400D02*
X-16240Y-25240D01*
X-22240D01*
G01X-23420Y-5070D02*
Y-500D01*
G01D02*
Y4070D01*
G01X-14670Y-77500D02*
Y-70870D01*
X-12800Y-69000D01*
Y-62240D01*
G01X-8860D02*
Y-55140D01*
X-12000Y-52000D01*
G01X-15400Y-24400D02*
Y-24600D01*
X-12000Y-28000D01*
G01X-14760Y-17760D02*
Y-23760D01*
X-15400Y-24400D01*
G01X-14760Y-500D02*
Y-17760D01*
G01X-11810Y195730D02*
Y200000D01*
G01D02*
Y204270D01*
G01X-16080Y200000D02*
X-11810D01*
G01X-7500Y-76500D02*
Y-72000D01*
X-5000Y-69500D01*
X0D01*
X980Y-68520D01*
Y-62240D01*
G01X-6890D02*
Y-50610D01*
X-10500Y-47000D01*
G01X-7500Y65570D02*
Y70240D01*
G01D02*
Y74910D01*
G01X-5000Y-125000D02*
X0Y-120000D01*
Y-104000D01*
X3500Y-100500D01*
X30500D01*
X38000Y-93000D01*
Y-49500D01*
X35390Y-46890D01*
X22240D01*
G01X-3500Y-81000D02*
Y-73500D01*
X-1500Y-71500D01*
X1000D01*
X2950Y-69550D01*
Y-62240D01*
G01X-4920D02*
Y-46580D01*
G01X-2950Y-62240D02*
Y-50950D01*
X500Y-47500D01*
G01X-980Y-62240D02*
Y-55480D01*
X2000Y-52500D01*
G01X-2950Y-17760D02*
Y-500D01*
G01X4920Y-62240D02*
Y-72080D01*
X500Y-76500D01*
G01X3170Y-5070D02*
X5710Y-500D01*
G01X5000Y-125000D02*
X10000Y-120000D01*
Y-106500D01*
X12050Y-104450D01*
X33550D01*
X42000Y-96000D01*
Y-45500D01*
X39450Y-42950D01*
X22240D01*
G01X5000Y-115000D02*
Y-104500D01*
X7000Y-102500D01*
X32000D01*
X40000Y-94500D01*
Y-48000D01*
X36920Y-44920D01*
X22240D01*
G01X6890Y-62240D02*
Y-74930D01*
X4500Y-77320D01*
Y-81000D01*
G01X8860Y-17760D02*
Y-28000D01*
G01X6890Y-17760D02*
Y-5740D01*
G01D02*
X5710Y-4560D01*
G01D02*
Y-500D01*
G01D02*
Y4070D01*
G01X22240Y-54760D02*
X12000D01*
G01X22240Y-29170D02*
X12000D01*
G01X19550Y-180160D02*
X24610D01*
G01X22500Y-17500D02*
X17000Y-23000D01*
Y-26020D01*
X18180Y-27200D01*
X22240D01*
G01X20000Y61580D02*
X24570Y59040D01*
G01X17720Y58620D02*
X20000Y61580D01*
G01X70000Y-132000D02*
Y-106000D01*
G01X55760Y-25240D02*
X22240D01*
G01X24610Y-186800D02*
Y-180160D01*
G01D02*
Y-173520D01*
G01Y-180160D02*
X29670D01*
G01X22240Y-81830D02*
Y-87260D01*
G01Y-81830D02*
X26670D01*
G01X22240D02*
X26810Y-79290D01*
G01X22240Y-81830D02*
X26810Y-84370D01*
G01X22240Y-54760D02*
Y-73170D01*
G01X28500Y-80000D02*
Y-54500D01*
X26800Y-52800D01*
X22240D01*
G01Y-37050D02*
X40050D01*
X44000Y-41000D01*
Y-97500D01*
X35000Y-106500D01*
Y-115000D01*
G01X45000D02*
Y-105500D01*
X48000Y-102500D01*
Y-38000D01*
X43110Y-33110D01*
X22240D01*
G01Y-35080D02*
X41580D01*
X46000Y-39500D01*
Y-99500D01*
X40000Y-105500D01*
Y-120000D01*
X35000Y-125000D01*
G01X22240Y-31140D02*
X44640D01*
X50000Y-36500D01*
Y-120000D01*
X45000Y-125000D01*
G01X26670Y-81830D02*
X28500Y-80000D01*
G01X25250Y140000D02*
X30710D01*
G01Y134540D02*
Y140000D01*
G01D02*
Y145460D01*
G01Y140000D02*
X36170D01*
G01X40940Y65280D02*
Y71420D01*
G01X37160D02*
X40940D01*
G01X38910Y200000D02*
X42690D01*
G01X45670Y27430D02*
Y32000D01*
G01D02*
Y36570D01*
G01X42970Y98690D02*
X50000D01*
G01X42690Y200000D02*
X46470D01*
G01X50000Y94910D02*
Y98690D01*
G01D02*
Y102470D01*
G54D18*
X-24610Y-199840D03*
Y-180160D03*
X24610Y-199840D03*
Y-180160D03*
G54D28*
G01X-75900Y43000D02*
X-87000D01*
G01X-88420Y65500D02*
X-95500D01*
G01X-70330Y28000D02*
X-94000D01*
G01X-86500Y58000D02*
X-88420Y59920D01*
Y63000D01*
G01X-75900Y58000D02*
X-86500D01*
G01X-75900Y68000D02*
X-88420D01*
G01X-75900Y63000D02*
X-88420D01*
G01Y68000D02*
Y71580D01*
X-87000Y73000D01*
G01X-88420Y65500D02*
Y68000D01*
G01Y63000D02*
Y65500D01*
G01X-87000Y73000D02*
X-75900D01*
G01X-23330Y-70000D02*
X-66000D01*
X-70000Y-66000D01*
G01Y-56310D02*
X-60850D01*
X-60060Y-57100D01*
X-55500D01*
G01X-70000Y-48440D02*
X-55500D01*
G01X-70000Y-40560D02*
X-55500D01*
G01X-70000Y-32690D02*
X-60850D01*
G01D02*
X-60060Y-31900D01*
G01D02*
X-55500D01*
G01X-16000Y18500D02*
X-60500D01*
X-61670Y19670D01*
Y28000D01*
G01D02*
Y40330D01*
X-59000Y43000D01*
X-38100D01*
G01X-55500Y-31900D02*
Y-26000D01*
G01X-10500Y21000D02*
X-13500Y24000D01*
X-40000D01*
X-42000Y22000D01*
X-52890D01*
X-54330Y23440D01*
Y28000D01*
G01X-38100Y38000D02*
X-52000D01*
X-54330Y35670D01*
Y28000D01*
G01X-48030Y140000D02*
X-54000Y134030D01*
Y52000D01*
X-50000Y48000D01*
X-38100D01*
G01X-2000Y12000D02*
Y22000D01*
X-8000Y28000D01*
X-45670D01*
G01X-38100Y53000D02*
X-30000D01*
G01X-38100Y58000D02*
X-28500D01*
G01X-38100Y68000D02*
X-28500D01*
G01X-38100Y63000D02*
X-28500D01*
G01X-38100Y73000D02*
X-30000D01*
G01X-23420Y-500D02*
X-30500D01*
G01X-30000Y53000D02*
X-28500Y54500D01*
Y58000D01*
G01D02*
Y63000D01*
G01Y68000D02*
Y63000D01*
G01D02*
X-23500D01*
G01X-30000Y73000D02*
X-28500Y71500D01*
Y68000D01*
G01X-24610Y-199840D02*
X24610D01*
G01X-7500Y70240D02*
X-17740D01*
G01X-14670Y-77500D02*
Y-82830D01*
X-14000Y-83500D01*
G01X500Y34000D02*
X-2500Y31000D01*
X-7660D01*
X-12660Y36000D01*
Y48340D01*
X-11240Y49760D01*
X-7500D01*
G01X7500D02*
Y44000D01*
X5500Y42000D01*
X-3000D01*
X-4920Y40080D01*
Y37420D01*
G01X-2500Y49760D02*
X2500D01*
G01X-3940Y200000D02*
Y191440D01*
X-2500Y190000D01*
Y70240D01*
G01X2500Y49760D02*
Y55000D01*
X4000Y56500D01*
X11500D01*
X13250Y54750D01*
Y39750D01*
X10920Y37420D01*
X5500D01*
G01X3940Y200000D02*
Y191940D01*
X2500Y190500D01*
Y70240D01*
G01X5710Y-500D02*
X17000D01*
G01X7500Y70240D02*
X20000D01*
G01Y61580D02*
Y51000D01*
G01X24610Y-199840D02*
X29660D01*
X35500Y-194000D01*
Y-146500D01*
X43500Y-138500D01*
X65500D01*
X70000Y-134000D01*
Y-132000D01*
G01Y-106000D02*
Y-29240D01*
X66000Y-25240D01*
X55760D01*
G01X40940Y71420D02*
Y73780D01*
X32220Y82500D01*
G01X45670Y32000D02*
X39500D01*
G01X42690Y200000D02*
Y182810D01*
G01X50000Y98690D02*
X63690D01*
G54D19*
X-22240Y-54760D03*
Y-48860D03*
Y-50830D03*
Y-52800D03*
Y-42950D03*
Y-44920D03*
Y-46890D03*
Y-39020D03*
Y-40980D03*
Y-33110D03*
Y-35080D03*
Y-37050D03*
Y-27200D03*
Y-29170D03*
Y-31140D03*
Y-25240D03*
X22240Y-54760D03*
Y-52800D03*
Y-50830D03*
Y-48860D03*
Y-46890D03*
Y-44920D03*
Y-42950D03*
Y-40980D03*
Y-39020D03*
Y-37050D03*
Y-35080D03*
Y-33110D03*
Y-31140D03*
Y-29170D03*
Y-27200D03*
Y-25240D03*
G54D29*
G01X-94000Y28000D02*
Y16000D01*
X-90000Y12000D01*
X-14760D01*
G01X-87000Y43000D02*
X-91000D01*
X-94000Y40000D01*
Y28000D01*
G01X-70000Y-56310D02*
Y-66000D01*
G01Y-32690D02*
Y-24000D01*
G01X-14760Y-500D02*
Y12000D01*
G01D02*
X-2000D01*
G01D02*
X78000D01*
G01X20000Y70240D02*
Y96000D01*
X11810Y104190D01*
Y200000D01*
G01D02*
X29310D01*
G01X54000Y21160D02*
X32840D01*
X30000Y24000D01*
Y68000D01*
X27760Y70240D01*
X20000D01*
G01X50000Y71420D02*
Y48580D01*
G01Y71420D02*
Y85310D01*
G01D02*
X72690D01*
X78000Y80000D01*
Y12000D01*
G01X59060Y71420D02*
X66580D01*
X70000Y68000D01*
Y26000D01*
X65160Y21160D01*
X54000D01*
G01X54330Y32000D02*
Y21490D01*
X54000Y21160D01*
G01X87000Y-118000D02*
Y-123500D01*
X85500Y-125000D01*
X75000D01*
G01X78000Y12000D02*
Y-105540D01*
X75000Y-108540D01*
Y-115000D01*
M02*
