G04 ================== begin FILE IDENTIFICATION RECORD ==================*
G04 Layout Name:  D:/winprj/orcad/美容护理/水床18/核心板/pcb/pcb.brd*
G04 Film Name:    DRILL*
G04 File Format:  Gerber RS274X*
G04 File Origin:  Cadence Allegro 16.6-2015-S108*
G04 Origin Date:  Thu Oct 18 11:45:50 2018*
G04 *
G04 Layer:  MANUFACTURING/NCLEGEND-1-2*
G04 Layer:  MANUFACTURING/PHOTOPLOT_OUTLINE*
G04 Layer:  BOARD GEOMETRY/OUTLINE*
G04 *
G04 Offset:    (0.0 0.0)*
G04 Mirror:    No*
G04 Mode:      Positive*
G04 Rotation:  0*
G04 FullContactRelief:  No*
G04 UndefLineWidth:     6.0*
G04 ================== end FILE IDENTIFICATION RECORD ====================*
%FSLAX25Y25*MOIN*%
%IR0*IPPOS*OFA0.00000B0.00000*MIA0B0*SFA1.00000B1.00000*%
%AMMACRO13*
1,1,.006,.00985,0.0*
20,1,.006,.00985,0.0,-.00985,0.0,0.0*
1,1,.006,-.00985,0.0*
1,1,.006,0.0,.00985*
20,1,.006,0.0,.00985,0.0,-.00985,0.0*
1,1,.006,0.0,-.00985*
%
%ADD13MACRO13*%
%AMMACRO10*
1,1,.006,.0197,0.0*
20,1,.006,.0197,0.0,.019401,-.003421,0.0*
1,1,.006,.019401,-.003421*
20,1,.006,.019401,-.003421,.018512,-.006738,0.0*
1,1,.006,.018512,-.006738*
20,1,.006,.018512,-.006738,.017061,-.00985,0.0*
1,1,.006,.017061,-.00985*
20,1,.006,.017061,-.00985,.015091,-.012663,0.0*
1,1,.006,.015091,-.012663*
20,1,.006,.015091,-.012663,.012663,-.015091,0.0*
1,1,.006,.012663,-.015091*
20,1,.006,.012663,-.015091,.00985,-.017061,0.0*
1,1,.006,.00985,-.017061*
20,1,.006,.00985,-.017061,.006738,-.018512,0.0*
1,1,.006,.006738,-.018512*
20,1,.006,.006738,-.018512,.003421,-.019401,0.0*
1,1,.006,.003421,-.019401*
20,1,.006,.003421,-.019401,0.0,-.0197,0.0*
1,1,.006,0.0,-.0197*
20,1,.006,0.0,-.0197,-.003421,-.019401,0.0*
1,1,.006,-.003421,-.019401*
20,1,.006,-.003421,-.019401,-.006738,-.018512,0.0*
1,1,.006,-.006738,-.018512*
20,1,.006,-.006738,-.018512,-.00985,-.017061,0.0*
1,1,.006,-.00985,-.017061*
20,1,.006,-.00985,-.017061,-.012663,-.015091,0.0*
1,1,.006,-.012663,-.015091*
20,1,.006,-.012663,-.015091,-.015091,-.012663,0.0*
1,1,.006,-.015091,-.012663*
20,1,.006,-.015091,-.012663,-.017061,-.00985,0.0*
1,1,.006,-.017061,-.00985*
20,1,.006,-.017061,-.00985,-.018512,-.006738,0.0*
1,1,.006,-.018512,-.006738*
20,1,.006,-.018512,-.006738,-.019401,-.003421,0.0*
1,1,.006,-.019401,-.003421*
20,1,.006,-.019401,-.003421,-.0197,0.0,0.0*
1,1,.006,-.0197,0.0*
20,1,.006,-.0197,0.0,-.019401,.003421,0.0*
1,1,.006,-.019401,.003421*
20,1,.006,-.019401,.003421,-.018512,.006738,0.0*
1,1,.006,-.018512,.006738*
20,1,.006,-.018512,.006738,-.017061,.00985,0.0*
1,1,.006,-.017061,.00985*
20,1,.006,-.017061,.00985,-.015091,.012663,0.0*
1,1,.006,-.015091,.012663*
20,1,.006,-.015091,.012663,-.012663,.015091,0.0*
1,1,.006,-.012663,.015091*
20,1,.006,-.012663,.015091,-.00985,.017061,0.0*
1,1,.006,-.00985,.017061*
20,1,.006,-.00985,.017061,-.006738,.018512,0.0*
1,1,.006,-.006738,.018512*
20,1,.006,-.006738,.018512,-.003421,.019401,0.0*
1,1,.006,-.003421,.019401*
20,1,.006,-.003421,.019401,0.0,.0197,0.0*
1,1,.006,0.0,.0197*
20,1,.006,0.0,.0197,.003421,.019401,0.0*
1,1,.006,.003421,.019401*
20,1,.006,.003421,.019401,.006738,.018512,0.0*
1,1,.006,.006738,.018512*
20,1,.006,.006738,.018512,.00985,.017061,0.0*
1,1,.006,.00985,.017061*
20,1,.006,.00985,.017061,.012663,.015091,0.0*
1,1,.006,.012663,.015091*
20,1,.006,.012663,.015091,.015091,.012663,0.0*
1,1,.006,.015091,.012663*
20,1,.006,.015091,.012663,.017061,.00985,0.0*
1,1,.006,.017061,.00985*
20,1,.006,.017061,.00985,.018512,.006738,0.0*
1,1,.006,.018512,.006738*
20,1,.006,.018512,.006738,.019401,.003421,0.0*
1,1,.006,.019401,.003421*
20,1,.006,.019401,.003421,.0197,0.0,0.0*
1,1,.006,.0197,0.0*
1,1,.006,.00985,0.0*
20,1,.006,.00985,0.0,-.00985,0.0,0.0*
1,1,.006,-.00985,0.0*
1,1,.006,0.0,.00985*
20,1,.006,0.0,.00985,0.0,-.00985,0.0*
1,1,.006,0.0,-.00985*
%
%ADD10MACRO10*%
%AMMACRO11*
1,1,.006,.0197,0.0*
20,1,.006,.0197,0.0,.019401,-.003421,0.0*
1,1,.006,.019401,-.003421*
20,1,.006,.019401,-.003421,.018512,-.006738,0.0*
1,1,.006,.018512,-.006738*
20,1,.006,.018512,-.006738,.017061,-.00985,0.0*
1,1,.006,.017061,-.00985*
20,1,.006,.017061,-.00985,.015091,-.012663,0.0*
1,1,.006,.015091,-.012663*
20,1,.006,.015091,-.012663,.012663,-.015091,0.0*
1,1,.006,.012663,-.015091*
20,1,.006,.012663,-.015091,.00985,-.017061,0.0*
1,1,.006,.00985,-.017061*
20,1,.006,.00985,-.017061,.006738,-.018512,0.0*
1,1,.006,.006738,-.018512*
20,1,.006,.006738,-.018512,.003421,-.019401,0.0*
1,1,.006,.003421,-.019401*
20,1,.006,.003421,-.019401,0.0,-.0197,0.0*
1,1,.006,0.0,-.0197*
20,1,.006,0.0,-.0197,-.003421,-.019401,0.0*
1,1,.006,-.003421,-.019401*
20,1,.006,-.003421,-.019401,-.006738,-.018512,0.0*
1,1,.006,-.006738,-.018512*
20,1,.006,-.006738,-.018512,-.00985,-.017061,0.0*
1,1,.006,-.00985,-.017061*
20,1,.006,-.00985,-.017061,-.012663,-.015091,0.0*
1,1,.006,-.012663,-.015091*
20,1,.006,-.012663,-.015091,-.015091,-.012663,0.0*
1,1,.006,-.015091,-.012663*
20,1,.006,-.015091,-.012663,-.017061,-.00985,0.0*
1,1,.006,-.017061,-.00985*
20,1,.006,-.017061,-.00985,-.018512,-.006738,0.0*
1,1,.006,-.018512,-.006738*
20,1,.006,-.018512,-.006738,-.019401,-.003421,0.0*
1,1,.006,-.019401,-.003421*
20,1,.006,-.019401,-.003421,-.0197,0.0,0.0*
1,1,.006,-.0197,0.0*
20,1,.006,-.0197,0.0,-.019401,.003421,0.0*
1,1,.006,-.019401,.003421*
20,1,.006,-.019401,.003421,-.018512,.006738,0.0*
1,1,.006,-.018512,.006738*
20,1,.006,-.018512,.006738,-.017061,.00985,0.0*
1,1,.006,-.017061,.00985*
20,1,.006,-.017061,.00985,-.015091,.012663,0.0*
1,1,.006,-.015091,.012663*
20,1,.006,-.015091,.012663,-.012663,.015091,0.0*
1,1,.006,-.012663,.015091*
20,1,.006,-.012663,.015091,-.00985,.017061,0.0*
1,1,.006,-.00985,.017061*
20,1,.006,-.00985,.017061,-.006738,.018512,0.0*
1,1,.006,-.006738,.018512*
20,1,.006,-.006738,.018512,-.003421,.019401,0.0*
1,1,.006,-.003421,.019401*
20,1,.006,-.003421,.019401,0.0,.0197,0.0*
1,1,.006,0.0,.0197*
20,1,.006,0.0,.0197,.003421,.019401,0.0*
1,1,.006,.003421,.019401*
20,1,.006,.003421,.019401,.006738,.018512,0.0*
1,1,.006,.006738,.018512*
20,1,.006,.006738,.018512,.00985,.017061,0.0*
1,1,.006,.00985,.017061*
20,1,.006,.00985,.017061,.012663,.015091,0.0*
1,1,.006,.012663,.015091*
20,1,.006,.012663,.015091,.015091,.012663,0.0*
1,1,.006,.015091,.012663*
20,1,.006,.015091,.012663,.017061,.00985,0.0*
1,1,.006,.017061,.00985*
20,1,.006,.017061,.00985,.018512,.006738,0.0*
1,1,.006,.018512,.006738*
20,1,.006,.018512,.006738,.019401,.003421,0.0*
1,1,.006,.019401,.003421*
20,1,.006,.019401,.003421,.0197,0.0,0.0*
1,1,.006,.0197,0.0*
1,1,.006,-.0068,-.0098*
20,1,.006,-.0068,-.0098,-.0068,.0099,0.0*
1,1,.006,-.0068,.0099*
1,1,.006,.0069,.0099*
20,1,.006,.0069,.0099,.0069,-.0098,0.0*
1,1,.006,.0069,-.0098*
1,1,.006,.0069,0.0*
20,1,.006,.0069,0.0,-.0068,0.0,0.0*
1,1,.006,-.0068,0.0*
%
%ADD11MACRO11*%
%AMMACRO12*
1,1,.006,.0197,0.0*
20,1,.006,.0197,0.0,.019401,-.003421,0.0*
1,1,.006,.019401,-.003421*
20,1,.006,.019401,-.003421,.018512,-.006738,0.0*
1,1,.006,.018512,-.006738*
20,1,.006,.018512,-.006738,.017061,-.00985,0.0*
1,1,.006,.017061,-.00985*
20,1,.006,.017061,-.00985,.015091,-.012663,0.0*
1,1,.006,.015091,-.012663*
20,1,.006,.015091,-.012663,.012663,-.015091,0.0*
1,1,.006,.012663,-.015091*
20,1,.006,.012663,-.015091,.00985,-.017061,0.0*
1,1,.006,.00985,-.017061*
20,1,.006,.00985,-.017061,.006738,-.018512,0.0*
1,1,.006,.006738,-.018512*
20,1,.006,.006738,-.018512,.003421,-.019401,0.0*
1,1,.006,.003421,-.019401*
20,1,.006,.003421,-.019401,0.0,-.0197,0.0*
1,1,.006,0.0,-.0197*
20,1,.006,0.0,-.0197,-.003421,-.019401,0.0*
1,1,.006,-.003421,-.019401*
20,1,.006,-.003421,-.019401,-.006738,-.018512,0.0*
1,1,.006,-.006738,-.018512*
20,1,.006,-.006738,-.018512,-.00985,-.017061,0.0*
1,1,.006,-.00985,-.017061*
20,1,.006,-.00985,-.017061,-.012663,-.015091,0.0*
1,1,.006,-.012663,-.015091*
20,1,.006,-.012663,-.015091,-.015091,-.012663,0.0*
1,1,.006,-.015091,-.012663*
20,1,.006,-.015091,-.012663,-.017061,-.00985,0.0*
1,1,.006,-.017061,-.00985*
20,1,.006,-.017061,-.00985,-.018512,-.006738,0.0*
1,1,.006,-.018512,-.006738*
20,1,.006,-.018512,-.006738,-.019401,-.003421,0.0*
1,1,.006,-.019401,-.003421*
20,1,.006,-.019401,-.003421,-.0197,0.0,0.0*
1,1,.006,-.0197,0.0*
20,1,.006,-.0197,0.0,-.019401,.003421,0.0*
1,1,.006,-.019401,.003421*
20,1,.006,-.019401,.003421,-.018512,.006738,0.0*
1,1,.006,-.018512,.006738*
20,1,.006,-.018512,.006738,-.017061,.00985,0.0*
1,1,.006,-.017061,.00985*
20,1,.006,-.017061,.00985,-.015091,.012663,0.0*
1,1,.006,-.015091,.012663*
20,1,.006,-.015091,.012663,-.012663,.015091,0.0*
1,1,.006,-.012663,.015091*
20,1,.006,-.012663,.015091,-.00985,.017061,0.0*
1,1,.006,-.00985,.017061*
20,1,.006,-.00985,.017061,-.006738,.018512,0.0*
1,1,.006,-.006738,.018512*
20,1,.006,-.006738,.018512,-.003421,.019401,0.0*
1,1,.006,-.003421,.019401*
20,1,.006,-.003421,.019401,0.0,.0197,0.0*
1,1,.006,0.0,.0197*
20,1,.006,0.0,.0197,.003421,.019401,0.0*
1,1,.006,.003421,.019401*
20,1,.006,.003421,.019401,.006738,.018512,0.0*
1,1,.006,.006738,.018512*
20,1,.006,.006738,.018512,.00985,.017061,0.0*
1,1,.006,.00985,.017061*
20,1,.006,.00985,.017061,.012663,.015091,0.0*
1,1,.006,.012663,.015091*
20,1,.006,.012663,.015091,.015091,.012663,0.0*
1,1,.006,.015091,.012663*
20,1,.006,.015091,.012663,.017061,.00985,0.0*
1,1,.006,.017061,.00985*
20,1,.006,.017061,.00985,.018512,.006738,0.0*
1,1,.006,.018512,.006738*
20,1,.006,.018512,.006738,.019401,.003421,0.0*
1,1,.006,.019401,.003421*
20,1,.006,.019401,.003421,.0197,0.0,0.0*
1,1,.006,.0197,0.0*
1,1,.006,-.0065,-.0098*
20,1,.006,-.0065,-.0098,-.0065,.0099,0.0*
1,1,.006,-.0065,.0099*
20,1,.006,-.0065,.0099,.0014,.0099,0.0*
1,1,.006,.0014,.0099*
20,1,.006,.0014,.0099,.004,.0089,0.0*
1,1,.006,.004,.0089*
20,1,.006,.004,.0089,.006,.0066,0.0*
1,1,.006,.006,.0066*
20,1,.006,.006,.0066,.0066,.004,0.0*
1,1,.006,.0066,.004*
20,1,.006,.0066,.004,.006,.0014,0.0*
1,1,.006,.006,.0014*
20,1,.006,.006,.0014,.0043,-.0006,0.0*
1,1,.006,.0043,-.0006*
20,1,.006,.0043,-.0006,.0014,-.0016,0.0*
1,1,.006,.0014,-.0016*
20,1,.006,.0014,-.0016,-.0065,-.0016,0.0*
1,1,.006,-.0065,-.0016*
%
%ADD12MACRO12*%
%ADD14C,.012*%
%ADD15C,.006*%
G75*
%LPD*%
G75*
G54D10*
X-95500Y65500D03*
X-80000Y0D03*
X-70000Y-66000D03*
Y-24000D03*
X-55500Y-26000D03*
X-50000Y0D03*
X-39230Y-33270D03*
X-35500Y-41000D03*
X-35350Y-36150D03*
X-35500Y-29500D03*
X-33000Y-26500D03*
X-34000Y-20500D03*
X-28500Y-44000D03*
X-31480Y-40980D03*
X-30500Y-500D03*
X-23330Y-70000D03*
X-23500Y63000D03*
X-16000Y18500D03*
X-17740Y70240D03*
X-14000Y-83500D03*
X-12000Y-52000D03*
X-10500Y-47000D03*
Y21000D03*
X-7500Y-76500D03*
X-4920Y-46580D03*
Y37420D03*
X-3500Y-81000D03*
X4500D03*
X500Y-76500D03*
X2000Y-52500D03*
X500Y-47500D03*
X5500Y37420D03*
X500Y34000D03*
X11000Y-44000D03*
X17000Y-500D03*
X20000Y51000D03*
X22240Y-87260D03*
X22500Y-17500D03*
X32220Y82500D03*
X40000Y-10000D03*
X39500Y32000D03*
X42690Y182810D03*
X60000Y-80000D03*
Y-50000D03*
Y-10000D03*
X63690Y98690D03*
X190950Y-97000D03*
Y-72000D03*
G54D11*
X-74800Y-155200D03*
Y174800D03*
X74800Y-155200D03*
Y174800D03*
X190950Y-122000D03*
G54D12*
X-75000Y-125000D03*
Y-115000D03*
X-65000Y-125000D03*
Y-115000D03*
X-55000Y-125000D03*
Y-115000D03*
X-48030Y140000D03*
X-45000Y-125000D03*
Y-115000D03*
X-35000Y-125000D03*
Y-115000D03*
X-25000Y-125000D03*
Y-115000D03*
X-15000Y-125000D03*
Y-115000D03*
X-11810Y200000D03*
X-5000Y-125000D03*
Y-115000D03*
X-3940Y200000D03*
X5000Y-125000D03*
Y-115000D03*
X3940Y200000D03*
X15000Y-125000D03*
Y-115000D03*
X11810Y200000D03*
X25000Y-125000D03*
Y-115000D03*
X30710Y140000D03*
X35000Y-125000D03*
Y-115000D03*
X45000Y-125000D03*
Y-115000D03*
X55000Y-125000D03*
Y-115000D03*
X65000Y-125000D03*
Y-115000D03*
X75000Y-125000D03*
Y-115000D03*
X190950Y-47000D03*
Y-22000D03*
Y28000D03*
G54D13*
X-24610Y-199840D03*
Y-180160D03*
X24610Y-199840D03*
Y-180160D03*
X190950Y3000D03*
G54D14*
G01X157000Y46750D02*
Y59250D01*
X162900D01*
G01X160720Y53210D02*
X157000D01*
G01X170490Y59250D02*
X174210D01*
G01X172350D02*
Y46750D01*
G01X170490D02*
X174210D01*
G01X185680Y53000D02*
X188780D01*
Y49250D01*
X187850Y48000D01*
X186760Y47170D01*
X185220Y46750D01*
X183670Y47170D01*
X182580Y48000D01*
X181650Y49250D01*
X181030Y50710D01*
X180720Y52370D01*
Y53830D01*
X181030Y55080D01*
X181650Y56540D01*
X182580Y57790D01*
X183510Y58620D01*
X184750Y59250D01*
X185830D01*
X187070Y58830D01*
X188010Y58000D01*
G01X193740Y59250D02*
Y50290D01*
X194360Y48420D01*
X195600Y47170D01*
X197150Y46750D01*
X198700Y47170D01*
X199940Y48420D01*
X200560Y50290D01*
Y59250D01*
G01X206450Y46750D02*
Y59250D01*
X210320D01*
X211560Y58620D01*
X212340Y57790D01*
X212650Y56120D01*
X212340Y54460D01*
X211410Y53420D01*
X210320Y52790D01*
X206450D01*
G01X210320D02*
X212650Y46750D01*
G01X225050D02*
X218850D01*
Y59250D01*
X225050D01*
G01X222570Y53210D02*
X218850D01*
G01X229390Y96750D02*
Y109250D01*
X232490D01*
X233730Y108620D01*
X234660Y107790D01*
X235440Y106540D01*
X236060Y105080D01*
X236210Y103000D01*
X236060Y100920D01*
X235440Y99460D01*
X234660Y98210D01*
X233730Y97370D01*
X232490Y96750D01*
X229390D01*
G01X242100D02*
Y109250D01*
X245970D01*
X247210Y108620D01*
X247990Y107790D01*
X248300Y106120D01*
X247990Y104460D01*
X247060Y103420D01*
X245970Y102790D01*
X242100D01*
G01X245970D02*
X248300Y96750D01*
G01X255740Y109250D02*
X259460D01*
G01X257600D02*
Y96750D01*
G01X255740D02*
X259460D01*
G01X266900Y109250D02*
Y96750D01*
X273100D01*
G01X279300Y109250D02*
Y96750D01*
X285500D01*
G01X310610Y108210D02*
X309680Y108830D01*
X308600Y109250D01*
X307360D01*
X305960Y108620D01*
X304880Y107580D01*
X304100Y106330D01*
X303480Y104250D01*
X303320Y102370D01*
X303640Y100500D01*
X304100Y99250D01*
X305030Y98000D01*
X306120Y97170D01*
X307200Y96750D01*
X308280D01*
X309370Y97170D01*
X310300Y97790D01*
X311080Y98620D01*
G01X316340Y96750D02*
Y109250D01*
G01X322860D02*
Y96750D01*
G01Y103000D02*
X316340D01*
G01X328120Y96750D02*
X332000Y109250D01*
X335880Y96750D01*
G01X334480Y101120D02*
X329520D01*
G01X341300Y96750D02*
Y109250D01*
X345170D01*
X346410Y108620D01*
X347190Y107790D01*
X347500Y106120D01*
X347190Y104460D01*
X346260Y103420D01*
X345170Y102790D01*
X341300D01*
G01X345170D02*
X347500Y96750D01*
G01X356800Y109250D02*
Y96750D01*
G01X353240Y109250D02*
X360360D01*
G01X369200Y96330D02*
X368890Y96540D01*
Y96960D01*
X369200Y97170D01*
X369510Y96960D01*
Y96540D01*
X369200Y96330D01*
G01Y101960D02*
X368890Y102170D01*
Y102580D01*
X369200Y102790D01*
X369510Y102580D01*
Y102170D01*
X369200Y101960D01*
G01X394000Y109250D02*
Y96750D01*
G01X390440Y109250D02*
X397560D01*
G01X406400Y96750D02*
X405160Y96960D01*
X404080Y97790D01*
X403140Y99040D01*
X402520Y100500D01*
X402210Y102170D01*
Y103830D01*
X402520Y105500D01*
X403140Y106960D01*
X404080Y108210D01*
X405160Y109040D01*
X406400Y109250D01*
X407640Y109040D01*
X408720Y108210D01*
X409660Y106960D01*
X410280Y105500D01*
X410590Y103830D01*
Y102170D01*
X410280Y100500D01*
X409660Y99040D01*
X408720Y97790D01*
X407640Y96960D01*
X406400Y96750D01*
G01X415700D02*
Y109250D01*
X419420D01*
X420660Y108620D01*
X421590Y107170D01*
X421900Y105500D01*
X421590Y103830D01*
X420810Y102580D01*
X419420Y101960D01*
X415700D01*
G01X443600Y109250D02*
Y96750D01*
G01X441430Y105080D02*
X445770D01*
G01X456000Y96750D02*
X455070Y96960D01*
X454140Y97790D01*
X453520Y99250D01*
X453210Y100920D01*
X453520Y102580D01*
X454140Y104040D01*
X455070Y104870D01*
X456000Y105080D01*
X456930Y104870D01*
X457860Y104040D01*
X458480Y102580D01*
X458640Y100920D01*
X458480Y99250D01*
X457860Y97790D01*
X456930Y96960D01*
X456000Y96750D01*
G01X482040Y103420D02*
X482660Y104040D01*
X483120Y105080D01*
X483440Y106540D01*
X483120Y107790D01*
X482510Y108620D01*
X481420Y109250D01*
X477240D01*
Y96750D01*
X482350D01*
X483440Y97580D01*
X484060Y98830D01*
X484360Y100290D01*
X484060Y101750D01*
X483120Y103000D01*
X482040Y103420D01*
X477240D01*
G01X493200Y96750D02*
X491960Y96960D01*
X490880Y97790D01*
X489940Y99040D01*
X489320Y100500D01*
X489010Y102170D01*
Y103830D01*
X489320Y105500D01*
X489940Y106960D01*
X490880Y108210D01*
X491960Y109040D01*
X493200Y109250D01*
X494440Y109040D01*
X495520Y108210D01*
X496460Y106960D01*
X497080Y105500D01*
X497390Y103830D01*
Y102170D01*
X497080Y100500D01*
X496460Y99040D01*
X495520Y97790D01*
X494440Y96960D01*
X493200Y96750D01*
G01X505600Y109250D02*
Y96750D01*
G01X502040Y109250D02*
X509160D01*
G01X518000D02*
Y96750D01*
G01X514440Y109250D02*
X521560D01*
G01X530400Y96750D02*
X529160Y96960D01*
X528080Y97790D01*
X527140Y99040D01*
X526520Y100500D01*
X526210Y102170D01*
Y103830D01*
X526520Y105500D01*
X527140Y106960D01*
X528080Y108210D01*
X529160Y109040D01*
X530400Y109250D01*
X531640Y109040D01*
X532720Y108210D01*
X533660Y106960D01*
X534280Y105500D01*
X534590Y103830D01*
Y102170D01*
X534280Y100500D01*
X533660Y99040D01*
X532720Y97790D01*
X531640Y96960D01*
X530400Y96750D01*
G01X538770D02*
Y109250D01*
X542800Y98830D01*
X546830Y109250D01*
Y96750D01*
G01X259920Y71750D02*
X263800Y84250D01*
X267680Y71750D01*
G01X266280Y76120D02*
X261320D01*
G01X273100Y84250D02*
Y71750D01*
X279300D01*
G01X285500Y84250D02*
Y71750D01*
X291700D01*
G01X309990Y84250D02*
Y75290D01*
X310610Y73420D01*
X311850Y72170D01*
X313400Y71750D01*
X314950Y72170D01*
X316190Y73420D01*
X316810Y75290D01*
Y84250D01*
G01X322240Y71750D02*
Y84250D01*
X329360Y71750D01*
Y84250D01*
G01X336340D02*
X340060D01*
G01X338200D02*
Y71750D01*
G01X336340D02*
X340060D01*
G01X350600Y84250D02*
Y71750D01*
G01X347040Y84250D02*
X354160D01*
G01X359740Y73420D02*
X360990Y72370D01*
X362380Y71750D01*
X363620D01*
X364860Y72370D01*
X365790Y73420D01*
X366260Y74880D01*
X365950Y76330D01*
X365170Y77580D01*
X363770Y78420D01*
X361920Y78830D01*
X360830Y79670D01*
X360360Y81120D01*
X360680Y82580D01*
X361450Y83620D01*
X362530Y84250D01*
X363620D01*
X364710Y83830D01*
X365640Y82790D01*
G01X383920Y71750D02*
X387800Y84250D01*
X391680Y71750D01*
G01X390280Y76120D02*
X385320D01*
G01X397100Y71750D02*
Y84250D01*
X400970D01*
X402210Y83620D01*
X402990Y82790D01*
X403300Y81120D01*
X402990Y79460D01*
X402060Y78420D01*
X400970Y77790D01*
X397100D01*
G01X400970D02*
X403300Y71750D01*
G01X415700D02*
X409500D01*
Y84250D01*
X415700D01*
G01X413220Y78210D02*
X409500D01*
G01X435540Y84250D02*
X439260D01*
G01X437400D02*
Y71750D01*
G01X435540D02*
X439260D01*
G01X446240D02*
Y84250D01*
X453360Y71750D01*
Y84250D01*
G01X470570Y71750D02*
Y84250D01*
X474600Y73830D01*
X478630Y84250D01*
Y71750D01*
G01X485140Y84250D02*
X488860D01*
G01X487000D02*
Y71750D01*
G01X485140D02*
X488860D01*
G01X496300Y84250D02*
Y71750D01*
X502500D01*
G01X508540Y73420D02*
X509790Y72370D01*
X511180Y71750D01*
X512420D01*
X513660Y72370D01*
X514590Y73420D01*
X515060Y74880D01*
X514750Y76330D01*
X513970Y77580D01*
X512570Y78420D01*
X510720Y78830D01*
X509630Y79670D01*
X509160Y81120D01*
X509480Y82580D01*
X510250Y83620D01*
X511330Y84250D01*
X512420D01*
X513510Y83830D01*
X514440Y82790D01*
G01X305650Y-128250D02*
Y-115750D01*
X303790Y-118250D01*
G01Y-128250D02*
X307510D01*
G01X314640Y-126380D02*
X315570Y-127420D01*
X316650Y-128040D01*
X318050Y-128250D01*
X319450Y-127830D01*
X320530Y-127000D01*
X321310Y-125540D01*
X321460Y-123880D01*
X321150Y-122210D01*
X320370Y-121170D01*
X319290Y-120330D01*
X318210Y-120130D01*
X317120Y-120330D01*
X315730Y-121170D01*
X316190Y-115750D01*
X320370D01*
G01X330140Y-128250D02*
X330450Y-125540D01*
X330920Y-123250D01*
X331530Y-121170D01*
X332310Y-118880D01*
X333550Y-115750D01*
X327350D01*
G01X342850Y-128670D02*
X342540Y-128460D01*
Y-128040D01*
X342850Y-127830D01*
X343160Y-128040D01*
Y-128460D01*
X342850Y-128670D01*
G01X351840Y-126380D02*
X352770Y-127420D01*
X353850Y-128040D01*
X355250Y-128250D01*
X356650Y-127830D01*
X357730Y-127000D01*
X358510Y-125540D01*
X358660Y-123880D01*
X358350Y-122210D01*
X357570Y-121170D01*
X356490Y-120330D01*
X355410Y-120130D01*
X354320Y-120330D01*
X352930Y-121170D01*
X353390Y-115750D01*
X357570D01*
G01X311850Y-103250D02*
Y-90750D01*
X309990Y-93250D01*
G01Y-103250D02*
X313710D01*
G01X324250D02*
Y-90750D01*
X322390Y-93250D01*
G01Y-103250D02*
X326110D01*
G01X336650Y-103670D02*
X336340Y-103460D01*
Y-103040D01*
X336650Y-102830D01*
X336960Y-103040D01*
Y-103460D01*
X336650Y-103670D01*
G01X349050Y-103250D02*
X350130Y-103040D01*
X351370Y-102420D01*
X352150Y-101380D01*
X352460Y-99920D01*
X352150Y-98460D01*
X351220Y-97210D01*
X349820Y-96580D01*
X348280D01*
X347340Y-96170D01*
X346570Y-95130D01*
X346260Y-93670D01*
X346730Y-92210D01*
X347810Y-91170D01*
X349050Y-90750D01*
X350290Y-91170D01*
X351370Y-92210D01*
X351840Y-93670D01*
X351530Y-95130D01*
X350760Y-96170D01*
X349820Y-96580D01*
X348280D01*
X346880Y-97210D01*
X345950Y-98460D01*
X345640Y-99920D01*
X345950Y-101380D01*
X346730Y-102420D01*
X347970Y-103040D01*
X349050Y-103250D01*
G01X311850Y-78250D02*
Y-65750D01*
X309990Y-68250D01*
G01Y-78250D02*
X313710D01*
G01X321610Y-76790D02*
X322700Y-77830D01*
X323940Y-78250D01*
X325180Y-77830D01*
X326260Y-76580D01*
X327040Y-74710D01*
X327350Y-72830D01*
Y-70540D01*
X327040Y-68670D01*
X326260Y-67000D01*
X325330Y-66170D01*
X324250Y-65750D01*
X323010Y-66170D01*
X322080Y-67000D01*
X321460Y-68250D01*
X321150Y-69920D01*
X321460Y-71370D01*
X322240Y-72830D01*
X323170Y-73670D01*
X324250Y-73880D01*
X325490Y-73460D01*
X326420Y-72420D01*
X327350Y-70540D01*
G01X336650Y-78670D02*
X336340Y-78460D01*
Y-78040D01*
X336650Y-77830D01*
X336960Y-78040D01*
Y-78460D01*
X336650Y-78670D01*
G01X348740Y-78250D02*
X349050Y-75540D01*
X349520Y-73250D01*
X350130Y-71170D01*
X350910Y-68880D01*
X352150Y-65750D01*
X345950D01*
G01X308900Y-42830D02*
X309840Y-41580D01*
X310920Y-40960D01*
X312160Y-40750D01*
X313710Y-41170D01*
X314800Y-42210D01*
X315110Y-43460D01*
X314950Y-44710D01*
X314330Y-45750D01*
X311230Y-47830D01*
X309840Y-49290D01*
X308900Y-51380D01*
X308590Y-53250D01*
X315110D01*
G01X320840Y-50750D02*
X321770Y-52210D01*
X323010Y-53040D01*
X324410Y-53250D01*
X325650Y-53040D01*
X326890Y-52000D01*
X327660Y-50750D01*
X327810Y-49500D01*
X327510Y-48040D01*
X326420Y-47000D01*
X325330Y-46580D01*
X323940D01*
G01X325330D02*
X326260Y-45960D01*
X327040Y-44920D01*
X327350Y-43670D01*
X327040Y-42420D01*
X326260Y-41380D01*
X324870Y-40750D01*
X323480Y-40960D01*
X322080Y-41790D01*
G01X336650Y-53670D02*
X336340Y-53460D01*
Y-53040D01*
X336650Y-52830D01*
X336960Y-53040D01*
Y-53460D01*
X336650Y-53670D01*
G01X346100Y-48040D02*
X347190Y-46580D01*
X348120Y-45750D01*
X349360Y-45330D01*
X350450Y-45750D01*
X351220Y-46580D01*
X351840Y-47830D01*
X352000Y-49290D01*
X351840Y-50540D01*
X351220Y-51790D01*
X350290Y-52830D01*
X349210Y-53250D01*
X347970Y-52830D01*
X346880Y-51580D01*
X346260Y-49710D01*
X346100Y-47630D01*
X346410Y-44920D01*
X346880Y-43460D01*
X347650Y-42000D01*
X348740Y-40960D01*
X349820Y-40750D01*
X350910Y-41170D01*
X351690Y-42210D01*
G01X308440Y-25750D02*
X309370Y-27210D01*
X310610Y-28040D01*
X312010Y-28250D01*
X313250Y-28040D01*
X314490Y-27000D01*
X315260Y-25750D01*
X315410Y-24500D01*
X315110Y-23040D01*
X314020Y-22000D01*
X312930Y-21580D01*
X311540D01*
G01X312930D02*
X313860Y-20960D01*
X314640Y-19920D01*
X314950Y-18670D01*
X314640Y-17420D01*
X313860Y-16380D01*
X312470Y-15750D01*
X311080Y-15960D01*
X309680Y-16790D01*
G01X321610Y-26790D02*
X322700Y-27830D01*
X323940Y-28250D01*
X325180Y-27830D01*
X326260Y-26580D01*
X327040Y-24710D01*
X327350Y-22830D01*
Y-20540D01*
X327040Y-18670D01*
X326260Y-17000D01*
X325330Y-16170D01*
X324250Y-15750D01*
X323010Y-16170D01*
X322080Y-17000D01*
X321460Y-18250D01*
X321150Y-19920D01*
X321460Y-21370D01*
X322240Y-22830D01*
X323170Y-23670D01*
X324250Y-23880D01*
X325490Y-23460D01*
X326420Y-22420D01*
X327350Y-20540D01*
G01X336650Y-28670D02*
X336340Y-28460D01*
Y-28040D01*
X336650Y-27830D01*
X336960Y-28040D01*
Y-28460D01*
X336650Y-28670D01*
G01X350910Y-28250D02*
Y-15750D01*
X345170Y-24710D01*
X352930D01*
G01X313710Y-3250D02*
Y9250D01*
X307970Y290D01*
X315730D01*
G01X323940Y-3250D02*
X324250Y-540D01*
X324720Y1750D01*
X325330Y3830D01*
X326110Y6120D01*
X327350Y9250D01*
X321150D01*
G01X336650Y-3670D02*
X336340Y-3460D01*
Y-3040D01*
X336650Y-2830D01*
X336960Y-3040D01*
Y-3460D01*
X336650Y-3670D01*
G01X346100Y7170D02*
X347040Y8420D01*
X348120Y9040D01*
X349360Y9250D01*
X350910Y8830D01*
X352000Y7790D01*
X352310Y6540D01*
X352150Y5290D01*
X351530Y4250D01*
X348430Y2170D01*
X347040Y710D01*
X346100Y-1380D01*
X345790Y-3250D01*
X352310D01*
G01X313710Y21750D02*
Y34250D01*
X307970Y25290D01*
X315730D01*
G01X323940Y21750D02*
X324250Y24460D01*
X324720Y26750D01*
X325330Y28830D01*
X326110Y31120D01*
X327350Y34250D01*
X321150D01*
G01X336650Y21330D02*
X336340Y21540D01*
Y21960D01*
X336650Y22170D01*
X336960Y21960D01*
Y21540D01*
X336650Y21330D01*
G01X346100Y32170D02*
X347040Y33420D01*
X348120Y34040D01*
X349360Y34250D01*
X350910Y33830D01*
X352000Y32790D01*
X352310Y31540D01*
X352150Y30290D01*
X351530Y29250D01*
X348430Y27170D01*
X347040Y25710D01*
X346100Y23620D01*
X345790Y21750D01*
X352310D01*
G01X308590Y48420D02*
X309840Y47370D01*
X311230Y46750D01*
X312470D01*
X313710Y47370D01*
X314640Y48420D01*
X315110Y49880D01*
X314800Y51330D01*
X314020Y52580D01*
X312620Y53420D01*
X310770Y53830D01*
X309680Y54670D01*
X309210Y56120D01*
X309530Y57580D01*
X310300Y58620D01*
X311380Y59250D01*
X312470D01*
X313560Y58830D01*
X314490Y57790D01*
G01X322390Y59250D02*
X326110D01*
G01X324250D02*
Y46750D01*
G01X322390D02*
X326110D01*
G01X333700Y59250D02*
X339600D01*
X333700Y46750D01*
X339600D01*
G01X352150D02*
X345950D01*
Y59250D01*
X352150D01*
G01X349670Y53210D02*
X345950D01*
G01X429190Y-128250D02*
Y-115750D01*
X436310Y-128250D01*
Y-115750D01*
G01X445150Y-128250D02*
X443910Y-128040D01*
X442830Y-127210D01*
X441890Y-125960D01*
X441270Y-124500D01*
X440960Y-122830D01*
Y-121170D01*
X441270Y-119500D01*
X441890Y-118040D01*
X442830Y-116790D01*
X443910Y-115960D01*
X445150Y-115750D01*
X446390Y-115960D01*
X447470Y-116790D01*
X448410Y-118040D01*
X449030Y-119500D01*
X449340Y-121170D01*
Y-122830D01*
X449030Y-124500D01*
X448410Y-125960D01*
X447470Y-127210D01*
X446390Y-128040D01*
X445150Y-128250D01*
G01X453990D02*
Y-115750D01*
X461110Y-128250D01*
Y-115750D01*
G01X467940Y-124080D02*
X471960D01*
G01X479250Y-128250D02*
Y-115750D01*
X482970D01*
X484210Y-116380D01*
X485140Y-117830D01*
X485450Y-119500D01*
X485140Y-121170D01*
X484360Y-122420D01*
X482970Y-123040D01*
X479250D01*
G01X491650Y-115750D02*
Y-128250D01*
X497850D01*
G01X503270D02*
X507150Y-115750D01*
X511030Y-128250D01*
G01X509630Y-123880D02*
X504670D01*
G01X519550Y-115750D02*
Y-128250D01*
G01X515990Y-115750D02*
X523110D01*
G01X535050Y-128250D02*
X528850D01*
Y-115750D01*
X535050D01*
G01X532570Y-121790D02*
X528850D01*
G01X540940Y-128250D02*
Y-115750D01*
X544040D01*
X545280Y-116380D01*
X546210Y-117210D01*
X546990Y-118460D01*
X547610Y-119920D01*
X547760Y-122000D01*
X547610Y-124080D01*
X546990Y-125540D01*
X546210Y-126790D01*
X545280Y-127630D01*
X544040Y-128250D01*
X540940D01*
G01X454450Y-103250D02*
Y-90750D01*
X458170D01*
X459410Y-91380D01*
X460340Y-92830D01*
X460650Y-94500D01*
X460340Y-96170D01*
X459560Y-97420D01*
X458170Y-98040D01*
X454450D01*
G01X466850Y-90750D02*
Y-103250D01*
X473050D01*
G01X478470D02*
X482350Y-90750D01*
X486230Y-103250D01*
G01X484830Y-98880D02*
X479870D01*
G01X494750Y-90750D02*
Y-103250D01*
G01X491190Y-90750D02*
X498310D01*
G01X510250Y-103250D02*
X504050D01*
Y-90750D01*
X510250D01*
G01X507770Y-96790D02*
X504050D01*
G01X516140Y-103250D02*
Y-90750D01*
X519240D01*
X520480Y-91380D01*
X521410Y-92210D01*
X522190Y-93460D01*
X522810Y-94920D01*
X522960Y-97000D01*
X522810Y-99080D01*
X522190Y-100540D01*
X521410Y-101790D01*
X520480Y-102630D01*
X519240Y-103250D01*
X516140D01*
G01X454450Y-78250D02*
Y-65750D01*
X458170D01*
X459410Y-66380D01*
X460340Y-67830D01*
X460650Y-69500D01*
X460340Y-71170D01*
X459560Y-72420D01*
X458170Y-73040D01*
X454450D01*
G01X466850Y-65750D02*
Y-78250D01*
X473050D01*
G01X478470D02*
X482350Y-65750D01*
X486230Y-78250D01*
G01X484830Y-73880D02*
X479870D01*
G01X494750Y-65750D02*
Y-78250D01*
G01X491190Y-65750D02*
X498310D01*
G01X510250Y-78250D02*
X504050D01*
Y-65750D01*
X510250D01*
G01X507770Y-71790D02*
X504050D01*
G01X516140Y-78250D02*
Y-65750D01*
X519240D01*
X520480Y-66380D01*
X521410Y-67210D01*
X522190Y-68460D01*
X522810Y-69920D01*
X522960Y-72000D01*
X522810Y-74080D01*
X522190Y-75540D01*
X521410Y-76790D01*
X520480Y-77630D01*
X519240Y-78250D01*
X516140D01*
G01X454450Y-53250D02*
Y-40750D01*
X458170D01*
X459410Y-41380D01*
X460340Y-42830D01*
X460650Y-44500D01*
X460340Y-46170D01*
X459560Y-47420D01*
X458170Y-48040D01*
X454450D01*
G01X466850Y-40750D02*
Y-53250D01*
X473050D01*
G01X478470D02*
X482350Y-40750D01*
X486230Y-53250D01*
G01X484830Y-48880D02*
X479870D01*
G01X494750Y-40750D02*
Y-53250D01*
G01X491190Y-40750D02*
X498310D01*
G01X510250Y-53250D02*
X504050D01*
Y-40750D01*
X510250D01*
G01X507770Y-46790D02*
X504050D01*
G01X516140Y-53250D02*
Y-40750D01*
X519240D01*
X520480Y-41380D01*
X521410Y-42210D01*
X522190Y-43460D01*
X522810Y-44920D01*
X522960Y-47000D01*
X522810Y-49080D01*
X522190Y-50540D01*
X521410Y-51790D01*
X520480Y-52630D01*
X519240Y-53250D01*
X516140D01*
G01X454450Y-28250D02*
Y-15750D01*
X458170D01*
X459410Y-16380D01*
X460340Y-17830D01*
X460650Y-19500D01*
X460340Y-21170D01*
X459560Y-22420D01*
X458170Y-23040D01*
X454450D01*
G01X466850Y-15750D02*
Y-28250D01*
X473050D01*
G01X478470D02*
X482350Y-15750D01*
X486230Y-28250D01*
G01X484830Y-23880D02*
X479870D01*
G01X494750Y-15750D02*
Y-28250D01*
G01X491190Y-15750D02*
X498310D01*
G01X510250Y-28250D02*
X504050D01*
Y-15750D01*
X510250D01*
G01X507770Y-21790D02*
X504050D01*
G01X516140Y-28250D02*
Y-15750D01*
X519240D01*
X520480Y-16380D01*
X521410Y-17210D01*
X522190Y-18460D01*
X522810Y-19920D01*
X522960Y-22000D01*
X522810Y-24080D01*
X522190Y-25540D01*
X521410Y-26790D01*
X520480Y-27630D01*
X519240Y-28250D01*
X516140D01*
G01X454450Y-3250D02*
Y9250D01*
X458170D01*
X459410Y8620D01*
X460340Y7170D01*
X460650Y5500D01*
X460340Y3830D01*
X459560Y2580D01*
X458170Y1960D01*
X454450D01*
G01X466850Y9250D02*
Y-3250D01*
X473050D01*
G01X478470D02*
X482350Y9250D01*
X486230Y-3250D01*
G01X484830Y1120D02*
X479870D01*
G01X494750Y9250D02*
Y-3250D01*
G01X491190Y9250D02*
X498310D01*
G01X510250Y-3250D02*
X504050D01*
Y9250D01*
X510250D01*
G01X507770Y3210D02*
X504050D01*
G01X516140Y-3250D02*
Y9250D01*
X519240D01*
X520480Y8620D01*
X521410Y7790D01*
X522190Y6540D01*
X522810Y5080D01*
X522960Y3000D01*
X522810Y920D01*
X522190Y-540D01*
X521410Y-1790D01*
X520480Y-2630D01*
X519240Y-3250D01*
X516140D01*
G01X454450Y21750D02*
Y34250D01*
X458170D01*
X459410Y33620D01*
X460340Y32170D01*
X460650Y30500D01*
X460340Y28830D01*
X459560Y27580D01*
X458170Y26960D01*
X454450D01*
G01X466850Y34250D02*
Y21750D01*
X473050D01*
G01X478470D02*
X482350Y34250D01*
X486230Y21750D01*
G01X484830Y26120D02*
X479870D01*
G01X494750Y34250D02*
Y21750D01*
G01X491190Y34250D02*
X498310D01*
G01X510250Y21750D02*
X504050D01*
Y34250D01*
X510250D01*
G01X507770Y28210D02*
X504050D01*
G01X516140Y21750D02*
Y34250D01*
X519240D01*
X520480Y33620D01*
X521410Y32790D01*
X522190Y31540D01*
X522810Y30080D01*
X522960Y28000D01*
X522810Y25920D01*
X522190Y24460D01*
X521410Y23210D01*
X520480Y22370D01*
X519240Y21750D01*
X516140D01*
G01X454450Y46750D02*
Y59250D01*
X458170D01*
X459410Y58620D01*
X460340Y57170D01*
X460650Y55500D01*
X460340Y53830D01*
X459560Y52580D01*
X458170Y51960D01*
X454450D01*
G01X466850Y59250D02*
Y46750D01*
X473050D01*
G01X478470D02*
X482350Y59250D01*
X486230Y46750D01*
G01X484830Y51120D02*
X479870D01*
G01X494750Y59250D02*
Y46750D01*
G01X491190Y59250D02*
X498310D01*
G01X510250Y46750D02*
X504050D01*
Y59250D01*
X510250D01*
G01X507770Y53210D02*
X504050D01*
G01X516140Y46750D02*
Y59250D01*
X519240D01*
X520480Y58620D01*
X521410Y57790D01*
X522190Y56540D01*
X522810Y55080D01*
X522960Y53000D01*
X522810Y50920D01*
X522190Y49460D01*
X521410Y48210D01*
X520480Y47370D01*
X519240Y46750D01*
X516140D01*
G01X578450D02*
X577210Y46960D01*
X576130Y47790D01*
X575190Y49040D01*
X574570Y50500D01*
X574260Y52170D01*
Y53830D01*
X574570Y55500D01*
X575190Y56960D01*
X576130Y58210D01*
X577210Y59040D01*
X578450Y59250D01*
X579690Y59040D01*
X580770Y58210D01*
X581710Y56960D01*
X582330Y55500D01*
X582640Y53830D01*
Y52170D01*
X582330Y50500D01*
X581710Y49040D01*
X580770Y47790D01*
X579690Y46960D01*
X578450Y46750D01*
G01X579690Y50080D02*
X581550Y46750D01*
G01X590850Y59250D02*
Y46750D01*
G01X587290Y59250D02*
X594410D01*
G01X603250Y46750D02*
Y52370D01*
X600150Y59250D01*
G01X606350D02*
X603250Y52370D01*
G01X581240Y-75750D02*
X582170Y-77210D01*
X583410Y-78040D01*
X584810Y-78250D01*
X586050Y-78040D01*
X587290Y-77000D01*
X588060Y-75750D01*
X588210Y-74500D01*
X587910Y-73040D01*
X586820Y-72000D01*
X585730Y-71580D01*
X584340D01*
G01X585730D02*
X586660Y-70960D01*
X587440Y-69920D01*
X587750Y-68670D01*
X587440Y-67420D01*
X586660Y-66380D01*
X585270Y-65750D01*
X583880Y-65960D01*
X582480Y-66790D01*
G01X594410Y-76790D02*
X595500Y-77830D01*
X596740Y-78250D01*
X597980Y-77830D01*
X599060Y-76580D01*
X599840Y-74710D01*
X600150Y-72830D01*
Y-70540D01*
X599840Y-68670D01*
X599060Y-67000D01*
X598130Y-66170D01*
X597050Y-65750D01*
X595810Y-66170D01*
X594880Y-67000D01*
X594260Y-68250D01*
X593950Y-69920D01*
X594260Y-71370D01*
X595040Y-72830D01*
X595970Y-73670D01*
X597050Y-73880D01*
X598290Y-73460D01*
X599220Y-72420D01*
X600150Y-70540D01*
G01X581240Y-25750D02*
X582170Y-27210D01*
X583410Y-28040D01*
X584810Y-28250D01*
X586050Y-28040D01*
X587290Y-27000D01*
X588060Y-25750D01*
X588210Y-24500D01*
X587910Y-23040D01*
X586820Y-22000D01*
X585730Y-21580D01*
X584340D01*
G01X585730D02*
X586660Y-20960D01*
X587440Y-19920D01*
X587750Y-18670D01*
X587440Y-17420D01*
X586660Y-16380D01*
X585270Y-15750D01*
X583880Y-15960D01*
X582480Y-16790D01*
G01X594100Y-17830D02*
X595040Y-16580D01*
X596120Y-15960D01*
X597360Y-15750D01*
X598910Y-16170D01*
X600000Y-17210D01*
X600310Y-18460D01*
X600150Y-19710D01*
X599530Y-20750D01*
X596430Y-22830D01*
X595040Y-24290D01*
X594100Y-26380D01*
X593790Y-28250D01*
X600310D01*
G01X592710Y-128250D02*
Y-115750D01*
X586970Y-124710D01*
X594730D01*
G01X590540Y-103250D02*
X590850Y-100540D01*
X591320Y-98250D01*
X591930Y-96170D01*
X592710Y-93880D01*
X593950Y-90750D01*
X587750D01*
G01X592710Y-53250D02*
Y-40750D01*
X586970Y-49710D01*
X594730D01*
G01X592710Y-3250D02*
Y9250D01*
X586970Y290D01*
X594730D01*
G01X587900Y32170D02*
X588840Y33420D01*
X589920Y34040D01*
X591160Y34250D01*
X592710Y33830D01*
X593800Y32790D01*
X594110Y31540D01*
X593950Y30290D01*
X593330Y29250D01*
X590230Y27170D01*
X588840Y25710D01*
X587900Y23620D01*
X587590Y21750D01*
X594110D01*
G54D15*
G01X-64000Y196000D02*
Y210000D01*
G02X-54000Y220000I10000J0D01*
G01X54000D01*
G02X64000Y210000I0J-10000D01*
G01Y196000D01*
G03X74000Y186000I10000J0D01*
G01X76000D01*
G02X86000Y176000I0J-10000D01*
G01Y170000D01*
G03X96000Y160000I10000J0D01*
G01X98000D01*
G02X108000Y150000I0J-10000D01*
G01Y-120000D01*
G02X98000Y-130000I-10000J0D01*
G01X96000D01*
G03X86000Y-140000I0J-10000D01*
G01Y-156000D01*
G02X76000Y-166000I-10000J0D01*
G01X74000D01*
G03X64000Y-176000I0J-10000D01*
G01Y-210000D01*
G02X54000Y-220000I-10000J0D01*
G01X-54000D01*
G02X-64000Y-210000I0J10000D01*
G01Y-176000D01*
G03X-74000Y-166000I-10000J0D01*
G01X-76000D01*
G02X-86000Y-156000I0J10000D01*
G01Y-140000D01*
G03X-96000Y-130000I-10000J0D01*
G01X-98000D01*
G02X-108000Y-120000I0J10000D01*
G01Y150000D01*
G02X-98000Y160000I10000J0D01*
G01X-96000D01*
G03X-86000Y170000I0J10000D01*
G01Y176000D01*
G02X-76000Y186000I10000J0D01*
G01X-74000D01*
G03X-64000Y196000I0J10000D01*
G01X146000Y-134500D02*
Y115500D01*
X629600D01*
Y-134500D01*
X146000D01*
G01Y-109500D02*
X629600D01*
G01X146000Y-84500D02*
X629600D01*
G01X146000Y-59500D02*
X629600D01*
G01X146000Y-34500D02*
X629600D01*
G01X146000Y-9500D02*
X629600D01*
G01X146000Y15500D02*
X629600D01*
G01X146000Y40500D02*
X629600D01*
G01X146000Y65500D02*
X629600D01*
G01X146000Y90500D02*
X629600D01*
G01X235900Y65500D02*
Y-134500D01*
G01X425000Y65500D02*
Y-134500D01*
G01X552100Y65500D02*
Y-134500D01*
M02*
