G04 ================== begin FILE IDENTIFICATION RECORD ==================*
G04 Layout Name:  D:/winprj/orcad/美容护理/水床18/核心板/pcb/pcb.brd*
G04 Film Name:    OUTLINE*
G04 File Format:  Gerber RS274X*
G04 File Origin:  Cadence Allegro 16.6-2015-S108*
G04 Origin Date:  Thu Oct 18 11:45:50 2018*
G04 *
G04 Layer:  BOARD GEOMETRY/OUTLINE*
G04 *
G04 Offset:    (0.0 0.0)*
G04 Mirror:    No*
G04 Mode:      Positive*
G04 Rotation:  0*
G04 FullContactRelief:  No*
G04 UndefLineWidth:     6.0*
G04 ================== end FILE IDENTIFICATION RECORD ====================*
%FSLAX25Y25*MOIN*%
%IR0*IPPOS*OFA0.00000B0.00000*MIA0B0*SFA1.00000B1.00000*%
%ADD10C,.006*%
G75*
%LPD*%
G75*
G54D10*
G01X-64000Y196000D02*
Y210000D01*
G02X-54000Y220000I10000J0D01*
G01X54000D01*
G02X64000Y210000I0J-10000D01*
G01Y196000D01*
G03X74000Y186000I10000J0D01*
G01X76000D01*
G02X86000Y176000I0J-10000D01*
G01Y170000D01*
G03X96000Y160000I10000J0D01*
G01X98000D01*
G02X108000Y150000I0J-10000D01*
G01Y-120000D01*
G02X98000Y-130000I-10000J0D01*
G01X96000D01*
G03X86000Y-140000I0J-10000D01*
G01Y-156000D01*
G02X76000Y-166000I-10000J0D01*
G01X74000D01*
G03X64000Y-176000I0J-10000D01*
G01Y-210000D01*
G02X54000Y-220000I-10000J0D01*
G01X-54000D01*
G02X-64000Y-210000I0J10000D01*
G01Y-176000D01*
G03X-74000Y-166000I-10000J0D01*
G01X-76000D01*
G02X-86000Y-156000I0J10000D01*
G01Y-140000D01*
G03X-96000Y-130000I-10000J0D01*
G01X-98000D01*
G02X-108000Y-120000I0J10000D01*
G01Y150000D01*
G02X-98000Y160000I10000J0D01*
G01X-96000D01*
G03X-86000Y170000I0J10000D01*
G01Y176000D01*
G02X-76000Y186000I10000J0D01*
G01X-74000D01*
G03X-64000Y196000I0J10000D01*
M02*
