M48
INCH,TZ
T01C.0472
T02C.0394
T03C.0236
T04C.0197
T05C.0118
T06C.1575
;LEADER: 12 
;HEADER: 
;CODE  : ASCII 
;FILE  : pcb-1-2.drl for  ... layers TOP and BOTTOM
;DESIGN: pcb.brd
;T01 Holesize 1. = 47.200000 Tolerance = +0.000000/-0.000000 PLATED MILS Quantity = 6
;T02 Holesize 2. = 39.400000 Tolerance = +0.000000/-0.000000 PLATED MILS Quantity = 32
;T03 Holesize 3. = 23.600000 Tolerance = +0.000000/-0.000000 PLATED MILS Quantity = 4
;T04 Holesize 4. = 19.700000 Tolerance = +0.000000/-0.000000 PLATED MILS Quantity = 39
;T05 Holesize 5. = 11.800000 Tolerance = +0.000000/-0.000000 PLATED MILS Quantity = 7
;T06 Holesize 6. = 157.500000 Tolerance = +0.000000/-0.000000 NON_PLATED MILS Quantity = 4
%
G90
T01
X-24610Y-180160
X24610Y-180160
X-24610Y-199840
X24610Y-199840
X-48030Y140000
X30710Y140000
T02
X-75000Y-115000
X-75000Y-125000
X-65000Y-115000
X-65000Y-125000
X-55000Y-115000
X-55000Y-125000
X-45000Y-115000
X-45000Y-125000
X-35000Y-115000
X-35000Y-125000
X-25000Y-115000
X-25000Y-125000
X-15000Y-115000
X-15000Y-125000
X-5000Y-115000
X-5000Y-125000
X5000Y-115000
X5000Y-125000
X15000Y-115000
X15000Y-125000
X25000Y-115000
X25000Y-125000
X35000Y-115000
X35000Y-125000
X45000Y-115000
X45000Y-125000
X55000Y-115000
X55000Y-125000
X65000Y-115000
X65000Y-125000
X75000Y-115000
X75000Y-125000
T03
X11810Y200000
X3940Y200000
X-3940Y200000
X-11810Y200000
T04
X4500Y-81000
X-3500Y-81000
X500Y-76500
X-7500Y-76500
X-10500Y-47000
X-10500Y21000
X-12000Y-52000
X-16000Y18500
X500Y-47500
X500Y34000
X-4920Y-46580
X-4920Y37420
X2000Y-52500
X5500Y37420
X-14000Y-83500
X22240Y-87260
X-70000Y-24000
X-55500Y-26000
X-34000Y-20500
X22500Y-17500
X-30500Y-500
X17000Y-500
X39500Y32000
X20000Y51000
X-23500Y63000
X-95500Y65500
X-17740Y70240
X32220Y82500
X63690Y98690
X42690Y182810
X40000Y-10000
X60000Y-10000
X-50000Y0
X-80000Y0
X60000Y-50000
X60000Y-80000
X11000Y-44000
X-23330Y-70000
X-70000Y-66000
T05
X-33000Y-26500
X-35500Y-29500
X-39230Y-33270
X-35350Y-36150
X-35500Y-41000
X-31480Y-40980
X-28500Y-44000
T06
X-74800Y174800
X-74800Y-155200
X74800Y-155200
X74800Y174800
M30
