G04 ================== begin FILE IDENTIFICATION RECORD ==================*
G04 Layout Name:  D:/winprj/orcad/美容护理/水床18/核心板/pcb/pcb.brd*
G04 Film Name:    SILKSCREEN_TOP*
G04 File Format:  Gerber RS274X*
G04 File Origin:  Cadence Allegro 16.6-2015-S108*
G04 Origin Date:  Thu Oct 18 11:45:50 2018*
G04 *
G04 Layer:  PACKAGE GEOMETRY/SILKSCREEN_TOP*
G04 Layer:  MANUFACTURING/AUTOSILK_TOP*
G04 Layer:  BOARD GEOMETRY/SILKSCREEN_TOP*
G04 *
G04 Offset:    (0.0 0.0)*
G04 Mirror:    No*
G04 Mode:      Positive*
G04 Rotation:  0*
G04 FullContactRelief:  No*
G04 UndefLineWidth:     6.0*
G04 ================== end FILE IDENTIFICATION RECORD ====================*
%FSLAX25Y25*MOIN*%
%IR0*IPPOS*OFA0.00000B0.00000*MIA0B0*SFA1.00000B1.00000*%
%ADD10C,.006*%
%ADD11C,.0039*%
G75*
%LPD*%
G75*
G54D10*
G01X-4160Y-191590D02*
X-3850Y-191850D01*
X-3500Y-192000D01*
X-3200D01*
X-2890Y-191850D01*
X-2660Y-191590D01*
X-2540Y-191220D01*
X-2620Y-190860D01*
X-2810Y-190550D01*
X-3160Y-190350D01*
X-3620Y-190240D01*
X-3890Y-190040D01*
X-4000Y-189680D01*
X-3920Y-189310D01*
X-3730Y-189060D01*
X-3470Y-188900D01*
X-3200D01*
X-2930Y-189000D01*
X-2700Y-189260D01*
G01X-1400Y-188900D02*
X-860Y-192000D01*
X-250Y-188900D01*
X360Y-192000D01*
X900Y-188900D01*
G01X2850Y-192000D02*
Y-188900D01*
X2390Y-189520D01*
G01Y-192000D02*
X3310D01*
G01X-2620Y207120D02*
X-2420Y206810D01*
X-2200Y206600D01*
X-1930Y206500D01*
X-1620Y206600D01*
X-1390Y206810D01*
X-1160Y207120D01*
X-1080Y207530D01*
Y209600D01*
G01X520Y209080D02*
X750Y209390D01*
X1020Y209550D01*
X1330Y209600D01*
X1710Y209500D01*
X1980Y209240D01*
X2060Y208930D01*
X2020Y208620D01*
X1860Y208360D01*
X1100Y207840D01*
X750Y207480D01*
X520Y206960D01*
X440Y206500D01*
X2060D01*
G01X82380Y-119880D02*
X82580Y-120190D01*
X82800Y-120400D01*
X83070Y-120500D01*
X83380Y-120400D01*
X83610Y-120190D01*
X83840Y-119880D01*
X83920Y-119470D01*
Y-117400D01*
G01X86710Y-120500D02*
Y-117400D01*
X85290Y-119620D01*
X87210D01*
G54D11*
G01X-64960Y-155200D02*
G03I-9840J0D01*
G01X-84640D02*
G03X-74800Y-165040I9840J0D01*
G01Y-145360D02*
G03X-84640Y-155200I0J-9840D01*
G01X-64960Y174800D02*
G03I-9840J0D01*
G01X-84640D02*
G03X-74800Y164960I9840J0D01*
G01Y184640D02*
G03X-84640Y174800I0J-9840D01*
G01X-74800Y-165040D02*
G03X-64960Y-155200I0J9840D01*
G01D02*
G03X-74800Y-145360I-9840J0D01*
G01Y164960D02*
G03X-64960Y174800I0J9840D01*
G01D02*
G03X-74800Y184640I-9840J0D01*
G01X23620Y-205750D02*
Y-213620D01*
X-23620D01*
Y-205750D01*
G01X23620D02*
Y-213620D01*
X-23620D01*
Y-205750D01*
G01Y-174250D02*
Y-166380D01*
X23620D01*
Y-174250D01*
G01X-23620D02*
Y-166380D01*
X23620D01*
Y-174250D01*
G01X19690Y-190000D02*
G03I-19690J0D01*
G01D02*
G03I-19690J0D01*
G01X84640Y-155200D02*
G03I-9840J0D01*
G01X64960D02*
G03X74800Y-165040I9840J0D01*
G01Y-145360D02*
G03X64960Y-155200I0J-9840D01*
G01X84640Y174800D02*
G03I-9840J0D01*
G01X64960D02*
G03X74800Y164960I9840J0D01*
G01Y184640D02*
G03X64960Y174800I0J-9840D01*
G01X74800Y-165040D02*
G03X84640Y-155200I0J9840D01*
G01D02*
G03X74800Y-145360I-9840J0D01*
G01Y164960D02*
G03X84640Y174800I0J9840D01*
G01D02*
G03X74800Y184640I-9840J0D01*
M02*
