G04 ================== begin FILE IDENTIFICATION RECORD ==================*
G04 Layout Name:  D:/winprj/orcad/美容护理/水床18/核心板/pcb/pcb.brd*
G04 Film Name:    SOLDERMASK_BOTTOM*
G04 File Format:  Gerber RS274X*
G04 File Origin:  Cadence Allegro 16.6-2015-S108*
G04 Origin Date:  Thu Oct 18 11:45:50 2018*
G04 *
G04 Layer:  VIA CLASS/SOLDERMASK_BOTTOM*
G04 Layer:  PIN/SOLDERMASK_BOTTOM*
G04 Layer:  PACKAGE GEOMETRY/SOLDERMASK_BOTTOM*
G04 Layer:  BOARD GEOMETRY/SOLDERMASK_BOTTOM*
G04 *
G04 Offset:    (0.0 0.0)*
G04 Mirror:    No*
G04 Mode:      Positive*
G04 Rotation:  0*
G04 FullContactRelief:  No*
G04 UndefLineWidth:     6.0*
G04 ================== end FILE IDENTIFICATION RECORD ====================*
%FSLAX25Y25*MOIN*%
%IR0*IPPOS*OFA0.00000B0.00000*MIA0B0*SFA1.00000B1.00000*%
%ADD11R,.122X.0512*%
%ADD20R,.0413X.1063*%
%ADD23R,.1063X.0413*%
%ADD22R,.1319X.0886*%
%ADD18C,.0512*%
%ADD17O,.0138X.0571*%
%ADD16O,.0571X.0138*%
%ADD13R,.0335X.0571*%
%ADD14R,.0571X.0335*%
%ADD10C,.0748*%
%ADD21R,.0413X.0886*%
%ADD19R,.0276X.0591*%
%ADD12R,.0827X.0276*%
%ADD15O,.0669X.0984*%
%LPD*%
G75*
G54D10*
X-75000Y-125000D03*
Y-115000D03*
X-65000Y-125000D03*
Y-115000D03*
X-55000Y-125000D03*
Y-115000D03*
X-48030Y140000D03*
X-45000Y-125000D03*
Y-115000D03*
X-35000Y-125000D03*
Y-115000D03*
X-25000Y-125000D03*
Y-115000D03*
X-15000Y-125000D03*
Y-115000D03*
X-5000Y-125000D03*
Y-115000D03*
X5000Y-125000D03*
Y-115000D03*
X15000Y-125000D03*
Y-115000D03*
X25000Y-125000D03*
Y-115000D03*
X30710Y140000D03*
X35000Y-125000D03*
Y-115000D03*
X45000Y-125000D03*
Y-115000D03*
X55000Y-125000D03*
Y-115000D03*
X65000Y-125000D03*
Y-115000D03*
X75000Y-125000D03*
Y-115000D03*
G54D20*
X29310Y200000D03*
X42690D03*
G54D11*
X-70000Y-56310D03*
Y-48440D03*
Y-40560D03*
Y-32690D03*
G54D12*
X-75900Y38000D03*
Y43000D03*
Y48000D03*
Y58000D03*
Y53000D03*
Y63000D03*
Y68000D03*
Y73000D03*
X-38100Y38000D03*
Y43000D03*
Y48000D03*
Y53000D03*
Y58000D03*
Y63000D03*
Y68000D03*
Y73000D03*
G54D21*
X40940Y71420D03*
X50000D03*
X59060D03*
G54D13*
X-70330Y28000D03*
X-61670D03*
X-54330D03*
X-45670D03*
X-23330Y-77500D03*
X-23420Y-500D03*
X-14670Y-77500D03*
X-14760Y-500D03*
X-2950D03*
X5710D03*
X45670Y32000D03*
X54330D03*
G54D22*
X50000Y48580D03*
G54D14*
X-55500Y-57100D03*
Y-48440D03*
Y-40560D03*
Y-31900D03*
X22240Y-81830D03*
Y-73170D03*
X20000Y61580D03*
Y70240D03*
G54D23*
X50000Y85310D03*
Y98690D03*
G54D15*
X-24610Y-199840D03*
Y-180160D03*
X24610Y-199840D03*
Y-180160D03*
G54D16*
X-22240Y-54760D03*
Y-48860D03*
Y-50830D03*
Y-52800D03*
Y-42950D03*
Y-44920D03*
Y-46890D03*
Y-39020D03*
Y-40980D03*
Y-33110D03*
Y-35080D03*
Y-37050D03*
Y-27200D03*
Y-29170D03*
Y-31140D03*
Y-25240D03*
X22240Y-54760D03*
Y-52800D03*
Y-50830D03*
Y-48860D03*
Y-46890D03*
Y-44920D03*
Y-42950D03*
Y-40980D03*
Y-39020D03*
Y-37050D03*
Y-35080D03*
Y-33110D03*
Y-31140D03*
Y-29170D03*
Y-27200D03*
Y-25240D03*
G54D17*
X-14760Y-62240D03*
X-12800D03*
Y-17760D03*
X-14760D03*
X-10830Y-62240D03*
X-8860D03*
X-6890D03*
Y-17760D03*
X-8860D03*
X-10830D03*
X-4920Y-62240D03*
X-2950D03*
X-980D03*
Y-17760D03*
X-2950D03*
X-4920D03*
X980Y-62240D03*
X2950D03*
Y-17760D03*
X980D03*
X4920Y-62240D03*
X6890D03*
X8860D03*
Y-17760D03*
X6890D03*
X4920D03*
X10830Y-62240D03*
X12800D03*
X14760D03*
Y-17760D03*
X12800D03*
X10830D03*
G54D18*
X-11810Y200000D03*
X-3940D03*
X3940D03*
X11810D03*
G54D19*
X-7500Y49760D03*
Y70240D03*
X-2500Y49760D03*
Y70240D03*
X2500Y49760D03*
Y70240D03*
X7500Y49760D03*
Y70240D03*
M02*
